{
.formatVersion = 3;
date = "2011-10-28 13:13:26 +0000";
familyName = Convergence;
fontMaster = (
{
customParameters = (
{
name = typoAscender;
value = 943;
},
{
name = typoDescender;
value = -230;
},
{
name = typoLineGap;
value = 0;
},
{
name = winAscent;
value = 943;
},
{
name = winDescent;
value = 230;
},
{
name = hheaAscender;
value = 943;
},
{
name = hheaDescender;
value = -230;
},
{
name = hheaLineGap;
value = 0;
}
);
id = "299db4c4-aa3b-4344-9706-c7608b9a95a1";
metricValues = (
{
},
{
pos = -50;
},
{
pos = 50;
},
{
pos = 800;
},
{
pos = -200;
},
{
pos = 700;
},
{
pos = 650;
},
{
},
{
pos = 140;
},
{
pos = 700;
},
{
pos = 650;
},
{
},
{
pos = 477;
},
{
pos = 50;
},
{
pos = 250;
}
);
name = Regular;
visible = 1;
}
);
glyphs = (
{
glyphname = E;
layers = (
{
layerId = "299db4c4-aa3b-4344-9706-c7608b9a95a1";
name = Fore;
shapes = (
{
closed = 1;
nodes = (
(108,720,l),
(525,720,l),
(525,627,l),
(222,627,l),
(222,409,l),
(485,409,l),
(485,322,l),
(222,322,l),
(222,93,l),
(545,93,l),
(531,0,l),
(108,0,l)
);
}
);
width = 599;
}
);
unicode = 69;
},
{
glyphname = v;
kernLeft = v;
layers = (
{
layerId = "299db4c4-aa3b-4344-9706-c7608b9a95a1";
name = Fore;
shapes = (
{
closed = 1;
nodes = (
(15,520,l),
(120,539,l),
(219,286,l),
(273,141,o),
(275,120,q),
(282,120,l),
(284,140,o),
(339,286,q),
(430,539,l),
(535,520,l),
(323,0,l),
(227,0,l)
);
}
);
width = 550;
}
);
unicode = 118;
},
{
glyphname = M;
layers = (
{
layerId = "299db4c4-aa3b-4344-9706-c7608b9a95a1";
name = Fore;
shapes = (
{
closed = 1;
nodes = (
(131,713,l),
(199,726,o),
(263,726,q),
(283,726,o),
(292,704,q),
(483,182,l),
(674,704,l),
(683,726,o),
(703,726,q),
(775,726,o),
(835,713,q),
(868,0,l),
(759,0,l),
(742,613,l),
(559,100,l),
(475,86,o),
(443,86,q),
(411,86,o),
(403,108,q),
(224,613,l),
(207,0,l),
(98,0,l)
);
}
);
width = 966;
}
);
unicode = 77;
},
{
glyphname = N;
layers = (
{
layerId = "299db4c4-aa3b-4344-9706-c7608b9a95a1";
name = Fore;
shapes = (
{
closed = 1;
nodes = (
(573,-9,l),
(552,-9,o),
(536,16,q),
(207,545,l),
(222,0,l),
(108,0,l),
(108,720,l),
(186,729,l),
(208,729,o),
(224,704,q),
(555,176,l),
(537,720,l),
(651,720,l),
(651,0,l)
);
}
);
width = 759;
}
);
unicode = 78;
},
{
glyphname = V;
kernLeft = V.2;
kernRight = V;
layers = (
{
layerId = "299db4c4-aa3b-4344-9706-c7608b9a95a1";
name = Fore;
shapes = (
{
closed = 1;
nodes = (
(5,713,l),
(122,727,l),
(333,115,l),
(544,727,l),
(661,713,l),
(406,7,l),
(394,3,o),
(354.5,-2,q),
(315,-7,o),
(289,-7,q),
(263,-7,o),
(252,27,q)
);
}
);
width = 666;
}
);
unicode = 86;
},
{
glyphname = Z;
layers = (
{
layerId = "299db4c4-aa3b-4344-9706-c7608b9a95a1";
name = Fore;
shapes = (
{
closed = 1;
nodes = (
(48,96,l),
(48,122,o),
(64,143,q),
(401,591,l),
(415,609,o),
(415,624,q),
(58,624,l),
(58,720,l),
(537,720,l),
(537,624,l),
(537,601,o),
(526,587,q),
(187,137,l),
(172,118,o),
(172,96,q),
(551,96,l),
(537,0,l),
(48,0,l)
);
}
);
width = 591;
}
);
unicode = 90;
},
{
glyphname = K;
kernRight = K;
layers = (
{
layerId = "299db4c4-aa3b-4344-9706-c7608b9a95a1";
name = Fore;
shapes = (
{
closed = 1;
nodes = (
(108,720,l),
(222,720,l),
(222,410,l),
(486,727,l),
(605,713,l),
(368,436,l),
(621,0,l),
(490,0,l),
(293,349,l),
(222,265,l),
(222,0,l),
(108,0,l)
);
}
);
width = 646;
}
);
unicode = 75;
},
{
glyphname = f;
kernLeft = f;
layers = (
{
layerId = "299db4c4-aa3b-4344-9706-c7608b9a95a1";
name = Fore;
shapes = (
{
closed = 1;
nodes = (
(120,443,l),
(25,443,l),
(25,502,l),
(120,515,l),
(120,593,l),
(120,675,o),
(162.5,721.5,q),
(205,768,o),
(294,768,q),
(344.1429,768,o),
(365.5714,762,q),
(387,756,o),
(398,753,q),
(409,750,l),
(393,677,l),
(337,684,o),
(307,684,q),
(277,684,o),
(252.5,661.5,q),
(228,639,o),
(228,591,q),
(228,515,l),
(348,515,l),
(336,443,l),
(228,443,l),
(228,-45,l),
(228,-127,o),
(195,-173.5,q),
(162,-220,o),
(93,-220,q),
(54,-220,o),
(23,-209,q),
(36,-133,l),
(48,-136,o),
(67,-136,q),
(120,-136,o),
(120,-43,q)
);
}
);
width = 378;
}
);
unicode = 102;
},
{
glyphname = braceright;
layers = (
{
layerId = "299db4c4-aa3b-4344-9706-c7608b9a95a1";
name = Fore;
shapes = (
{
closed = 1;
nodes = (
(113,-12,o),
(143,18.5,q),
(173,49,o),
(173,94,q),
(173,112,o),
(164,157,q),
(155,202,o),
(155,209,q),
(155,300,o),
(225,332,q),
(155,364,o),
(155,455,q),
(155,462,o),
(164,507,q),
(173,552,o),
(173,570,q),
(173,615,o),
(143,645.5,q),
(113,676,o),
(60,676,q),
(88,754,l),
(193,754,o),
(238.5,704,q),
(284,654,o),
(284,578,q),
(284,549,o),
(275.5,500,q),
(267,451,o),
(267,427,q),
(267,369,o),
(347,358,q),
(347,306,l),
(267,295,o),
(267,237,q),
(267,213,o),
(275.5,164,q),
(284,115,o),
(284,86,q),
(284,10,o),
(238.5,-40,q),
(193,-90,o),
(88,-90,q),
(60,-12,l)
);
}
);
width = 392;
}
);
unicode = 125;
},
{
glyphname = y;
kernLeft = y;
layers = (
{
layerId = "299db4c4-aa3b-4344-9706-c7608b9a95a1";
name = Fore;
shapes = (
{
closed = 1;
nodes = (
(182,-133,o),
(254,-133,q),
(326,-133,o),
(365.5,-100,q),
(405,-67,o),
(405,30,q),
(342,-12,o),
(258,-12,q),
(174,-12,o),
(127,44.5,q),
(80,101,o),
(80,184,q),
(80,527,l),
(188,541,l),
(188,204,l),
(188,72,o),
(293,72,q),
(374,72,o),
(405,117,q),
(405,527,l),
(513,541,l),
(513,32,l),
(513,-90,o),
(449.5,-155,q),
(386,-220,o),
(269,-220,q),
(196.9091,-220,o),
(161.4545,-210,q),
(126,-200,o),
(109.5,-194.5,q),
(93,-189,o),
(91,-189,q),
(114,-108,l)
);
}
);
width = 613;
}
);
unicode = 121;
},
{
glyphname = j;
kernLeft = j;
layers = (
{
layerId = "299db4c4-aa3b-4344-9706-c7608b9a95a1";
name = Fore;
shapes = (
{
closed = 1;
nodes = (
(122,633,o),
(106,648.5,q),
(90,664,o),
(90,694,q),
(90,724,o),
(106.5,742,q),
(123,760,o),
(152,760,q),
(181,760,o),
(197.5,744.5,q),
(214,729,o),
(214,698,q),
(214,633,o),
(145,633,q)
);
},
{
closed = 1;
nodes = (
(100,527,l),
(208,541,l),
(208,-45,l),
(208,-127,o),
(165.5,-173.5,q),
(123,-220,o),
(34,-220,q),
(-7,-220,o),
(-39,-213,q),
(-32,-132,l),
(-19,-133,o),
(16.5,-133,q),
(52,-133,o),
(76,-111.5,q),
(100,-90,o),
(100,-43,q)
);
}
);
width = 308;
}
);
unicode = 106;
},
{
glyphname = two;
layers = (
{
layerId = "299db4c4-aa3b-4344-9706-c7608b9a95a1";
name = Fore;
shapes = (
{
closed = 1;
nodes = (
(35,54,l),
(35,107,o),
(57,154,q),
(79,201,o),
(111.5,233,q),
(144,265,o),
(182.5,297.5,q),
(221,330,o),
(253.5,356.5,q),
(286,383,o),
(308,417,q),
(330,451,o),
(330,487,q),
(330,553,o),
(298.5,579.5,q),
(267,606,o),
(223,606,q),
(144,606,o),
(68,559,q),
(35,631,l),
(70.172,656.5796,o),
(129.586,673.2898,q),
(189,690,o),
(235,690,q),
(341,690,o),
(392.5,630.5,q),
(444,571,o),
(444,488,q),
(444,440,o),
(414.5,393.5,q),
(385,347,o),
(342.5,311,q),
(300,275,o),
(256.5,241,q),
(151.2723,158.7531,o),
(146,99,q),
(430,99,l),
(430,0,l),
(35,0,l)
);
}
);
width = 504;
}
);
unicode = 50;
},
{
glyphname = three;
layers = (
{
layerId = "299db4c4-aa3b-4344-9706-c7608b9a95a1";
name = Fore;
shapes = (
{
closed = 1;
nodes = (
(55,109,l),
(131,72,o),
(202.5,72,q),
(274,72,o),
(307.5,106.5,q),
(341,141,o),
(341,194,q),
(341,259.5,o),
(307,286.5,q),
(290,300,o),
(273.5,309,q),
(257,318,o),
(231.5,321,q),
(189,326,o),
(152,326,q),
(138,403,l),
(239,403,o),
(287,426,q),
(335,449,o),
(335,506,q),
(335,563,o),
(302.5,584.5,q),
(270,606,o),
(224,606,q),
(142,606,o),
(68,569,q),
(37,641,l),
(61.3417,659.2563,o),
(126.1709,674.6281,q),
(191,690,o),
(232.5,690,q),
(274,690,o),
(309,681,q),
(344,672,o),
(376.5,652.5,q),
(409,633,o),
(429,597,q),
(449,561,o),
(449,521,q),
(449,481,o),
(439,454,q),
(429,427,o),
(416.5,412,q),
(404,397,o),
(387,385.5,q),
(363.7849,369.7957,o),
(347,365,q),
(390.2842,347.6863,o),
(413.4225,321.036,q),
(454.6129,272.1505,o),
(455,194,q),
(455,91,o),
(388,39.5,q),
(321,-12,o),
(216.5,-12,q),
(112,-12,o),
(24,37,q)
);
}
);
width = 526;
}
);
unicode = 51;
},
{
glyphname = at;
layers = (
{
layerId = "299db4c4-aa3b-4344-9706-c7608b9a95a1";
name = Fore;
shapes = (
{
closed = 1;
nodes = (
(48,443,o),
(169.5,574.5,q),
(291,706,o),
(516,706,q),
(624,706,o),
(707.5,674,q),
(791,642,o),
(841,585.5,q),
(942,471.37,o),
(942,299,q),
(942,182.5532,o),
(895.5,94.5,q),
(872,50,o),
(829,23.5,q),
(786,-3,o),
(729,-3,q),
(644,-3,o),
(602,59,q),
(598,59,l),
(579,33,o),
(539.5,11,q),
(500,-11,o),
(445,-11,q),
(350,-11,o),
(302,58.5,q),
(254,128,o),
(254,239.5,q),
(254,351,o),
(318.5,425,q),
(383,499,o),
(493,499,q),
(541,499,o),
(603,485.5,q),
(665,472,o),
(697,458,q),
(697,166,l),
(697,121,o),
(708.5,101,q),
(720,81,o),
(746.5,81,q),
(773,81,o),
(792.5,100,q),
(812,119,o),
(822,151,q),
(841,211.8,o),
(841,285,q),
(841,439,o),
(761,527.5,q),
(681,616,o),
(510,616,q),
(339,616,o),
(244,510.5,q),
(149,405,o),
(149,230,q),
(149,55,o),
(244.5,-35.5,q),
(340,-126,o),
(501,-126,q),
(546,-126,o),
(582,-117,q),
(604,-202,l),
(553,-216,o),
(495,-216,q),
(223.0244,-216,o),
(108,-19.5,q),
(48,83,o),
(48,230,q)
);
},
{
closed = 1;
nodes = (
(365,76,o),
(472,76,q),
(527,76,o),
(558,110,q),
(589,144,o),
(589,192,q),
(589,401,l),
(549,412,o),
(503,412,q),
(365,412,o),
(365,233,q)
);
}
);
width = 990;
}
);
unicode = 64;
},
{
glyphname = T;
layers = (
{
layerId = "299db4c4-aa3b-4344-9706-c7608b9a95a1";
name = Fore;
shapes = (
{
closed = 1;
nodes = (
(220,630,l),
(7,630,l),
(7,720,l),
(555,720,l),
(541,630,l),
(334,630,l),
(334,0,l),
(220,0,l)
);
}
);
width = 554;
}
);
unicode = 84;
},
{
glyphname = H;
layers = (
{
layerId = "299db4c4-aa3b-4344-9706-c7608b9a95a1";
name = Fore;
shapes = (
{
closed = 1;
nodes = (
(108,720,l),
(222,720,l),
(222,420,l),
(524,420,l),
(524,720,l),
(638,720,l),
(638,0,l),
(524,0,l),
(524,324,l),
(222,324,l),
(222,0,l),
(108,0,l)
);
}
);
width = 746;
}
);
unicode = 72;
},
{
glyphname = F;
kernRight = F;
layers = (
{
layerId = "299db4c4-aa3b-4344-9706-c7608b9a95a1";
name = Fore;
shapes = (
{
closed = 1;
nodes = (
(108,720,l),
(515,720,l),
(515,624,l),
(222,624,l),
(222,391,l),
(475,391,l),
(461,301,l),
(222,301,l),
(222,0,l),
(108,0,l)
);
}
);
width = 565;
}
);
unicode = 70;
},
{
glyphname = L;
layers = (
{
layerId = "299db4c4-aa3b-4344-9706-c7608b9a95a1";
name = Fore;
shapes = (
{
closed = 1;
nodes = (
(108,720,l),
(222,720,l),
(222,96,l),
(495,96,l),
(481,0,l),
(108,0,l)
);
}
);
width = 525;
}
);
unicode = 76;
},
{
glyphname = J;
layers = (
{
layerId = "299db4c4-aa3b-4344-9706-c7608b9a95a1";
name = Fore;
shapes = (
{
closed = 1;
nodes = (
(-15,-126,o),
(30,-126,q),
(75,-126,o),
(97.5,-92,q),
(120,-58,o),
(120,-3,q),
(120,720,l),
(234,720,l),
(234,-3,l),
(234,-116,o),
(185,-169,q),
(136,-222,o),
(34,-222,q),
(1,-222,o),
(-29,-213,q),
(-59,-204,o),
(-73,-194.5,q),
(-87,-185,l),
(-49,-105,l)
);
}
);
width = 342;
}
);
unicode = 74;
},
{
glyphname = S;
layers = (
{
layerId = "299db4c4-aa3b-4344-9706-c7608b9a95a1";
name = Fore;
shapes = (
{
closed = 1;
nodes = (
(85,139,l),
(188,83,o),
(257,83,q),
(326,83,o),
(362,110,q),
(398,137,o),
(398,184,q),
(398,236,o),
(351.5,267,q),
(326,284,o),
(308.5,292,q),
(291,300,o),
(254.5,315.5,q),
(218,331,o),
(198,340.5,q),
(178,350,o),
(150.5,368.5,q),
(123,387,o),
(107.5,406,q),
(69,453.1935,o),
(69,520,q),
(69,613,o),
(133.5,671,q),
(198,729,o),
(296,729,q),
(356,729,o),
(412,709,q),
(468,689,o),
(498,669,q),
(458,582,l),
(360,633,o),
(305,633,q),
(250,633,o),
(217,606.5,q),
(184,580,o),
(184,537,q),
(184,489.4783,o),
(227,460.5,q),
(263.2817,436.0493,o),
(310.1408,416.0247,q),
(357,396,o),
(376.5,387,q),
(396,378,o),
(426,358,q),
(456,338,o),
(471.5,318,q),
(512,265.7419,o),
(512,196,q),
(512,95,o),
(440.5,41.5,q),
(369,-12,o),
(253,-12,q),
(137,-12,o),
(50,46,q)
);
}
);
width = 572;
}
);
unicode = 83;
},
{
glyphname = B;
layers = (
{
layerId = "299db4c4-aa3b-4344-9706-c7608b9a95a1";
name = Fore;
shapes = (
{
closed = 1;
nodes = (
(108,714,l),
(186,726,o),
(347,726,q),
(455,726,o),
(518.5,666.5,q),
(582,607,o),
(582,525,q),
(582,424,o),
(502,367,q),
(599,314,o),
(599,199,q),
(599,112,o),
(536.5,50,q),
(474,-12,o),
(348,-12,q),
(198,-12,o),
(108,0,q)
);
},
{
closed = 1;
nodes = (
(401,403,l),
(412,412,o),
(418.5,417,q),
(425,422,o),
(433,431.5,q),
(441,441,o),
(447,452,q),
(462,479.5,o),
(462,512,q),
(462,636,o),
(317,636,q),
(286,636,o),
(222,632,q),
(222,403,l)
);
},
{
closed = 1;
nodes = (
(304,78,o),
(334,78,q),
(414,78,o),
(446.5,110,q),
(479,142,o),
(479,201.5,q),
(479,261,o),
(445.5,291.5,q),
(412,322,o),
(331,322,q),
(222,322,l),
(222,84,l)
);
}
);
width = 653;
}
);
unicode = 66;
},
{
glyphname = P;
kernRight = F;
layers = (
{
layerId = "299db4c4-aa3b-4344-9706-c7608b9a95a1";
name = Fore;
shapes = (
{
closed = 1;
nodes = (
(108,714,l),
(186,726,o),
(347,726,q),
(455,726,o),
(513,664.5,q),
(571,603,o),
(571,498,q),
(571,393,o),
(501.5,324,q),
(432,255,o),
(312,255,q),
(288,255,o),
(222,257,q),
(222,0,l),
(108,0,l)
);
},
{
closed = 1;
nodes = (
(246,344,o),
(300,344,q),
(382,344,o),
(416.5,381,q),
(451,418,o),
(451,489,q),
(451,560,o),
(419,598,q),
(387,636,o),
(313,636,q),
(268,636,o),
(222,633,q),
(222,345,l)
);
}
);
width = 621;
}
);
unicode = 80;
},
{
glyphname = U;
layers = (
{
layerId = "299db4c4-aa3b-4344-9706-c7608b9a95a1";
name = Fore;
shapes = (
{
closed = 1;
nodes = (
(90,720,l),
(204,720,l),
(204,235,l),
(204,163,o),
(239.5,120.5,q),
(275,78,o),
(349,78,q),
(501,78,o),
(501,234,q),
(501,720,l),
(615,720,l),
(615,252,l),
(615,131,o),
(546,59.5,q),
(477,-12,o),
(347,-12,q),
(217,-12,o),
(153.5,49.5,q),
(90,111,o),
(90,217,q)
);
}
);
width = 705;
}
);
unicode = 85;
},
{
glyphname = A;
layers = (
{
layerId = "299db4c4-aa3b-4344-9706-c7608b9a95a1";
name = Fore;
shapes = (
{
closed = 1;
nodes = (
(262,705,l),
(270,726,o),
(297,726,q),
(308,726,o),
(404,720,q),
(643,0,l),
(526,0,l),
(461,210,l),
(208,210,l),
(144,0,l),
(25,0,l)
);
},
{
closed = 1;
nodes = (
(433,300,l),
(333,624,l),
(333,618,l),
(235,300,l)
);
}
);
width = 668;
}
);
unicode = 65;
},
{
glyphname = W;
kernLeft = V.2;
kernRight = V;
layers = (
{
layerId = "299db4c4-aa3b-4344-9706-c7608b9a95a1";
name = Fore;
shapes = (
{
closed = 1;
nodes = (
(30,713,l),
(149,727,l),
(275,82,l),
(385,542,l),
(390,564,o),
(416.5,564,q),
(443,564,o),
(476,559,q),
(509,554,o),
(518,550,q),
(633,86,l),
(757,727,l),
(876,713,l),
(715,7,l),
(704,2,o),
(660,-2.5,q),
(616,-7,o),
(581.5,-7,q),
(547,-7,o),
(540,25,q),
(453,422,l),
(361,7,l),
(350,2,o),
(305.5,-2.5,q),
(261,-7,o),
(226,-7,q),
(191,-7,o),
(185,25,q)
);
}
);
width = 906;
}
);
unicode = 87;
},
{
glyphname = O;
kernLeft = O.2;
kernRight = O;
layers = (
{
layerId = "299db4c4-aa3b-4344-9706-c7608b9a95a1";
name = Fore;
shapes = (
{
closed = 1;
nodes = (
(227,-12,o),
(143.5,80.5,q),
(60,173,o),
(60,350.5,q),
(60,528,o),
(145,630,q),
(230,732,o),
(400,732,q),
(528,732,o),
(611,640.5,q),
(694,549,o),
(694,371.5,q),
(694,194,o),
(609,91,q),
(524,-12,o),
(354,-12,q)
);
},
{
closed = 1;
nodes = (
(486,84,o),
(531.5,157.5,q),
(577,231,o),
(577,373,q),
(577,515,o),
(525.5,575.5,q),
(474,636,o),
(382,636,q),
(266.5641,636,o),
(222,557,q),
(181,484.3182,o),
(181,345.6591,q),
(181,207,o),
(232,145.5,q),
(283,84,o),
(373,84,q)
);
}
);
width = 754;
}
);
unicode = 79;
},
{
glyphname = R;
layers = (
{
layerId = "299db4c4-aa3b-4344-9706-c7608b9a95a1";
name = Fore;
shapes = (
{
closed = 1;
nodes = (
(108,714,l),
(186,726,o),
(347,726,q),
(455,726,o),
(513,664.5,q),
(571,603,o),
(571,507,q),
(571,441,o),
(539,390.5,q),
(507,340,o),
(447,314,q),
(514,158,l),
(532,117,o),
(559,94.5,q),
(586,72,o),
(617,72,q),
(601,-6,l),
(577,-6,l),
(531,-6,o),
(486.5,18.5,q),
(442,43,o),
(420,92,q),
(330,291,l),
(322,290,o),
(304,290,q),
(222,290,l),
(222,0,l),
(108,0,l)
);
},
{
closed = 1;
nodes = (
(390,378,l),
(404.5,383.4375,o),
(420.75,401.7188,q),
(451,435.75,o),
(451,500.375,q),
(451,636,o),
(323,636,q),
(279,636,o),
(222,631,q),
(222,378,l)
);
}
);
width = 662;
}
);
unicode = 82;
},
{
glyphname = C;
kernLeft = O.2;
layers = (
{
layerId = "299db4c4-aa3b-4344-9706-c7608b9a95a1";
name = Fore;
shapes = (
{
closed = 1;
nodes = (
(60,588.6429,o),
(206,682.5,q),
(283,732,o),
(395,732,q),
(506.3,732,o),
(603.5,696,q),
(617,691,o),
(618,691,q),
(589,603,l),
(588,603,o),
(575.5,606.5,q),
(563,610,o),
(550.5,613.5,q),
(538,617,o),
(518,621,q),
(498,625,o),
(479.5,628.5,q),
(439.8571,636,o),
(395,636,q),
(283,636,o),
(231.5,573,q),
(180,510,o),
(180,361,q),
(180,192.0333,o),
(239,135,q),
(269,106,o),
(305,95,q),
(341,84,o),
(392,84,q),
(485,84,o),
(589,121,q),
(618,30,l),
(592.5,22,l),
(484.125,-12,o),
(370,-12,q),
(221,-12,o),
(140.5,83,q),
(60,178,o),
(60,363,q)
);
}
);
width = 662;
}
);
unicode = 67;
},
{
glyphname = D;
kernRight = O;
layers = (
{
layerId = "299db4c4-aa3b-4344-9706-c7608b9a95a1";
name = Fore;
shapes = (
{
closed = 1;
nodes = (
(108,715,l),
(229,726,o),
(381,726,q),
(510,726,o),
(592.5,637,q),
(675,548,o),
(675,371.5,q),
(675,195,o),
(590,94.5,q),
(505,-6,o),
(330,-6,q),
(155,-6,o),
(108,0,q)
);
},
{
closed = 1;
nodes = (
(282,84,o),
(354,84,q),
(467,84,o),
(512.5,157.5,q),
(558,231,o),
(558,373,q),
(558,515,o),
(506.5,575.5,q),
(455,636,o),
(363,636,q),
(322,636,o),
(222,630,q),
(222,88,l)
);
}
);
width = 735;
}
);
unicode = 68;
},
{
glyphname = I;
layers = (
{
layerId = "299db4c4-aa3b-4344-9706-c7608b9a95a1";
name = Fore;
shapes = (
{
closed = 1;
nodes = (
(108,720,l),
(222,720,l),
(222,0,l),
(108,0,l)
);
}
);
width = 330;
}
);
unicode = 73;
},
{
glyphname = G;
kernLeft = O.2;
layers = (
{
layerId = "299db4c4-aa3b-4344-9706-c7608b9a95a1";
name = Fore;
shapes = (
{
closed = 1;
nodes = (
(60,588.6429,o),
(206,682.5,q),
(283,732,o),
(395,732,q),
(506.3,732,o),
(603.5,696,q),
(617,691,o),
(618,691,q),
(589,603,l),
(588,603,o),
(575.5,606.5,q),
(563,610,o),
(550.5,613.5,q),
(538,617,o),
(518,621,q),
(498,625,o),
(479.5,628.5,q),
(439.8571,636,o),
(395,636,q),
(283,636,o),
(231.5,573,q),
(180,510,o),
(180,361,q),
(180,192.0333,o),
(239,135,q),
(269,106,o),
(305,95,q),
(341,84,o),
(390,84,q),
(439,84,o),
(518,91,q),
(518,308,l),
(632,321,l),
(632,26,l),
(631,26,o),
(613,21.5,q),
(595,17,o),
(580,13.5,q),
(565,10,o),
(538.5,5,q),
(512,0,o),
(487.5,-3.5,q),
(428,-12,o),
(370,-12,q),
(221,-12,o),
(140.5,83,q),
(60,178,o),
(60,363,q)
);
}
);
width = 710;
}
);
unicode = 71;
},
{
glyphname = Q;
kernLeft = O.2;
kernRight = O;
layers = (
{
layerId = "299db4c4-aa3b-4344-9706-c7608b9a95a1";
name = Fore;
shapes = (
{
closed = 1;
nodes = (
(227,28,o),
(143.5,115.5,q),
(60,203,o),
(60,371,q),
(60,539,o),
(145,635.5,q),
(230,732,o),
(400,732,q),
(528,732,o),
(611,645.5,q),
(694,559,o),
(694,391,q),
(694,223,o),
(609,125.5,q),
(524,28,o),
(354,28,q)
);
},
{
closed = 1;
nodes = (
(486,124,o),
(531.5,192,q),
(577,260,o),
(577,392,q),
(577,524,o),
(525.5,580,q),
(474,636,o),
(382,636,q),
(270,636,o),
(225.5,568.5,q),
(181,501,o),
(181,369.5,q),
(181,238,o),
(232,181,q),
(283,124,o),
(373,124,q)
);
},
{
closed = 1;
nodes = (
(384.8919,-4,o),
(486,-47.5,q),
(529,-66,o),
(566,-84,q),
(654.3889,-127,o),
(728,-127,q),
(707,-222,l),
(600.5278,-222,o),
(520.5,-179,q),
(487,-161,o),
(451,-143,q),
(365,-100,o),
(229,-100,q),
(229,-4,l)
);
}
);
width = 743;
}
);
unicode = 81;
},
{
glyphname = X;
kernRight = K;
layers = (
{
layerId = "299db4c4-aa3b-4344-9706-c7608b9a95a1";
name = Fore;
shapes = (
{
closed = 1;
nodes = (
(268,372,l),
(47,714,l),
(169,726,l),
(350,438,l),
(523,726,l),
(643,714,l),
(418,358,l),
(650,0,l),
(520,0,l),
(337,291,l),
(162,0,l),
(33,0,l)
);
}
);
width = 683;
}
);
unicode = 88;
},
{
glyphname = Y;
kernLeft = V.2;
kernRight = V;
layers = (
{
layerId = "299db4c4-aa3b-4344-9706-c7608b9a95a1";
name = Fore;
shapes = (
{
closed = 1;
nodes = (
(272,287,l),
(34,713,l),
(153,725,l),
(329,389,l),
(506,725,l),
(625,713,l),
(386,286,l),
(386,0,l),
(272,0,l)
);
}
);
width = 659;
}
);
unicode = 89;
},
{
glyphname = seven;
layers = (
{
layerId = "299db4c4-aa3b-4344-9706-c7608b9a95a1";
name = Fore;
shapes = (
{
closed = 1;
nodes = (
(76,70,o),
(103,144,q),
(130,218,o),
(169,278,q),
(208,338,o),
(247,393,q),
(340,524.1539,o),
(340,584,q),
(45,584,l),
(45,678,l),
(455,678,l),
(455,624,l),
(455,519.9231,o),
(362,384,q),
(323,327,o),
(284,268,q),
(245,209,o),
(218,138.5,q),
(191,68,o),
(191,0,q),
(76,0,l)
);
}
);
width = 490;
}
);
unicode = 55;
},
{
glyphname = zero;
layers = (
{
layerId = "299db4c4-aa3b-4344-9706-c7608b9a95a1";
name = Fore;
shapes = (
{
closed = 1;
nodes = (
(177,-12,o),
(114,75.5,q),
(51,163,o),
(51,329,q),
(51,495,o),
(118,592.5,q),
(185,690,o),
(315,690,q),
(407,690,o),
(470,602.5,q),
(533,515,o),
(533,349,q),
(533,183,o),
(466,85.5,q),
(399,-12,o),
(269,-12,q)
);
},
{
closed = 1;
nodes = (
(425,72,o),
(425,354,q),
(425,487,o),
(389.5,546.5,q),
(354,606,o),
(297,606,q),
(159,606,o),
(159,324,q),
(159,191,o),
(194.5,131.5,q),
(230,72,o),
(287,72,q)
);
}
);
width = 584;
}
);
unicode = 48;
},
{
glyphname = one;
layers = (
{
layerId = "299db4c4-aa3b-4344-9706-c7608b9a95a1";
name = Fore;
shapes = (
{
closed = 1;
nodes = (
(61,64,l),
(166,84,l),
(166,589,l),
(68,527,l),
(25,604,l),
(123,666,l),
(150,684,o),
(170,684,q),
(274,673,l),
(274,84,l),
(380,84,l),
(366,0,l),
(61,0,l)
);
}
);
width = 398;
}
);
unicode = 49;
},
{
glyphname = five;
layers = (
{
layerId = "299db4c4-aa3b-4344-9706-c7608b9a95a1";
name = Fore;
shapes = (
{
closed = 1;
nodes = (
(70,114,l),
(90,105,o),
(135.5,94.5,q),
(181,84,o),
(220,84,q),
(359,84,o),
(359,213,q),
(359,282,o),
(326,313,q),
(293,344,o),
(233.5,344,q),
(174,344,o),
(134,330,q),
(76,390,l),
(116,678,l),
(445,678,l),
(445,594,l),
(215,594,l),
(194,424,l),
(232,428,o),
(254,428,q),
(354,428,o),
(413.5,371,q),
(473,314,o),
(473,210.5,q),
(473,107,o),
(407,53.5,q),
(341,0,o),
(228,0,q),
(179,0,o),
(123.5,12,q),
(68,24,o),
(45,36,q)
);
}
);
width = 518;
}
);
unicode = 53;
},
{
glyphname = Egrave;
layers = (
{
layerId = "299db4c4-aa3b-4344-9706-c7608b9a95a1";
name = Fore;
shapes = (
{
closed = 1;
nodes = (
(140,856,l),
(140,876,o),
(159.5,909,q),
(179,942,o),
(197,942,q),
(215,942,o),
(280.5,896.5,q),
(346,851,o),
(377,820,q),
(353,778,l)
);
},
{
closed = 1;
nodes = (
(108,720,l),
(525,720,l),
(525,627,l),
(222,627,l),
(222,409,l),
(485,409,l),
(485,322,l),
(222,322,l),
(222,93,l),
(545,93,l),
(531,0,l),
(108,0,l)
);
}
);
width = 599;
}
);
unicode = 200;
},
{
glyphname = Ntilde;
layers = (
{
layerId = "299db4c4-aa3b-4344-9706-c7608b9a95a1";
name = Fore;
shapes = (
{
closed = 1;
nodes = (
(201,830,l),
(212,861,o),
(243.5,885,q),
(275,909,o),
(311.5,909,q),
(348,909,o),
(389,886.5,q),
(430,864,o),
(450,864,q),
(470,864,o),
(487,873,q),
(504,882,o),
(511,892,q),
(551,866,l),
(540,835,o),
(508.5,811,q),
(477,787,o),
(440.5,787,q),
(404,787,o),
(363,809,q),
(322,831,o),
(302,831,q),
(282,831,o),
(265,822.5,q),
(248,814,o),
(241,804,q)
);
},
{
closed = 1;
nodes = (
(573,-9,l),
(552,-9,o),
(536,16,q),
(207,545,l),
(222,0,l),
(108,0,l),
(108,720,l),
(186,729,l),
(208,729,o),
(224,704,q),
(555,176,l),
(537,720,l),
(651,720,l),
(651,0,l)
);
}
);
width = 759;
}
);
unicode = 209;
},
{
glyphname = Ecircumflex;
layers = (
{
layerId = "299db4c4-aa3b-4344-9706-c7608b9a95a1";
name = Fore;
shapes = (
{
closed = 1;
nodes = (
(172,818,l),
(282,942,o),
(318,942,q),
(354,942,o),
(464,818,q),
(433,778,l),
(318,855,l),
(204,778,l)
);
},
{
closed = 1;
nodes = (
(108,720,l),
(525,720,l),
(525,627,l),
(222,627,l),
(222,409,l),
(485,409,l),
(485,322,l),
(222,322,l),
(222,93,l),
(545,93,l),
(531,0,l),
(108,0,l)
);
}
);
width = 599;
}
);
unicode = 202;
},
{
glyphname = Iacute;
layers = (
{
layerId = "299db4c4-aa3b-4344-9706-c7608b9a95a1";
name = Fore;
shapes = (
{
closed = 1;
nodes = (
(102,820,l),
(133,851,o),
(198.5,896.5,q),
(264,942,o),
(282,942,q),
(300,942,o),
(319.5,909,q),
(339,876,o),
(339,856,q),
(126,778,l)
);
},
{
closed = 1;
nodes = (
(108,720,l),
(222,720,l),
(222,0,l),
(108,0,l)
);
}
);
width = 330;
}
);
unicode = 205;
},
{
glyphname = Oacute;
kernLeft = O.2;
kernRight = O;
layers = (
{
layerId = "299db4c4-aa3b-4344-9706-c7608b9a95a1";
name = Fore;
shapes = (
{
closed = 1;
nodes = (
(316,820,l),
(347,851,o),
(412.5,896.5,q),
(478,942,o),
(496,942,q),
(514,942,o),
(533.5,909,q),
(553,876,o),
(553,856,q),
(340,778,l)
);
},
{
closed = 1;
nodes = (
(227,-12,o),
(143.5,80.5,q),
(60,173,o),
(60,350.5,q),
(60,528,o),
(145,630,q),
(230,732,o),
(400,732,q),
(528,732,o),
(611,640.5,q),
(694,549,o),
(694,371.5,q),
(694,194,o),
(609,91,q),
(524,-12,o),
(354,-12,q)
);
},
{
closed = 1;
nodes = (
(486,84,o),
(531.5,157.5,q),
(577,231,o),
(577,373,q),
(577,515,o),
(525.5,575.5,q),
(474,636,o),
(382,636,q),
(266.5641,636,o),
(222,557,q),
(181,484.3182,o),
(181,345.6591,q),
(181,207,o),
(232,145.5,q),
(283,84,o),
(373,84,q)
);
}
);
width = 754;
}
);
unicode = 211;
},
{
glyphname = Uacute;
layers = (
{
layerId = "299db4c4-aa3b-4344-9706-c7608b9a95a1";
name = Fore;
shapes = (
{
closed = 1;
nodes = (
(298,820,l),
(329,851,o),
(394.5,896.5,q),
(460,942,o),
(478,942,q),
(496,942,o),
(515.5,909,q),
(535,876,o),
(535,856,q),
(322,778,l)
);
},
{
closed = 1;
nodes = (
(90,720,l),
(204,720,l),
(204,235,l),
(204,163,o),
(239.5,120.5,q),
(275,78,o),
(349,78,q),
(501,78,o),
(501,234,q),
(501,720,l),
(615,720,l),
(615,252,l),
(615,131,o),
(546,59.5,q),
(477,-12,o),
(347,-12,q),
(217,-12,o),
(153.5,49.5,q),
(90,111,o),
(90,217,q)
);
}
);
width = 705;
}
);
unicode = 218;
},
{
glyphname = Icircumflex;
layers = (
{
layerId = "299db4c4-aa3b-4344-9706-c7608b9a95a1";
name = Fore;
shapes = (
{
closed = 1;
nodes = (
(22,818,l),
(132,942,o),
(168,942,q),
(204,942,o),
(314,818,q),
(283,778,l),
(168,855,l),
(54,778,l)
);
},
{
closed = 1;
nodes = (
(108,720,l),
(222,720,l),
(222,0,l),
(108,0,l)
);
}
);
width = 330;
}
);
unicode = 206;
},
{
glyphname = Eacute;
layers = (
{
layerId = "299db4c4-aa3b-4344-9706-c7608b9a95a1";
name = Fore;
shapes = (
{
closed = 1;
nodes = (
(266,820,l),
(297,851,o),
(362.5,896.5,q),
(428,942,o),
(446,942,q),
(464,942,o),
(483.5,909,q),
(503,876,o),
(503,856,q),
(290,778,l)
);
},
{
closed = 1;
nodes = (
(108,720,l),
(525,720,l),
(525,627,l),
(222,627,l),
(222,409,l),
(485,409,l),
(485,322,l),
(222,322,l),
(222,93,l),
(545,93,l),
(531,0,l),
(108,0,l)
);
}
);
width = 599;
}
);
unicode = 201;
},
{
glyphname = Agrave;
layers = (
{
layerId = "299db4c4-aa3b-4344-9706-c7608b9a95a1";
name = Fore;
shapes = (
{
closed = 1;
nodes = (
(195,856,l),
(195,876,o),
(214.5,909,q),
(234,942,o),
(252,942,q),
(270,942,o),
(335.5,896.5,q),
(401,851,o),
(432,820,q),
(408,778,l)
);
},
{
closed = 1;
nodes = (
(262,705,l),
(270,726,o),
(297,726,q),
(308,726,o),
(404,720,q),
(643,0,l),
(526,0,l),
(461,210,l),
(208,210,l),
(144,0,l),
(25,0,l)
);
},
{
closed = 1;
nodes = (
(433,300,l),
(333,624,l),
(333,618,l),
(235,300,l)
);
}
);
width = 668;
}
);
unicode = 192;
},
{
glyphname = Igrave;
layers = (
{
layerId = "299db4c4-aa3b-4344-9706-c7608b9a95a1";
name = Fore;
shapes = (
{
closed = 1;
nodes = (
(10,856,l),
(10,876,o),
(29.5,909,q),
(49,942,o),
(67,942,q),
(85,942,o),
(150.5,896.5,q),
(216,851,o),
(247,820,q),
(223,778,l)
);
},
{
closed = 1;
nodes = (
(108,720,l),
(222,720,l),
(222,0,l),
(108,0,l)
);
}
);
width = 330;
}
);
unicode = 204;
},
{
glyphname = Aacute;
layers = (
{
layerId = "299db4c4-aa3b-4344-9706-c7608b9a95a1";
name = Fore;
shapes = (
{
closed = 1;
nodes = (
(285,778,l),
(261,820,l),
(292,851,o),
(357.5,896.5,q),
(423,942,o),
(441,942,q),
(459,942,o),
(478.5,909,q),
(498,876,o),
(498,856,q)
);
},
{
closed = 1;
nodes = (
(262,705,l),
(270,726,o),
(297,726,q),
(308,726,o),
(404,720,q),
(643,0,l),
(526,0,l),
(461,210,l),
(208,210,l),
(144,0,l),
(25,0,l)
);
},
{
closed = 1;
nodes = (
(433,300,l),
(333,624,l),
(333,618,l),
(235,300,l)
);
}
);
width = 668;
}
);
unicode = 193;
},
{
glyphname = Acircumflex;
layers = (
{
layerId = "299db4c4-aa3b-4344-9706-c7608b9a95a1";
name = Fore;
shapes = (
{
closed = 1;
nodes = (
(220,778,l),
(188,818,l),
(298,942,o),
(334,942,q),
(370,942,o),
(480,818,q),
(449,778,l),
(334,855,l)
);
},
{
closed = 1;
nodes = (
(262,705,l),
(270,726,o),
(297,726,q),
(308,726,o),
(404,720,q),
(643,0,l),
(526,0,l),
(461,210,l),
(208,210,l),
(144,0,l),
(25,0,l)
);
},
{
closed = 1;
nodes = (
(433,300,l),
(333,624,l),
(333,618,l),
(235,300,l)
);
}
);
width = 668;
}
);
unicode = 194;
},
{
glyphname = Edieresis;
layers = (
{
layerId = "299db4c4-aa3b-4344-9706-c7608b9a95a1";
name = Fore;
shapes = (
{
closed = 1;
nodes = (
(434,916,o),
(450,900.5,q),
(466,885,o),
(466,854,q),
(466,789,o),
(399,789,q),
(376,789,o),
(361,804.5,q),
(346,820,o),
(346,850,q),
(346,916,o),
(410,916,q)
);
},
{
closed = 1;
nodes = (
(246,916,o),
(262,900.5,q),
(278,885,o),
(278,854,q),
(278,789,o),
(211,789,q),
(188,789,o),
(173,804.5,q),
(158,820,o),
(158,850,q),
(158,916,o),
(222,916,q)
);
},
{
closed = 1;
nodes = (
(108,720,l),
(525,720,l),
(525,627,l),
(222,627,l),
(222,409,l),
(485,409,l),
(485,322,l),
(222,322,l),
(222,93,l),
(545,93,l),
(531,0,l),
(108,0,l)
);
}
);
width = 599;
}
);
unicode = 203;
},
{
glyphname = Ocircumflex;
kernLeft = O.2;
kernRight = O;
layers = (
{
layerId = "299db4c4-aa3b-4344-9706-c7608b9a95a1";
name = Fore;
shapes = (
{
closed = 1;
nodes = (
(270,778,l),
(238,818,l),
(348,942,o),
(384,942,q),
(420,942,o),
(530,818,q),
(499,778,l),
(384,855,l)
);
},
{
closed = 1;
nodes = (
(227,-12,o),
(143.5,80.5,q),
(60,173,o),
(60,350.5,q),
(60,528,o),
(145,630,q),
(230,732,o),
(400,732,q),
(528,732,o),
(611,640.5,q),
(694,549,o),
(694,371.5,q),
(694,194,o),
(609,91,q),
(524,-12,o),
(354,-12,q)
);
},
{
closed = 1;
nodes = (
(486,84,o),
(531.5,157.5,q),
(577,231,o),
(577,373,q),
(577,515,o),
(525.5,575.5,q),
(474,636,o),
(382,636,q),
(266.5641,636,o),
(222,557,q),
(181,484.3182,o),
(181,345.6591,q),
(181,207,o),
(232,145.5,q),
(283,84,o),
(373,84,q)
);
}
);
width = 754;
}
);
unicode = 212;
},
{
glyphname = Odieresis;
kernLeft = O.2;
kernRight = O;
layers = (
{
layerId = "299db4c4-aa3b-4344-9706-c7608b9a95a1";
name = Fore;
shapes = (
{
closed = 1;
nodes = (
(504,916,o),
(520,900.5,q),
(536,885,o),
(536,854,q),
(536,789,o),
(469,789,q),
(446,789,o),
(431,804.5,q),
(416,820,o),
(416,850,q),
(416,916,o),
(480,916,q)
);
},
{
closed = 1;
nodes = (
(316,916,o),
(332,900.5,q),
(348,885,o),
(348,854,q),
(348,789,o),
(281,789,q),
(258,789,o),
(243,804.5,q),
(228,820,o),
(228,850,q),
(228,916,o),
(292,916,q)
);
},
{
closed = 1;
nodes = (
(227,-12,o),
(143.5,80.5,q),
(60,173,o),
(60,350.5,q),
(60,528,o),
(145,630,q),
(230,732,o),
(400,732,q),
(528,732,o),
(611,640.5,q),
(694,549,o),
(694,371.5,q),
(694,194,o),
(609,91,q),
(524,-12,o),
(354,-12,q)
);
},
{
closed = 1;
nodes = (
(486,84,o),
(531.5,157.5,q),
(577,231,o),
(577,373,q),
(577,515,o),
(525.5,575.5,q),
(474,636,o),
(382,636,q),
(266.5641,636,o),
(222,557,q),
(181,484.3182,o),
(181,345.6591,q),
(181,207,o),
(232,145.5,q),
(283,84,o),
(373,84,q)
);
}
);
width = 754;
}
);
unicode = 214;
},
{
glyphname = Ograve;
kernLeft = O.2;
kernRight = O;
layers = (
{
layerId = "299db4c4-aa3b-4344-9706-c7608b9a95a1";
name = Fore;
shapes = (
{
closed = 1;
nodes = (
(220,856,l),
(220,876,o),
(239.5,909,q),
(259,942,o),
(277,942,q),
(295,942,o),
(360.5,896.5,q),
(426,851,o),
(457,820,q),
(433,778,l)
);
},
{
closed = 1;
nodes = (
(227,-12,o),
(143.5,80.5,q),
(60,173,o),
(60,350.5,q),
(60,528,o),
(145,630,q),
(230,732,o),
(400,732,q),
(528,732,o),
(611,640.5,q),
(694,549,o),
(694,371.5,q),
(694,194,o),
(609,91,q),
(524,-12,o),
(354,-12,q)
);
},
{
closed = 1;
nodes = (
(486,84,o),
(531.5,157.5,q),
(577,231,o),
(577,373,q),
(577,515,o),
(525.5,575.5,q),
(474,636,o),
(382,636,q),
(266.5641,636,o),
(222,557,q),
(181,484.3182,o),
(181,345.6591,q),
(181,207,o),
(232,145.5,q),
(283,84,o),
(373,84,q)
);
}
);
width = 754;
}
);
unicode = 210;
},
{
glyphname = Otilde;
kernLeft = O.2;
kernRight = O;
layers = (
{
layerId = "299db4c4-aa3b-4344-9706-c7608b9a95a1";
name = Fore;
shapes = (
{
closed = 1;
nodes = (
(199,830,l),
(210,861,o),
(241.5,885,q),
(273,909,o),
(309.5,909,q),
(346,909,o),
(387,886.5,q),
(428,864,o),
(448,864,q),
(468,864,o),
(485,873,q),
(502,882,o),
(509,892,q),
(549,866,l),
(538,835,o),
(506.5,811,q),
(475,787,o),
(438.5,787,q),
(402,787,o),
(361,809,q),
(320,831,o),
(300,831,q),
(280,831,o),
(263,822.5,q),
(246,814,o),
(239,804,q)
);
},
{
closed = 1;
nodes = (
(227,-12,o),
(143.5,80.5,q),
(60,173,o),
(60,350.5,q),
(60,528,o),
(145,630,q),
(230,732,o),
(400,732,q),
(528,732,o),
(611,640.5,q),
(694,549,o),
(694,371.5,q),
(694,194,o),
(609,91,q),
(524,-12,o),
(354,-12,q)
);
},
{
closed = 1;
nodes = (
(486,84,o),
(531.5,157.5,q),
(577,231,o),
(577,373,q),
(577,515,o),
(525.5,575.5,q),
(474,636,o),
(382,636,q),
(266.5641,636,o),
(222,557,q),
(181,484.3182,o),
(181,345.6591,q),
(181,207,o),
(232,145.5,q),
(283,84,o),
(373,84,q)
);
}
);
width = 754;
}
);
unicode = 213;
},
{
glyphname = Ucircumflex;
layers = (
{
layerId = "299db4c4-aa3b-4344-9706-c7608b9a95a1";
name = Fore;
shapes = (
{
closed = 1;
nodes = (
(240,778,l),
(208,818,l),
(318,942,o),
(354,942,q),
(390,942,o),
(500,818,q),
(469,778,l),
(354,855,l)
);
},
{
closed = 1;
nodes = (
(90,720,l),
(204,720,l),
(204,235,l),
(204,163,o),
(239.5,120.5,q),
(275,78,o),
(349,78,q),
(501,78,o),
(501,234,q),
(501,720,l),
(615,720,l),
(615,252,l),
(615,131,o),
(546,59.5,q),
(477,-12,o),
(347,-12,q),
(217,-12,o),
(153.5,49.5,q),
(90,111,o),
(90,217,q)
);
}
);
width = 705;
}
);
unicode = 219;
},
{
glyphname = Udieresis;
layers = (
{
layerId = "299db4c4-aa3b-4344-9706-c7608b9a95a1";
name = Fore;
shapes = (
{
closed = 1;
nodes = (
(469,916,o),
(485,900.5,q),
(501,885,o),
(501,854,q),
(501,789,o),
(434,789,q),
(411,789,o),
(396,804.5,q),
(381,820,o),
(381,850,q),
(381,916,o),
(445,916,q)
);
},
{
closed = 1;
nodes = (
(281,916,o),
(297,900.5,q),
(313,885,o),
(313,854,q),
(313,789,o),
(246,789,q),
(223,789,o),
(208,804.5,q),
(193,820,o),
(193,850,q),
(193,916,o),
(257,916,q)
);
},
{
closed = 1;
nodes = (
(90,720,l),
(204,720,l),
(204,235,l),
(204,163,o),
(239.5,120.5,q),
(275,78,o),
(349,78,q),
(501,78,o),
(501,234,q),
(501,720,l),
(615,720,l),
(615,252,l),
(615,131,o),
(546,59.5,q),
(477,-12,o),
(347,-12,q),
(217,-12,o),
(153.5,49.5,q),
(90,111,o),
(90,217,q)
);
}
);
width = 705;
}
);
unicode = 220;
},
{
glyphname = Ugrave;
layers = (
{
layerId = "299db4c4-aa3b-4344-9706-c7608b9a95a1";
name = Fore;
shapes = (
{
closed = 1;
nodes = (
(216,856,l),
(216,876,o),
(235.5,909,q),
(255,942,o),
(273,942,q),
(291,942,o),
(356.5,896.5,q),
(422,851,o),
(453,820,q),
(429,778,l)
);
},
{
closed = 1;
nodes = (
(90,720,l),
(204,720,l),
(204,235,l),
(204,163,o),
(239.5,120.5,q),
(275,78,o),
(349,78,q),
(501,78,o),
(501,234,q),
(501,720,l),
(615,720,l),
(615,252,l),
(615,131,o),
(546,59.5,q),
(477,-12,o),
(347,-12,q),
(217,-12,o),
(153.5,49.5,q),
(90,111,o),
(90,217,q)
);
}
);
width = 705;
}
);
unicode = 217;
},
{
glyphname = Yacute;
layers = (
{
layerId = "299db4c4-aa3b-4344-9706-c7608b9a95a1";
name = Fore;
shapes = (
{
closed = 1;
nodes = (
(282,778,l),
(258,820,l),
(289,851,o),
(354.5,896.5,q),
(420,942,o),
(438,942,q),
(456,942,o),
(475.5,909,q),
(495,876,o),
(495,856,q)
);
},
{
closed = 1;
nodes = (
(272,287,l),
(34,713,l),
(153,725,l),
(329,389,l),
(506,725,l),
(625,713,l),
(386,286,l),
(386,0,l),
(272,0,l)
);
}
);
width = 659;
}
);
unicode = 221;
},
{
glyphname = Adieresis;
layers = (
{
layerId = "299db4c4-aa3b-4344-9706-c7608b9a95a1";
name = Fore;
shapes = (
{
closed = 1;
nodes = (
(464,916,o),
(480,900.5,q),
(496,885,o),
(496,854,q),
(496,789,o),
(429,789,q),
(406,789,o),
(391,804.5,q),
(376,820,o),
(376,850,q),
(376,916,o),
(440,916,q)
);
},
{
closed = 1;
nodes = (
(276,916,o),
(292,900.5,q),
(308,885,o),
(308,854,q),
(308,789,o),
(241,789,q),
(218,789,o),
(203,804.5,q),
(188,820,o),
(188,850,q),
(188,916,o),
(252,916,q)
);
},
{
closed = 1;
nodes = (
(262,705,l),
(270,726,o),
(297,726,q),
(308,726,o),
(404,720,q),
(643,0,l),
(526,0,l),
(461,210,l),
(208,210,l),
(144,0,l),
(25,0,l)
);
},
{
closed = 1;
nodes = (
(433,300,l),
(333,624,l),
(333,618,l),
(235,300,l)
);
}
);
width = 668;
}
);
unicode = 196;
},
{
glyphname = Atilde;
layers = (
{
layerId = "299db4c4-aa3b-4344-9706-c7608b9a95a1";
name = Fore;
shapes = (
{
closed = 1;
nodes = (
(166,830,l),
(177,861,o),
(208.5,885,q),
(240,909,o),
(276.5,909,q),
(313,909,o),
(354,886.5,q),
(395,864,o),
(415,864,q),
(435,864,o),
(452,873,q),
(469,882,o),
(476,892,q),
(516,866,l),
(505,835,o),
(473.5,811,q),
(442,787,o),
(405.5,787,q),
(369,787,o),
(328,809,q),
(287,831,o),
(266.5,831,q),
(246,831,o),
(229.5,822.5,q),
(213,814,o),
(206,804,q)
);
},
{
closed = 1;
nodes = (
(262,705,l),
(270,726,o),
(297,726,q),
(308,726,o),
(404,720,q),
(643,0,l),
(526,0,l),
(461,210,l),
(208,210,l),
(144,0,l),
(25,0,l)
);
},
{
closed = 1;
nodes = (
(433,300,l),
(333,624,l),
(333,618,l),
(235,300,l)
);
}
);
width = 668;
}
);
unicode = 195;
},
{
glyphname = Idieresis;
layers = (
{
layerId = "299db4c4-aa3b-4344-9706-c7608b9a95a1";
name = Fore;
shapes = (
{
closed = 1;
nodes = (
(289,916,o),
(305,900.5,q),
(321,885,o),
(321,854,q),
(321,789,o),
(254,789,q),
(231,789,o),
(216,804.5,q),
(201,820,o),
(201,850,q),
(201,916,o),
(265,916,q)
);
},
{
closed = 1;
nodes = (
(101,916,o),
(117,900.5,q),
(133,885,o),
(133,854,q),
(133,789,o),
(66,789,q),
(43,789,o),
(28,804.5,q),
(13,820,o),
(13,850,q),
(13,916,o),
(77,916,q)
);
},
{
closed = 1;
nodes = (
(108,720,l),
(222,720,l),
(222,0,l),
(108,0,l)
);
}
);
width = 330;
}
);
unicode = 207;
},
{
glyphname = c;
kernLeft = c;
layers = (
{
layerId = "299db4c4-aa3b-4344-9706-c7608b9a95a1";
name = Fore;
shapes = (
{
closed = 1;
nodes = (
(48,144,o),
(48,265.5,q),
(48,387,o),
(114,466.5,q),
(180,546,o),
(297,546,q),
(395,546,o),
(477,504,q),
(447,431,l),
(379,462,o),
(319,462,q),
(239,462,o),
(200.5,409,q),
(162,356,o),
(162,276,q),
(162,72,o),
(320,72,q),
(379,72,o),
(443,106,q),
(478,36,l),
(401,-12,o),
(286.5,-12,q),
(172,-12,o),
(110,66,q)
);
}
);
width = 503;
}
);
unicode = 99;
},
{
glyphname = h;
kernLeft = h;
layers = (
{
layerId = "299db4c4-aa3b-4344-9706-c7608b9a95a1";
name = Fore;
shapes = (
{
closed = 1;
nodes = (
(100,0,l),
(100,754,l),
(208,768,l),
(208,499,l),
(287,546,o),
(363,546,q),
(545,546,o),
(545,350,q),
(545,0,l),
(437,0,l),
(437,330,l),
(437,462,o),
(332,462,q),
(292,462,o),
(256,447,q),
(220,432,o),
(208,419,q),
(208,0,l)
);
}
);
width = 625;
}
);
unicode = 104;
},
{
glyphname = i;
kernLeft = j;
layers = (
{
layerId = "299db4c4-aa3b-4344-9706-c7608b9a95a1";
name = Fore;
shapes = (
{
closed = 1;
nodes = (
(182,760,o),
(199,744.5,q),
(216,729,o),
(216,698,q),
(216,633,o),
(148,633,q),
(124,633,o),
(108,648.5,q),
(92,664,o),
(92,694,q),
(92,760,o),
(157,760,q)
);
},
{
closed = 1;
nodes = (
(100,527,l),
(208,541,l),
(208,0,l),
(100,0,l)
);
}
);
width = 308;
}
);
unicode = 105;
},
{
glyphname = k.alt;
layers = (
{
layerId = "299db4c4-aa3b-4344-9706-c7608b9a95a1";
name = Fore;
shapes = (
{
closed = 1;
nodes = (
(100,0,l),
(100,754,l),
(208,768,l),
(208,413,l),
(226,462,o),
(281,504,q),
(336,546,o),
(403,546,q),
(459.4193,546,o),
(507,516.5,q),
(532,501,o),
(547.5,470.5,q),
(563,440,o),
(563,404,q),
(563,368,o),
(548.5,340,q),
(534,312,o),
(514,294,q),
(472.7023,256.8321,o),
(438.5,241.5,q),
(424,235,l),
(424,183,o),
(469.5,127.5,q),
(515,72,o),
(570,72,q),
(583,-2,l),
(557,-12,o),
(537,-12,q),
(439,-12,o),
(370.5,80.5,q),
(302,173,o),
(300,280,q),
(318.3529,283.0588,o),
(348.1765,294.5294,q),
(378,306,o),
(397.5,318,q),
(417,330,o),
(433,351.5,q),
(449,373,o),
(449,397,q),
(449,462,o),
(384,462,q),
(319,462,o),
(263.5,379.5,q),
(208,297,o),
(208,214,q),
(208,0,l)
);
}
);
width = 599;
}
);
},
{
glyphname = o;
kernLeft = c;
layers = (
{
layerId = "299db4c4-aa3b-4344-9706-c7608b9a95a1";
name = Fore;
shapes = (
{
closed = 1;
nodes = (
(408,546,o),
(472,477.5,q),
(536,409,o),
(536,276,q),
(536,143,o),
(470.5,65.5,q),
(405,-12,o),
(274,-12,q),
(176,-12,o),
(112,57.5,q),
(48,127,o),
(48,260,q),
(48,393,o),
(113.5,469.5,q),
(179,546,o),
(310,546,q)
);
},
{
closed = 1;
nodes = (
(229,72,o),
(296,72,q),
(363,72,o),
(392.5,124,q),
(422,176,o),
(422,276.5,q),
(422,377,o),
(388.5,419.5,q),
(355,462,o),
(296,462,q),
(221,462,o),
(191.5,411,q),
(162,360,o),
(162,259.5,q),
(162,159,o),
(195.5,115.5,q)
);
}
);
width = 584;
}
);
unicode = 111;
},
{
glyphname = p;
kernLeft = p;
layers = (
{
layerId = "299db4c4-aa3b-4344-9706-c7608b9a95a1";
name = Fore;
shapes = (
{
closed = 1;
nodes = (
(100,391,l),
(100,447,o),
(82,526,q),
(166,537,l),
(184,493,l),
(258,546,o),
(338,546,q),
(440,546,o),
(498,471.5,q),
(556,397,o),
(556,269.5,q),
(556,142,o),
(494,65,q),
(432,-12,o),
(324,-12,q),
(259,-12,o),
(208,15,q),
(208,-212,l),
(100,-212,l)
);
},
{
closed = 1;
nodes = (
(264,462,o),
(208,425,q),
(208,99,l),
(248,72,o),
(302,72,q),
(376,72,o),
(409,119,q),
(442,166,o),
(442,273,q),
(442,380,o),
(409,421,q),
(376,462,o),
(311,462,q)
);
}
);
width = 604;
}
);
unicode = 112;
},
{
glyphname = q;
kernLeft = c;
layers = (
{
layerId = "299db4c4-aa3b-4344-9706-c7608b9a95a1";
name = Fore;
shapes = (
{
closed = 1;
nodes = (
(504,-108,l),
(504,-131,o),
(515.5,-139.5,q),
(527,-148,o),
(551,-148,q),
(560,-213,l),
(525,-220,o),
(502.5,-220,q),
(480,-220,o),
(469.5,-218.5,q),
(459,-217,o),
(444.5,-209.5,q),
(430,-202,o),
(420,-189,q),
(396,-157.8,o),
(396,-91,q),
(396,51,l),
(377,27,o),
(340,7.5,q),
(303,-12,o),
(252,-12,q),
(166,-12,o),
(107,53,q),
(48,118,o),
(48,252.5,q),
(48,387,o),
(112,466.5,q),
(176,546,o),
(305,546,q),
(404,546,o),
(504,499,q)
);
},
{
closed = 1;
nodes = (
(222,72,o),
(278.5,72,q),
(335,72,o),
(365.5,112,q),
(396,152,o),
(396,207,q),
(396,449,l),
(360,462,o),
(312,462,q),
(231,462,o),
(196.5,414.5,q),
(162,367,o),
(162,262,q),
(162,157,o),
(192,114.5,q)
);
}
);
width = 604;
}
);
unicode = 113;
},
{
glyphname = l;
kernLeft = h;
layers = (
{
layerId = "299db4c4-aa3b-4344-9706-c7608b9a95a1";
name = Fore;
shapes = (
{
closed = 1;
nodes = (
(208,768,l),
(208,165,l),
(208,72,o),
(261,72,q),
(274,72,o),
(309,79,q),
(322,5,l),
(321,5,o),
(313.5,2,q),
(306,-1,o),
(296.5,-4,q),
(271.1667,-12,o),
(235,-12,q),
(166,-12,o),
(133,34.5,q),
(100,81,o),
(100,163,q),
(100,754,l)
);
}
);
width = 323;
}
);
unicode = 108;
},
{
glyphname = m;
kernLeft = p;
layers = (
{
layerId = "299db4c4-aa3b-4344-9706-c7608b9a95a1";
name = Fore;
shapes = (
{
closed = 1;
nodes = (
(100,454,o),
(82,526,q),
(166,537,l),
(185,487,l),
(270,546,o),
(359.5,546,q),
(449,546,o),
(491,488,q),
(572,546,o),
(664.5,546,q),
(757,546,o),
(798.5,497,q),
(840,448,o),
(840,350,q),
(840,0,l),
(732,0,l),
(732,330,l),
(732,426.5854,o),
(686.5,451,q),
(666,462,o),
(635,462,q),
(583,462,o),
(519,417,q),
(525,386,o),
(525,350,q),
(525,0,l),
(417,0,l),
(417,330,l),
(417,392,o),
(398,427,q),
(379,462,o),
(321,462,q),
(263,462,o),
(208,419,q),
(208,0,l),
(100,0,l),
(100,364,l)
);
}
);
width = 920;
}
);
unicode = 109;
},
{
glyphname = n;
kernLeft = p;
layers = (
{
layerId = "299db4c4-aa3b-4344-9706-c7608b9a95a1";
name = Fore;
shapes = (
{
closed = 1;
nodes = (
(100,454,o),
(82,526,q),
(166,537,l),
(185,487,l),
(269,546,o),
(357,546,q),
(539,546,o),
(539,350,q),
(539,0,l),
(431,0,l),
(431,330,l),
(431,462,o),
(326,462,q),
(265,462,o),
(208,419,q),
(208,0,l),
(100,0,l),
(100,364,l)
);
}
);
width = 619;
}
);
unicode = 110;
},
{
glyphname = K.alt;
layers = (
{
layerId = "299db4c4-aa3b-4344-9706-c7608b9a95a1";
name = Fore;
shapes = (
{
closed = 1;
nodes = (
(579,720,l),
(579,616,o),
(525.5,526,q),
(472,436,o),
(391,382,q),
(621,0,l),
(490,0,l),
(295,338,l),
(265,330,o),
(239,330,q),
(222,330,l),
(222,0,l),
(108,0,l),
(108,720,l),
(222,720,l),
(222,420,l),
(235,420,l),
(320,420,o),
(391,510.5,q),
(462,601,o),
(462,720,q)
);
}
);
width = 649;
}
);
},
{
glyphname = four;
layers = (
{
layerId = "299db4c4-aa3b-4344-9706-c7608b9a95a1";
name = Fore;
shapes = (
{
closed = 1;
nodes = (
(28,219,l),
(293,661,l),
(307,684,o),
(332,684,q),
(444,670,l),
(444,239,l),
(530,239,l),
(516,155,l),
(444,155,l),
(444,0,l),
(337,0,l),
(337,155,l),
(29,155,l)
);
},
{
closed = 1;
nodes = (
(154,239,l),
(340,239,l),
(340,572,l)
);
}
);
width = 565;
}
);
unicode = 52;
},
{
glyphname = commasuperior;
layers = (
{
layerId = "299db4c4-aa3b-4344-9706-c7608b9a95a1";
name = Fore;
shapes = (
{
closed = 1;
nodes = (
(113,646,o),
(113,632,q),
(113,618,o),
(99,604,q),
(85,590,o),
(60.5,590,q),
(36,590,o),
(23,607,q),
(10,624,o),
(10,657,q),
(10,690,o),
(37,727.5,q),
(64,765,o),
(110,787,q),
(134,758,l),
(94,714,o),
(94,683,q),
(94,675,o),
(103.5,660.5,q)
);
}
);
width = 144;
}
);
},
{
glyphname = AE;
layers = (
{
layerId = "299db4c4-aa3b-4344-9706-c7608b9a95a1";
name = Fore;
shapes = (
{
closed = 1;
nodes = (
(325,698,l),
(335,720,o),
(360,720,q),
(871,720,l),
(871,624,l),
(568,624,l),
(568,411,l),
(831,411,l),
(831,321,l),
(568,321,l),
(568,96,l),
(891,96,l),
(877,0,l),
(454,0,l),
(454,210,l),
(239,210,l),
(154,0,l),
(25,0,l)
);
},
{
closed = 1;
nodes = (
(275,300,l),
(454,300,l),
(454,624,l),
(406,624,l)
);
}
);
width = 945;
}
);
unicode = 198;
},
{
glyphname = question;
layers = (
{
layerId = "299db4c4-aa3b-4344-9706-c7608b9a95a1";
name = Fore;
shapes = (
{
closed = 1;
nodes = (
(144,224,l),
(144,286,o),
(163.5,330.5,q),
(183,375,o),
(211.5,398.5,q),
(240,422,o),
(268,441.5,q),
(335,488.1607,o),
(335,547,q),
(335,595,o),
(305.5,620.5,q),
(276,646,o),
(228,646,q),
(154,646,o),
(98,570,q),
(46,626,l),
(117,732,o),
(246,732,q),
(345,732,o),
(397,683,q),
(449,634,o),
(449,545,q),
(449,502,o),
(435,469,q),
(421,436,o),
(399.5,417.5,q),
(378,399,o),
(352.5,378.5,q),
(327,358,o),
(305.5,339,q),
(284,320,o),
(268.5,286,q),
(253,252,o),
(251,207,q)
);
},
{
closed = 1;
nodes = (
(176,-11,o),
(159,4.5,q),
(142,20,o),
(142,51,q),
(142,116,o),
(210,116,q),
(234,116,o),
(250,100.5,q),
(266,85,o),
(266,55,q),
(266,-11,o),
(201,-11,q)
);
}
);
width = 493;
}
);
unicode = 63;
},
{
glyphname = questiondown;
layers = (
{
layerId = "299db4c4-aa3b-4344-9706-c7608b9a95a1";
name = Fore;
shapes = (
{
closed = 1;
nodes = (
(317,641,o),
(334,625.5,q),
(351,610,o),
(351,579,q),
(351,514,o),
(283,514,q),
(259,514,o),
(243,529.5,q),
(227,545,o),
(227,575,q),
(227,641,o),
(292,641,q)
);
},
{
closed = 1;
nodes = (
(349,406,l),
(349,353,o),
(335,313,q),
(321,273,o),
(299.5,251,q),
(278,229,o),
(253.5,208.5,q),
(229,188,o),
(207.5,173.5,q),
(158,140.1163,o),
(158,87.5581,q),
(158,35,o),
(187.5,9.5,q),
(217,-16,o),
(265,-16,q),
(339,-16,o),
(395,60,q),
(447,4,l),
(376,-102,o),
(247,-102,q),
(148,-102,o),
(96,-53,q),
(44,-4,o),
(44,85,q),
(44,128,o),
(58,161,q),
(72,194,o),
(93.5,212.5,q),
(115,231,o),
(140.5,251.5,q),
(166,272,o),
(187.5,291,q),
(209,310,o),
(224.5,344,q),
(240,378,o),
(242,423,q)
);
}
);
width = 493;
}
);
unicode = 191;
},
{
glyphname = dollar;
layers = (
{
layerId = "299db4c4-aa3b-4344-9706-c7608b9a95a1";
name = Fore;
shapes = (
{
closed = 1;
nodes = (
(253,-12,l),
(131,-9,o),
(50,46,q),
(85,139,l),
(178,88,o),
(253,83,q),
(253,297,l),
(211,313,o),
(185,326,q),
(159,339,o),
(129,361.5,q),
(69,406.5,o),
(69,487.75,q),
(69,569,o),
(120.5,622,q),
(172,675,o),
(253,687,q),
(253,768,l),
(329,768,l),
(329,688,l),
(425,678,o),
(498,630,q),
(458,543,l),
(377,584,o),
(329,592,q),
(329,389,l),
(371,372,o),
(396.5,358,q),
(422,344,o),
(452.5,320,q),
(512,273.1803,o),
(512,189.5902,q),
(512,106,o),
(461.5,57,q),
(411,8,o),
(329,-6,q),
(329,-102,l),
(253,-102,l)
);
},
{
closed = 1;
nodes = (
(184,456,o),
(253,421,q),
(253,587,l),
(221,578,o),
(202.5,557.5,q),
(184,537,o),
(184,508,q)
);
},
{
closed = 1;
nodes = (
(398,114,o),
(398,172,q),
(398,230,o),
(329,264,q),
(329,91,l)
);
}
);
width = 572;
}
);
unicode = 36;
},
{
glyphname = Eth;
layers = (
{
layerId = "299db4c4-aa3b-4344-9706-c7608b9a95a1";
name = Fore;
shapes = (
{
closed = 1;
nodes = (
(24,406,l),
(108,406,l),
(108,715,l),
(229,726,o),
(381,726,q),
(510,726,o),
(592.5,637,q),
(675,548,o),
(675,371.5,q),
(675,195,o),
(590,94.5,q),
(505,-6,o),
(330,-6,q),
(155,-6,o),
(108,0,q),
(108,322,l),
(24,322,l)
);
},
{
closed = 1;
nodes = (
(322,636,o),
(222,630,q),
(222,406,l),
(361,406,l),
(347,322,l),
(222,322,l),
(222,88,l),
(282,84,o),
(354,84,q),
(467,84,o),
(512.5,157.5,q),
(558,231,o),
(558,373,q),
(558,515,o),
(506.5,575.5,q),
(455,636,o),
(363,636,q)
);
}
);
width = 735;
}
);
unicode = 208;
},
{
glyphname = Thorn;
layers = (
{
layerId = "299db4c4-aa3b-4344-9706-c7608b9a95a1";
name = Fore;
shapes = (
{
closed = 1;
nodes = (
(108,0,l),
(108,720,l),
(222,720,l),
(222,585,l),
(296,589,o),
(347,589,q),
(455,589,o),
(513,529.5,q),
(571,470,o),
(571,368,q),
(571,266,o),
(501.5,199,q),
(432,132,o),
(312,132,q),
(288,132,o),
(222,134,q),
(222,0,l)
);
},
{
closed = 1;
nodes = (
(267,491,o),
(222,488,q),
(222,229,l),
(245,228,o),
(300,228,q),
(382,228,o),
(416.5,261.5,q),
(451,295,o),
(451,359,q),
(451,423,o),
(419,457,q),
(387,491,o),
(313,491,q)
);
}
);
width = 621;
}
);
unicode = 222;
},
{
glyphname = period;
layers = (
{
layerId = "299db4c4-aa3b-4344-9706-c7608b9a95a1";
name = Fore;
shapes = (
{
closed = 1;
nodes = (
(50,78,o),
(67,96.5,q),
(84,115,o),
(112,115,q),
(140,115,o),
(157,96.5,q),
(174,78,o),
(174,52,q),
(174,26,o),
(157,7.5,q),
(140,-11,o),
(112,-11,q),
(84,-11,o),
(67,7.5,q),
(50,26,o),
(50,52,q)
);
}
);
width = 224;
}
);
unicode = 46;
},
{
glyphname = ellipsis;
layers = (
{
layerId = "299db4c4-aa3b-4344-9706-c7608b9a95a1";
name = Fore;
shapes = (
{
closed = 1;
nodes = (
(498,78,o),
(515,96.5,q),
(532,115,o),
(560,115,q),
(588,115,o),
(605,96.5,q),
(622,78,o),
(622,52,q),
(622,26,o),
(605,7.5,q),
(588,-11,o),
(560,-11,q),
(532,-11,o),
(515,7.5,q),
(498,26,o),
(498,52,q)
);
},
{
closed = 1;
nodes = (
(274,78,o),
(291,96.5,q),
(308,115,o),
(336,115,q),
(364,115,o),
(381,96.5,q),
(398,78,o),
(398,52,q),
(398,26,o),
(381,7.5,q),
(364,-11,o),
(336,-11,q),
(308,-11,o),
(291,7.5,q),
(274,26,o),
(274,52,q)
);
},
{
closed = 1;
nodes = (
(50,78,o),
(67,96.5,q),
(84,115,o),
(112,115,q),
(140,115,o),
(157,96.5,q),
(174,78,o),
(174,52,q),
(174,26,o),
(157,7.5,q),
(140,-11,o),
(112,-11,q),
(84,-11,o),
(67,7.5,q),
(50,26,o),
(50,52,q)
);
}
);
width = 672;
}
);
unicode = 8230;
},
{
glyphname = colon;
layers = (
{
layerId = "299db4c4-aa3b-4344-9706-c7608b9a95a1";
name = Fore;
shapes = (
{
closed = 1;
nodes = (
(50,418,o),
(67,436.5,q),
(84,455,o),
(112,455,q),
(140,455,o),
(157,436.5,q),
(174,418,o),
(174,392,q),
(174,366,o),
(157,347.5,q),
(140,329,o),
(112,329,q),
(84,329,o),
(67,347.5,q),
(50,366,o),
(50,392,q)
);
},
{
closed = 1;
nodes = (
(50,78,o),
(67,96.5,q),
(84,115,o),
(112,115,q),
(140,115,o),
(157,96.5,q),
(174,78,o),
(174,52,q),
(174,26,o),
(157,7.5,q),
(140,-11,o),
(112,-11,q),
(84,-11,o),
(67,7.5,q),
(50,26,o),
(50,52,q)
);
}
);
width = 224;
}
);
unicode = 58;
},
{
glyphname = germandbls;
layers = (
{
layerId = "299db4c4-aa3b-4344-9706-c7608b9a95a1";
name = Fore;
shapes = (
{
closed = 1;
nodes = (
(296,93,l),
(310,85,o),
(336,78.5,q),
(362,72,o),
(378,72,q),
(418,72,o),
(440.5,96.5,q),
(463,121,o),
(463,167,q),
(463,207.4,o),
(409.5,239.5,q),
(346.5,277.3,o),
(317.25,302.65,q),
(257,354.8667,o),
(257,429,q),
(257,451,l),
(330,451,o),
(362.5,474,q),
(395,497,o),
(395,559,q),
(395,621,o),
(376,644,q),
(357,667,o),
(308,667,q),
(259,667,o),
(233.5,639.5,q),
(208,612,o),
(208,543,q),
(208,0,l),
(100,0,l),
(100,543,l),
(100,660.5968,o),
(166,708.5,q),
(224.5556,751,o),
(312.2778,751,q),
(400,751,o),
(451.5,707.5,q),
(503,664,o),
(503,574,q),
(503,507,o),
(469.5,459,q),
(436,411,o),
(374,392,q),
(390,372,o),
(427,347.5,q),
(464,323,o),
(495.5,303.5,q),
(527,284,o),
(552,248.5,q),
(577,213,o),
(577,170,q),
(577,84,o),
(524,36,q),
(471,-12,o),
(378,-12,q),
(316,-12,o),
(260,24,q)
);
}
);
width = 622;
}
);
unicode = 223;
},
{
glyphname = ydieresis;
kernLeft = y;
layers = (
{
layerId = "299db4c4-aa3b-4344-9706-c7608b9a95a1";
name = Fore;
shapes = (
{
closed = 1;
nodes = (
(418,750,o),
(434,734.5,q),
(450,719,o),
(450,688,q),
(450,623,o),
(383,623,q),
(360,623,o),
(345,638.5,q),
(330,654,o),
(330,684,q),
(330,750,o),
(394,750,q)
);
},
{
closed = 1;
nodes = (
(230,750,o),
(246,734.5,q),
(262,719,o),
(262,688,q),
(262,623,o),
(195,623,q),
(172,623,o),
(157,638.5,q),
(142,654,o),
(142,684,q),
(142,750,o),
(206,750,q)
);
},
{
closed = 1;
nodes = (
(182,-133,o),
(254,-133,q),
(326,-133,o),
(365.5,-100,q),
(405,-67,o),
(405,30,q),
(342,-12,o),
(258,-12,q),
(174,-12,o),
(127,44.5,q),
(80,101,o),
(80,184,q),
(80,527,l),
(188,541,l),
(188,204,l),
(188,72,o),
(293,72,q),
(374,72,o),
(405,117,q),
(405,527,l),
(513,541,l),
(513,32,l),
(513,-90,o),
(449.5,-155,q),
(386,-220,o),
(269,-220,q),
(196.9091,-220,o),
(161.4545,-210,q),
(126,-200,o),
(109.5,-194.5,q),
(93,-189,o),
(91,-189,q),
(114,-108,l)
);
}
);
width = 613;
}
);
unicode = 255;
},
{
glyphname = grave;
layers = (
{
layerId = "299db4c4-aa3b-4344-9706-c7608b9a95a1";
name = Fore;
shapes = (
{
closed = 1;
nodes = (
(10,692,l),
(10,712,o),
(29.5,745,q),
(49,778,o),
(67,778,q),
(85,778,o),
(150.5,732.5,q),
(216,687,o),
(247,656,q),
(223,614,l)
);
}
);
width = 257;
}
);
unicode = 96;
},
{
glyphname = acute;
layers = (
{
layerId = "299db4c4-aa3b-4344-9706-c7608b9a95a1";
name = Fore;
shapes = (
{
closed = 1;
nodes = (
(34,614,l),
(10,656,l),
(41,687,o),
(106.5,732.5,q),
(172,778,o),
(190,778,q),
(208,778,o),
(227.5,745,q),
(247,712,o),
(247,692,q)
);
}
);
width = 257;
}
);
unicode = 180;
},
{
glyphname = circumflex;
layers = (
{
layerId = "299db4c4-aa3b-4344-9706-c7608b9a95a1";
name = Fore;
shapes = (
{
closed = 1;
nodes = (
(42,614,l),
(10,654,l),
(120,778,o),
(156,778,q),
(192,778,o),
(302,654,q),
(271,614,l),
(156,691,l)
);
}
);
width = 312;
}
);
unicode = 710;
},
{
glyphname = tilde;
layers = (
{
layerId = "299db4c4-aa3b-4344-9706-c7608b9a95a1";
name = Fore;
shapes = (
{
closed = 1;
nodes = (
(10,664,l),
(21,695,o),
(52.5,719,q),
(84,743,o),
(120.5,743,q),
(157,743,o),
(198,720.5,q),
(239,698,o),
(259,698,q),
(279,698,o),
(296,707,q),
(313,716,o),
(320,726,q),
(360,700,l),
(349,669,o),
(317.5,645,q),
(286,621,o),
(249.5,621,q),
(213,621,o),
(172,643,q),
(131,665,o),
(110.5,665,q),
(90,665,o),
(73.5,656.5,q),
(57,648,o),
(50,638,q)
);
}
);
width = 370;
}
);
unicode = 732;
},
{
glyphname = eacute;
kernLeft = c;
layers = (
{
layerId = "299db4c4-aa3b-4344-9706-c7608b9a95a1";
name = Fore;
shapes = (
{
closed = 1;
nodes = (
(212,614,l),
(188,656,l),
(219,687,o),
(284.5,732.5,q),
(350,778,o),
(368,778,q),
(386,778,o),
(405.5,745,q),
(425,712,o),
(425,692,q)
);
},
{
closed = 1;
nodes = (
(487,46,l),
(470,30,o),
(415,9,q),
(360,-12,o),
(297,-12,q),
(185,-12,o),
(116.5,56,q),
(48,124,o),
(48,260,q),
(48,335,o),
(72,392.5,q),
(96,450,o),
(134.5,482,q),
(211.5,546,o),
(297.25,546,q),
(383,546,o),
(433.5,502.5,q),
(484,459,o),
(484,396,q),
(484,313,o),
(405,260.5,q),
(326,208,o),
(152,208,q),
(152,162,o),
(190.5,117,q),
(229,72,o),
(304.5,72,q),
(380,72,o),
(450,114,q)
);
},
{
closed = 1;
nodes = (
(387,417,o),
(364.5,439.5,q),
(342,462,o),
(301,462,q),
(235,462,o),
(192.5,412.5,q),
(150,363,o),
(149,283,q),
(387,283,o),
(387,387,q)
);
}
);
width = 530;
}
);
unicode = 233;
},
{
glyphname = ecircumflex;
kernLeft = c;
layers = (
{
layerId = "299db4c4-aa3b-4344-9706-c7608b9a95a1";
name = Fore;
shapes = (
{
closed = 1;
nodes = (
(166,614,l),
(134,654,l),
(244,778,o),
(280,778,q),
(316,778,o),
(426,654,q),
(395,614,l),
(280,691,l)
);
},
{
closed = 1;
nodes = (
(487,46,l),
(470,30,o),
(415,9,q),
(360,-12,o),
(297,-12,q),
(185,-12,o),
(116.5,56,q),
(48,124,o),
(48,260,q),
(48,335,o),
(72,392.5,q),
(96,450,o),
(134.5,482,q),
(211.5,546,o),
(297.25,546,q),
(383,546,o),
(433.5,502.5,q),
(484,459,o),
(484,396,q),
(484,313,o),
(405,260.5,q),
(326,208,o),
(152,208,q),
(152,162,o),
(190.5,117,q),
(229,72,o),
(304.5,72,q),
(380,72,o),
(450,114,q)
);
},
{
closed = 1;
nodes = (
(387,417,o),
(364.5,439.5,q),
(342,462,o),
(301,462,q),
(235,462,o),
(192.5,412.5,q),
(150,363,o),
(149,283,q),
(387,283,o),
(387,387,q)
);
}
);
width = 530;
}
);
unicode = 234;
},
{
glyphname = edieresis;
kernLeft = c;
layers = (
{
layerId = "299db4c4-aa3b-4344-9706-c7608b9a95a1";
name = Fore;
shapes = (
{
closed = 1;
nodes = (
(392,750,o),
(408,734.5,q),
(424,719,o),
(424,688,q),
(424,623,o),
(357,623,q),
(334,623,o),
(319,638.5,q),
(304,654,o),
(304,684,q),
(304,750,o),
(368,750,q)
);
},
{
closed = 1;
nodes = (
(204,750,o),
(220,734.5,q),
(236,719,o),
(236,688,q),
(236,623,o),
(169,623,q),
(146,623,o),
(131,638.5,q),
(116,654,o),
(116,684,q),
(116,750,o),
(180,750,q)
);
},
{
closed = 1;
nodes = (
(487,46,l),
(470,30,o),
(415,9,q),
(360,-12,o),
(297,-12,q),
(185,-12,o),
(116.5,56,q),
(48,124,o),
(48,260,q),
(48,335,o),
(72,392.5,q),
(96,450,o),
(134.5,482,q),
(211.5,546,o),
(297.25,546,q),
(383,546,o),
(433.5,502.5,q),
(484,459,o),
(484,396,q),
(484,313,o),
(405,260.5,q),
(326,208,o),
(152,208,q),
(152,162,o),
(190.5,117,q),
(229,72,o),
(304.5,72,q),
(380,72,o),
(450,114,q)
);
},
{
closed = 1;
nodes = (
(387,417,o),
(364.5,439.5,q),
(342,462,o),
(301,462,q),
(235,462,o),
(192.5,412.5,q),
(150,363,o),
(149,283,q),
(387,283,o),
(387,387,q)
);
}
);
width = 530;
}
);
unicode = 235;
},
{
glyphname = egrave;
kernLeft = c;
layers = (
{
layerId = "299db4c4-aa3b-4344-9706-c7608b9a95a1";
name = Fore;
shapes = (
{
closed = 1;
nodes = (
(138,692,l),
(138,712,o),
(157.5,745,q),
(177,778,o),
(195,778,q),
(213,778,o),
(278.5,732.5,q),
(344,687,o),
(375,656,q),
(351,614,l)
);
},
{
closed = 1;
nodes = (
(487,46,l),
(470,30,o),
(415,9,q),
(360,-12,o),
(297,-12,q),
(185,-12,o),
(116.5,56,q),
(48,124,o),
(48,260,q),
(48,335,o),
(72,392.5,q),
(96,450,o),
(134.5,482,q),
(211.5,546,o),
(297.25,546,q),
(383,546,o),
(433.5,502.5,q),
(484,459,o),
(484,396,q),
(484,313,o),
(405,260.5,q),
(326,208,o),
(152,208,q),
(152,162,o),
(190.5,117,q),
(229,72,o),
(304.5,72,q),
(380,72,o),
(450,114,q)
);
},
{
closed = 1;
nodes = (
(387,417,o),
(364.5,439.5,q),
(342,462,o),
(301,462,q),
(235,462,o),
(192.5,412.5,q),
(150,363,o),
(149,283,q),
(387,283,o),
(387,387,q)
);
}
);
width = 530;
}
);
unicode = 232;
},
{
glyphname = ntilde;
layers = (
{
layerId = "299db4c4-aa3b-4344-9706-c7608b9a95a1";
name = Fore;
shapes = (
{
closed = 1;
nodes = (
(147,664,l),
(158,695,o),
(189.5,719,q),
(221,743,o),
(257.5,743,q),
(294,743,o),
(335,720.5,q),
(376,698,o),
(396,698,q),
(416,698,o),
(433,707,q),
(450,716,o),
(457,726,q),
(497,700,l),
(486,669,o),
(454.5,645,q),
(423,621,o),
(386.5,621,q),
(350,621,o),
(309,643,q),
(268,665,o),
(248,665,q),
(228,665,o),
(211,656.5,q),
(194,648,o),
(187,638,q)
);
},
{
closed = 1;
nodes = (
(100,454,o),
(82,526,q),
(166,537,l),
(185,487,l),
(269,546,o),
(357,546,q),
(539,546,o),
(539,350,q),
(539,0,l),
(431,0,l),
(431,330,l),
(431,462,o),
(326,462,q),
(265,462,o),
(208,419,q),
(208,0,l),
(100,0,l),
(100,364,l)
);
}
);
width = 619;
}
);
unicode = 241;
},
{
glyphname = oacute;
kernLeft = c;
layers = (
{
layerId = "299db4c4-aa3b-4344-9706-c7608b9a95a1";
name = Fore;
shapes = (
{
closed = 1;
nodes = (
(239,614,l),
(215,656,l),
(246,687,o),
(311.5,732.5,q),
(377,778,o),
(395,778,q),
(413,778,o),
(432.5,745,q),
(452,712,o),
(452,692,q)
);
},
{
closed = 1;
nodes = (
(408,546,o),
(472,477.5,q),
(536,409,o),
(536,276,q),
(536,143,o),
(470.5,65.5,q),
(405,-12,o),
(274,-12,q),
(176,-12,o),
(112,57.5,q),
(48,127,o),
(48,260,q),
(48,393,o),
(113.5,469.5,q),
(179,546,o),
(310,546,q)
);
},
{
closed = 1;
nodes = (
(229,72,o),
(296,72,q),
(363,72,o),
(392.5,124,q),
(422,176,o),
(422,276.5,q),
(422,377,o),
(388.5,419.5,q),
(355,462,o),
(296,462,q),
(221,462,o),
(191.5,411,q),
(162,360,o),
(162,259.5,q),
(162,159,o),
(195.5,115.5,q)
);
}
);
width = 584;
}
);
unicode = 243;
},
{
glyphname = ocircumflex;
kernLeft = c;
layers = (
{
layerId = "299db4c4-aa3b-4344-9706-c7608b9a95a1";
name = Fore;
shapes = (
{
closed = 1;
nodes = (
(178,614,l),
(146,654,l),
(256,778,o),
(292,778,q),
(328,778,o),
(438,654,q),
(407,614,l),
(292,691,l)
);
},
{
closed = 1;
nodes = (
(408,546,o),
(472,477.5,q),
(536,409,o),
(536,276,q),
(536,143,o),
(470.5,65.5,q),
(405,-12,o),
(274,-12,q),
(176,-12,o),
(112,57.5,q),
(48,127,o),
(48,260,q),
(48,393,o),
(113.5,469.5,q),
(179,546,o),
(310,546,q)
);
},
{
closed = 1;
nodes = (
(229,72,o),
(296,72,q),
(363,72,o),
(392.5,124,q),
(422,176,o),
(422,276.5,q),
(422,377,o),
(388.5,419.5,q),
(355,462,o),
(296,462,q),
(221,462,o),
(191.5,411,q),
(162,360,o),
(162,259.5,q),
(162,159,o),
(195.5,115.5,q)
);
}
);
width = 584;
}
);
unicode = 244;
},
{
glyphname = odieresis;
kernLeft = c;
layers = (
{
layerId = "299db4c4-aa3b-4344-9706-c7608b9a95a1";
name = Fore;
shapes = (
{
closed = 1;
nodes = (
(414,750,o),
(430,734.5,q),
(446,719,o),
(446,688,q),
(446,623,o),
(379,623,q),
(356,623,o),
(341,638.5,q),
(326,654,o),
(326,684,q),
(326,750,o),
(390,750,q)
);
},
{
closed = 1;
nodes = (
(226,750,o),
(242,734.5,q),
(258,719,o),
(258,688,q),
(258,623,o),
(191,623,q),
(168,623,o),
(153,638.5,q),
(138,654,o),
(138,684,q),
(138,750,o),
(202,750,q)
);
},
{
closed = 1;
nodes = (
(408,546,o),
(472,477.5,q),
(536,409,o),
(536,276,q),
(536,143,o),
(470.5,65.5,q),
(405,-12,o),
(274,-12,q),
(176,-12,o),
(112,57.5,q),
(48,127,o),
(48,260,q),
(48,393,o),
(113.5,469.5,q),
(179,546,o),
(310,546,q)
);
},
{
closed = 1;
nodes = (
(229,72,o),
(296,72,q),
(363,72,o),
(392.5,124,q),
(422,176,o),
(422,276.5,q),
(422,377,o),
(388.5,419.5,q),
(355,462,o),
(296,462,q),
(221,462,o),
(191.5,411,q),
(162,360,o),
(162,259.5,q),
(162,159,o),
(195.5,115.5,q)
);
}
);
width = 584;
}
);
unicode = 246;
},
{
glyphname = ograve;
kernLeft = c;
layers = (
{
layerId = "299db4c4-aa3b-4344-9706-c7608b9a95a1";
name = Fore;
shapes = (
{
closed = 1;
nodes = (
(128,692,l),
(128,712,o),
(147.5,745,q),
(167,778,o),
(185,778,q),
(203,778,o),
(268.5,732.5,q),
(334,687,o),
(365,656,q),
(341,614,l)
);
},
{
closed = 1;
nodes = (
(408,546,o),
(472,477.5,q),
(536,409,o),
(536,276,q),
(536,143,o),
(470.5,65.5,q),
(405,-12,o),
(274,-12,q),
(176,-12,o),
(112,57.5,q),
(48,127,o),
(48,260,q),
(48,393,o),
(113.5,469.5,q),
(179,546,o),
(310,546,q)
);
},
{
closed = 1;
nodes = (
(229,72,o),
(296,72,q),
(363,72,o),
(392.5,124,q),
(422,176,o),
(422,276.5,q),
(422,377,o),
(388.5,419.5,q),
(355,462,o),
(296,462,q),
(221,462,o),
(191.5,411,q),
(162,360,o),
(162,259.5,q),
(162,159,o),
(195.5,115.5,q)
);
}
);
width = 584;
}
);
unicode = 242;
},
{
glyphname = otilde;
kernLeft = c;
layers = (
{
layerId = "299db4c4-aa3b-4344-9706-c7608b9a95a1";
name = Fore;
shapes = (
{
closed = 1;
nodes = (
(118,664,l),
(129,695,o),
(160.5,719,q),
(192,743,o),
(228.5,743,q),
(265,743,o),
(306,720.5,q),
(347,698,o),
(367,698,q),
(387,698,o),
(404,707,q),
(421,716,o),
(428,726,q),
(468,700,l),
(457,669,o),
(425.5,645,q),
(394,621,o),
(357.5,621,q),
(321,621,o),
(280,643,q),
(239,665,o),
(218.5,665,q),
(198,665,o),
(181.5,656.5,q),
(165,648,o),
(158,638,q)
);
},
{
closed = 1;
nodes = (
(408,546,o),
(472,477.5,q),
(536,409,o),
(536,276,q),
(536,143,o),
(470.5,65.5,q),
(405,-12,o),
(274,-12,q),
(176,-12,o),
(112,57.5,q),
(48,127,o),
(48,260,q),
(48,393,o),
(113.5,469.5,q),
(179,546,o),
(310,546,q)
);
},
{
closed = 1;
nodes = (
(229,72,o),
(296,72,q),
(363,72,o),
(392.5,124,q),
(422,176,o),
(422,276.5,q),
(422,377,o),
(388.5,419.5,q),
(355,462,o),
(296,462,q),
(221,462,o),
(191.5,411,q),
(162,360,o),
(162,259.5,q),
(162,159,o),
(195.5,115.5,q)
);
}
);
width = 584;
}
);
unicode = 245;
},
{
glyphname = uacute;
kernLeft = y;
layers = (
{
layerId = "299db4c4-aa3b-4344-9706-c7608b9a95a1";
name = Fore;
shapes = (
{
closed = 1;
nodes = (
(252,614,l),
(228,656,l),
(259,687,o),
(324.5,732.5,q),
(390,778,o),
(408,778,q),
(426,778,o),
(445.5,745,q),
(465,712,o),
(465,692,q)
);
},
{
closed = 1;
nodes = (
(513,125,l),
(513,89,o),
(521.5,79,q),
(530,69,o),
(560,69,q),
(564,6,l),
(539,-3,o),
(511,-3,q),
(450,-3,o),
(425,45,q),
(360,-12,o),
(262,-12,q),
(80,-12,o),
(80,184,q),
(80,527,l),
(188,541,l),
(188,204,l),
(188,72,o),
(293,72,q),
(365,72,o),
(405,114,q),
(405,527,l),
(513,541,l)
);
}
);
width = 618;
}
);
unicode = 250;
},
{
glyphname = ucircumflex;
kernLeft = y;
layers = (
{
layerId = "299db4c4-aa3b-4344-9706-c7608b9a95a1";
name = Fore;
shapes = (
{
closed = 1;
nodes = (
(191,614,l),
(159,654,l),
(269,778,o),
(305,778,q),
(341,778,o),
(451,654,q),
(420,614,l),
(305,691,l)
);
},
{
closed = 1;
nodes = (
(513,125,l),
(513,89,o),
(521.5,79,q),
(530,69,o),
(560,69,q),
(564,6,l),
(539,-3,o),
(511,-3,q),
(450,-3,o),
(425,45,q),
(360,-12,o),
(262,-12,q),
(80,-12,o),
(80,184,q),
(80,527,l),
(188,541,l),
(188,204,l),
(188,72,o),
(293,72,q),
(365,72,o),
(405,114,q),
(405,527,l),
(513,541,l)
);
}
);
width = 618;
}
);
unicode = 251;
},
{
glyphname = udieresis;
kernLeft = y;
layers = (
{
layerId = "299db4c4-aa3b-4344-9706-c7608b9a95a1";
name = Fore;
shapes = (
{
closed = 1;
nodes = (
(427,750,o),
(443,734.5,q),
(459,719,o),
(459,688,q),
(459,623,o),
(392,623,q),
(369,623,o),
(354,638.5,q),
(339,654,o),
(339,684,q),
(339,750,o),
(403,750,q)
);
},
{
closed = 1;
nodes = (
(239,750,o),
(255,734.5,q),
(271,719,o),
(271,688,q),
(271,623,o),
(204,623,q),
(181,623,o),
(166,638.5,q),
(151,654,o),
(151,684,q),
(151,750,o),
(215,750,q)
);
},
{
closed = 1;
nodes = (
(513,125,l),
(513,89,o),
(521.5,79,q),
(530,69,o),
(560,69,q),
(564,6,l),
(539,-3,o),
(511,-3,q),
(450,-3,o),
(425,45,q),
(360,-12,o),
(262,-12,q),
(80,-12,o),
(80,184,q),
(80,527,l),
(188,541,l),
(188,204,l),
(188,72,o),
(293,72,q),
(365,72,o),
(405,114,q),
(405,527,l),
(513,541,l)
);
}
);
width = 618;
}
);
unicode = 252;
},
{
glyphname = ugrave;
kernLeft = y;
layers = (
{
layerId = "299db4c4-aa3b-4344-9706-c7608b9a95a1";
name = Fore;
shapes = (
{
closed = 1;
nodes = (
(141,692,l),
(141,712,o),
(160.5,745,q),
(180,778,o),
(198,778,q),
(216,778,o),
(281.5,732.5,q),
(347,687,o),
(378,656,q),
(354,614,l)
);
},
{
closed = 1;
nodes = (
(513,125,l),
(513,89,o),
(521.5,79,q),
(530,69,o),
(560,69,q),
(564,6,l),
(539,-3,o),
(511,-3,q),
(450,-3,o),
(425,45,q),
(360,-12,o),
(262,-12,q),
(80,-12,o),
(80,184,q),
(80,527,l),
(188,541,l),
(188,204,l),
(188,72,o),
(293,72,q),
(365,72,o),
(405,114,q),
(405,527,l),
(513,541,l)
);
}
);
width = 618;
}
);
unicode = 249;
},
{
glyphname = aacute;
kernLeft = c;
layers = (
{
layerId = "299db4c4-aa3b-4344-9706-c7608b9a95a1";
name = Fore;
shapes = (
{
closed = 1;
nodes = (
(245,614,l),
(221,656,l),
(252,687,o),
(317.5,732.5,q),
(383,778,o),
(401,778,q),
(419,778,o),
(438.5,745,q),
(458,712,o),
(458,692,q)
);
},
{
closed = 1;
nodes = (
(504,127,l),
(504,92,o),
(512,80.5,q),
(520,69,o),
(551,69,q),
(555,6,l),
(530,-3,o),
(502,-3,q),
(424,-3,o),
(409,68,q),
(356,-12,o),
(252.5,-12,q),
(149,-12,o),
(98.5,65,q),
(48,142,o),
(48,263.5,q),
(48,385,o),
(117,465.5,q),
(186,546,o),
(302,546,q),
(349,546,o),
(411.5,531.5,q),
(474,517,o),
(504,501,q)
);
},
{
closed = 1;
nodes = (
(221,72,o),
(277,72,q),
(333,72,o),
(364.5,111.5,q),
(396,151,o),
(396,209,q),
(396,449,l),
(357,462,o),
(307,462,q),
(231,462,o),
(196.5,407,q),
(162,352,o),
(162,255,q),
(162,158,o),
(191.5,115,q)
);
}
);
width = 609;
}
);
unicode = 225;
},
{
glyphname = acircumflex;
kernLeft = c;
layers = (
{
layerId = "299db4c4-aa3b-4344-9706-c7608b9a95a1";
name = Fore;
shapes = (
{
closed = 1;
nodes = (
(184,614,l),
(152,654,l),
(262,778,o),
(298,778,q),
(334,778,o),
(444,654,q),
(413,614,l),
(298,691,l)
);
},
{
closed = 1;
nodes = (
(504,127,l),
(504,92,o),
(512,80.5,q),
(520,69,o),
(551,69,q),
(555,6,l),
(530,-3,o),
(502,-3,q),
(424,-3,o),
(409,68,q),
(356,-12,o),
(252.5,-12,q),
(149,-12,o),
(98.5,65,q),
(48,142,o),
(48,263.5,q),
(48,385,o),
(117,465.5,q),
(186,546,o),
(302,546,q),
(349,546,o),
(411.5,531.5,q),
(474,517,o),
(504,501,q)
);
},
{
closed = 1;
nodes = (
(221,72,o),
(277,72,q),
(333,72,o),
(364.5,111.5,q),
(396,151,o),
(396,209,q),
(396,449,l),
(357,462,o),
(307,462,q),
(231,462,o),
(196.5,407,q),
(162,352,o),
(162,255,q),
(162,158,o),
(191.5,115,q)
);
}
);
width = 609;
}
);
unicode = 226;
},
{
glyphname = adieresis;
kernLeft = c;
layers = (
{
layerId = "299db4c4-aa3b-4344-9706-c7608b9a95a1";
name = Fore;
shapes = (
{
closed = 1;
nodes = (
(420,750,o),
(436,734.5,q),
(452,719,o),
(452,688,q),
(452,623,o),
(385,623,q),
(362,623,o),
(347,638.5,q),
(332,654,o),
(332,684,q),
(332,750,o),
(396,750,q)
);
},
{
closed = 1;
nodes = (
(232,750,o),
(248,734.5,q),
(264,719,o),
(264,688,q),
(264,623,o),
(197,623,q),
(174,623,o),
(159,638.5,q),
(144,654,o),
(144,684,q),
(144,750,o),
(208,750,q)
);
},
{
closed = 1;
nodes = (
(504,127,l),
(504,92,o),
(512,80.5,q),
(520,69,o),
(551,69,q),
(555,6,l),
(530,-3,o),
(502,-3,q),
(424,-3,o),
(409,68,q),
(356,-12,o),
(252.5,-12,q),
(149,-12,o),
(98.5,65,q),
(48,142,o),
(48,263.5,q),
(48,385,o),
(117,465.5,q),
(186,546,o),
(302,546,q),
(349,546,o),
(411.5,531.5,q),
(474,517,o),
(504,501,q)
);
},
{
closed = 1;
nodes = (
(221,72,o),
(277,72,q),
(333,72,o),
(364.5,111.5,q),
(396,151,o),
(396,209,q),
(396,449,l),
(357,462,o),
(307,462,q),
(231,462,o),
(196.5,407,q),
(162,352,o),
(162,255,q),
(162,158,o),
(191.5,115,q)
);
}
);
width = 609;
}
);
unicode = 228;
},
{
glyphname = agrave;
kernLeft = c;
layers = (
{
layerId = "299db4c4-aa3b-4344-9706-c7608b9a95a1";
name = Fore;
shapes = (
{
closed = 1;
nodes = (
(168,692,l),
(168,712,o),
(187.5,745,q),
(207,778,o),
(225,778,q),
(243,778,o),
(308.5,732.5,q),
(374,687,o),
(405,656,q),
(381,614,l)
);
},
{
closed = 1;
nodes = (
(504,127,l),
(504,92,o),
(512,80.5,q),
(520,69,o),
(551,69,q),
(555,6,l),
(530,-3,o),
(502,-3,q),
(424,-3,o),
(409,68,q),
(356,-12,o),
(252.5,-12,q),
(149,-12,o),
(98.5,65,q),
(48,142,o),
(48,263.5,q),
(48,385,o),
(117,465.5,q),
(186,546,o),
(302,546,q),
(349,546,o),
(411.5,531.5,q),
(474,517,o),
(504,501,q)
);
},
{
closed = 1;
nodes = (
(221,72,o),
(277,72,q),
(333,72,o),
(364.5,111.5,q),
(396,151,o),
(396,209,q),
(396,449,l),
(357,462,o),
(307,462,q),
(231,462,o),
(196.5,407,q),
(162,352,o),
(162,255,q),
(162,158,o),
(191.5,115,q)
);
}
);
width = 609;
}
);
unicode = 224;
},
{
glyphname = atilde;
kernLeft = c;
layers = (
{
layerId = "299db4c4-aa3b-4344-9706-c7608b9a95a1";
name = Fore;
shapes = (
{
closed = 1;
nodes = (
(133,664,l),
(144,695,o),
(175.5,719,q),
(207,743,o),
(243.5,743,q),
(280,743,o),
(321,720.5,q),
(362,698,o),
(382,698,q),
(402,698,o),
(419,707,q),
(436,716,o),
(443,726,q),
(483,700,l),
(472,669,o),
(440.5,645,q),
(409,621,o),
(372.5,621,q),
(336,621,o),
(295,643,q),
(254,665,o),
(234,665,q),
(214,665,o),
(197,656.5,q),
(180,648,o),
(173,638,q)
);
},
{
closed = 1;
nodes = (
(504,127,l),
(504,92,o),
(512,80.5,q),
(520,69,o),
(551,69,q),
(555,6,l),
(530,-3,o),
(502,-3,q),
(424,-3,o),
(409,68,q),
(356,-12,o),
(252.5,-12,q),
(149,-12,o),
(98.5,65,q),
(48,142,o),
(48,263.5,q),
(48,385,o),
(117,465.5,q),
(186,546,o),
(302,546,q),
(349,546,o),
(411.5,531.5,q),
(474,517,o),
(504,501,q)
);
},
{
closed = 1;
nodes = (
(221,72,o),
(277,72,q),
(333,72,o),
(364.5,111.5,q),
(396,151,o),
(396,209,q),
(396,449,l),
(357,462,o),
(307,462,q),
(231,462,o),
(196.5,407,q),
(162,352,o),
(162,255,q),
(162,158,o),
(191.5,115,q)
);
}
);
width = 609;
}
);
unicode = 227;
},
{
glyphname = dieresis;
layers = (
{
layerId = "299db4c4-aa3b-4344-9706-c7608b9a95a1";
name = Fore;
shapes = (
{
closed = 1;
nodes = (
(286,750,o),
(302,734.5,q),
(318,719,o),
(318,688,q),
(318,623,o),
(251,623,q),
(228,623,o),
(213,638.5,q),
(198,654,o),
(198,684,q),
(198,750,o),
(262,750,q)
);
},
{
closed = 1;
nodes = (
(98,750,o),
(114,734.5,q),
(130,719,o),
(130,688,q),
(130,623,o),
(63,623,q),
(40,623,o),
(25,638.5,q),
(10,654,o),
(10,684,q),
(10,750,o),
(74,750,q)
);
}
);
width = 328;
}
);
unicode = 168;
},
{
glyphname = caron;
layers = (
{
layerId = "299db4c4-aa3b-4344-9706-c7608b9a95a1";
name = Fore;
shapes = (
{
closed = 1;
nodes = (
(156,703,l),
(271,780,l),
(302,740,l),
(192,616,o),
(156,616,q),
(120,616,o),
(10,740,q),
(42,780,l)
);
}
);
width = 312;
}
);
unicode = 711;
},
{
glyphname = iacute;
kernLeft = j;
layers = (
{
layerId = "299db4c4-aa3b-4344-9706-c7608b9a95a1";
name = Fore;
shapes = (
{
closed = 1;
nodes = (
(107,614,l),
(83,656,l),
(114,687,o),
(179.5,732.5,q),
(245,778,o),
(263,778,q),
(281,778,o),
(300.5,745,q),
(320,712,o),
(320,692,q)
);
},
{
closed = 1;
nodes = (
(100,527,l),
(208,541,l),
(208,0,l),
(100,0,l)
);
}
);
width = 308;
}
);
unicode = 237;
},
{
glyphname = icircumflex;
kernLeft = j;
layers = (
{
layerId = "299db4c4-aa3b-4344-9706-c7608b9a95a1";
name = Fore;
shapes = (
{
closed = 1;
nodes = (
(40,614,l),
(8,654,l),
(118,778,o),
(154,778,q),
(190,778,o),
(300,654,q),
(269,614,l),
(154,691,l)
);
},
{
closed = 1;
nodes = (
(100,527,l),
(208,541,l),
(208,0,l),
(100,0,l)
);
}
);
width = 308;
}
);
unicode = 238;
},
{
glyphname = idieresis;
kernLeft = j;
layers = (
{
layerId = "299db4c4-aa3b-4344-9706-c7608b9a95a1";
name = Fore;
shapes = (
{
closed = 1;
nodes = (
(276,750,o),
(292,734.5,q),
(308,719,o),
(308,688,q),
(308,623,o),
(241,623,q),
(218,623,o),
(203,638.5,q),
(188,654,o),
(188,684,q),
(188,750,o),
(252,750,q)
);
},
{
closed = 1;
nodes = (
(88,750,o),
(104,734.5,q),
(120,719,o),
(120,688,q),
(120,623,o),
(53,623,q),
(30,623,o),
(15,638.5,q),
(0,654,o),
(0,684,q),
(0,750,o),
(64,750,q)
);
},
{
closed = 1;
nodes = (
(100,527,l),
(208,541,l),
(208,0,l),
(100,0,l)
);
}
);
width = 308;
}
);
unicode = 239;
},
{
glyphname = igrave;
kernLeft = j;
layers = (
{
layerId = "299db4c4-aa3b-4344-9706-c7608b9a95a1";
name = Fore;
shapes = (
{
closed = 1;
nodes = (
(-20,692,l),
(-20,712,o),
(-0.5,745,q),
(19,778,o),
(37,778,q),
(55,778,o),
(120.5,732.5,q),
(186,687,o),
(217,656,q),
(193,614,l)
);
},
{
closed = 1;
nodes = (
(100,527,l),
(208,541,l),
(208,0,l),
(100,0,l)
);
}
);
width = 308;
}
);
unicode = 236;
},
{
glyphname = g;
kernLeft = c;
layers = (
{
layerId = "299db4c4-aa3b-4344-9706-c7608b9a95a1";
name = Fore;
shapes = (
{
closed = 1;
nodes = (
(504,32,l),
(504,-90,o),
(440.5,-155,q),
(377,-220,o),
(260,-220,q),
(187.9091,-220,o),
(152.4545,-210,q),
(117,-200,o),
(100.5,-194.5,q),
(84,-189,o),
(82,-189,q),
(105,-108,l),
(173,-133,o),
(225,-133,q),
(277,-133,o),
(303,-127,q),
(329,-121,o),
(352,-103,q),
(396,-68.5652,o),
(396,45,q),
(396,61,l),
(378,33,o),
(341,10.5,q),
(304,-12,o),
(252,-12,q),
(166,-12,o),
(107,53,q),
(48,118,o),
(48,252.5,q),
(48,387,o),
(112,466.5,q),
(176,546,o),
(305,546,q),
(406,546,o),
(504,498,q)
);
},
{
closed = 1;
nodes = (
(222,72,o),
(278.5,72,q),
(335,72,o),
(365.5,112,q),
(396,152,o),
(396,207,q),
(396,449,l),
(360,462,o),
(312,462,q),
(231,462,o),
(196.5,414.5,q),
(162,367,o),
(162,262,q),
(162,157,o),
(192,114.5,q)
);
}
);
width = 604;
}
);
unicode = 103;
},
{
glyphname = Ccedilla;
kernLeft = O.2;
layers = (
{
layerId = "299db4c4-aa3b-4344-9706-c7608b9a95a1";
name = Fore;
shapes = (
{
closed = 1;
nodes = (
(60,588.6429,o),
(206,682.5,q),
(283,732,o),
(395,732,q),
(506.3,732,o),
(603.5,696,q),
(617,691,o),
(618,691,q),
(589,603,l),
(588,603,o),
(575.5,606.5,q),
(563,610,o),
(550.5,613.5,q),
(538,617,o),
(518,621,q),
(498,625,o),
(479.5,628.5,q),
(439.8571,636,o),
(395,636,q),
(283,636,o),
(231.5,573,q),
(180,510,o),
(180,361,q),
(180,192.0333,o),
(239,135,q),
(269,106,o),
(305,95,q),
(341,84,o),
(392,84,q),
(485,84,o),
(589,121,q),
(618,30,l),
(616,30,o),
(603,25.5,q),
(590,21,o),
(573.5,16,q),
(557,11,o),
(534,6,q),
(477.5088,-6.2807,o),
(418,-10,q),
(408,-56,l),
(473,-67,o),
(473,-122,q),
(473,-155,o),
(452.5,-176.5,q),
(420.5581,-210,o),
(372.2791,-210,q),
(324,-210,o),
(288,-191,q),
(307,-143,l),
(330,-152,o),
(352.5,-152,q),
(397,-152,o),
(397,-122.5,q),
(397,-93,o),
(364,-93,q),
(350.6667,-93,o),
(341.3333,-95,q),
(332,-97,o),
(329,-97,q),
(340,-11,l),
(204,-2,o),
(132,93,q),
(60,188,o),
(60,363,q)
);
}
);
width = 662;
}
);
unicode = 199;
},
{
glyphname = ccedilla;
kernLeft = c;
layers = (
{
layerId = "299db4c4-aa3b-4344-9706-c7608b9a95a1";
name = Fore;
shapes = (
{
closed = 1;
nodes = (
(48,387,o),
(114,466.5,q),
(180,546,o),
(297,546,q),
(395,546,o),
(477,504,q),
(447,431,l),
(379,462,o),
(319,462,q),
(239,462,o),
(200.5,409,q),
(162,356,o),
(162,276,q),
(162,72,o),
(320,72,q),
(379,72,o),
(443,106,q),
(478,36,l),
(417,-3,o),
(323,-11,q),
(313,-56,l),
(378,-67,o),
(378,-122,q),
(378,-155,o),
(357.5,-176.5,q),
(325.5581,-210,o),
(277.2791,-210,q),
(229,-210,o),
(193,-191,q),
(212,-143,l),
(235,-152,o),
(257.5,-152,q),
(302,-152,o),
(302,-122.5,q),
(302,-93,o),
(269,-93,q),
(255.6667,-93,o),
(246.3333,-95,q),
(237,-97,o),
(234,-97,q),
(245,-8,l),
(147,7,o),
(97.5,82,q),
(48,157,o),
(48,261,q)
);
}
);
width = 503;
}
);
unicode = 231;
},
{
glyphname = yacute;
kernLeft = y;
layers = (
{
layerId = "299db4c4-aa3b-4344-9706-c7608b9a95a1";
name = Fore;
shapes = (
{
closed = 1;
nodes = (
(243,614,l),
(219,656,l),
(250,687,o),
(315.5,732.5,q),
(381,778,o),
(399,778,q),
(417,778,o),
(436.5,745,q),
(456,712,o),
(456,692,q)
);
},
{
closed = 1;
nodes = (
(182,-133,o),
(254,-133,q),
(326,-133,o),
(365.5,-100,q),
(405,-67,o),
(405,30,q),
(342,-12,o),
(258,-12,q),
(174,-12,o),
(127,44.5,q),
(80,101,o),
(80,184,q),
(80,527,l),
(188,541,l),
(188,204,l),
(188,72,o),
(293,72,q),
(374,72,o),
(405,117,q),
(405,527,l),
(513,541,l),
(513,32,l),
(513,-90,o),
(449.5,-155,q),
(386,-220,o),
(269,-220,q),
(196.9091,-220,o),
(161.4545,-210,q),
(126,-200,o),
(109.5,-194.5,q),
(93,-189,o),
(91,-189,q),
(114,-108,l)
);
}
);
width = 613;
}
);
unicode = 253;
},
{
glyphname = ring;
layers = (
{
layerId = "299db4c4-aa3b-4344-9706-c7608b9a95a1";
name = Fore;
shapes = (
{
closed = 1;
nodes = (
(60,789,o),
(104,789,q),
(148,789,o),
(173.5,767.5,q),
(199,746,o),
(199,704,q),
(199,662,o),
(172,637.5,q),
(145,613,o),
(101,613,q),
(57,613,o),
(33.5,634.5,q),
(10,656,o),
(10,697.5,q),
(10,739,o),
(35,764,q)
);
},
{
closed = 1;
nodes = (
(146,653,o),
(146,700,q),
(146,747,o),
(104,747,q),
(80,747,o),
(71.5,735,q),
(63,723,o),
(63,699,q),
(63,653,o),
(102,653,q)
);
}
);
width = 209;
}
);
unicode = 730;
},
{
glyphname = cedilla;
layers = (
{
layerId = "299db4c4-aa3b-4344-9706-c7608b9a95a1";
name = Fore;
shapes = (
{
closed = 1;
nodes = (
(143,3,l),
(130,-56,l),
(195,-67,o),
(195,-122,q),
(195,-155,o),
(174.5,-176.5,q),
(142.5581,-210,o),
(94.2791,-210,q),
(46,-210,o),
(10,-191,q),
(29,-143,l),
(51,-152,o),
(74,-152,q),
(119,-152,o),
(119,-122.5,q),
(119,-93,o),
(86,-93,q),
(72.6667,-93,o),
(63.3333,-95,q),
(54,-97,o),
(51,-97,q),
(64,3,l)
);
}
);
width = 205;
}
);
unicode = 184;
},
{
glyphname = aring;
kernLeft = c;
layers = (
{
layerId = "299db4c4-aa3b-4344-9706-c7608b9a95a1";
name = Fore;
shapes = (
{
closed = 1;
nodes = (
(262,789,o),
(306,789,q),
(350,789,o),
(375.5,767.5,q),
(401,746,o),
(401,704,q),
(401,662,o),
(374,637.5,q),
(347,613,o),
(303,613,q),
(259,613,o),
(235.5,634.5,q),
(212,656,o),
(212,697.5,q),
(212,739,o),
(237,764,q)
);
},
{
closed = 1;
nodes = (
(348,653,o),
(348,700,q),
(348,747,o),
(306,747,q),
(282,747,o),
(273.5,735,q),
(265,723,o),
(265,699,q),
(265,653,o),
(304,653,q)
);
},
{
closed = 1;
nodes = (
(504,127,l),
(504,92,o),
(512,80.5,q),
(520,69,o),
(551,69,q),
(555,6,l),
(530,-3,o),
(502,-3,q),
(424,-3,o),
(409,68,q),
(356,-12,o),
(252.5,-12,q),
(149,-12,o),
(98.5,65,q),
(48,142,o),
(48,263.5,q),
(48,385,o),
(117,465.5,q),
(186,546,o),
(302,546,q),
(349,546,o),
(411.5,531.5,q),
(474,517,o),
(504,501,q)
);
},
{
closed = 1;
nodes = (
(221,72,o),
(277,72,q),
(333,72,o),
(364.5,111.5,q),
(396,151,o),
(396,209,q),
(396,449,l),
(357,462,o),
(307,462,q),
(231,462,o),
(196.5,407,q),
(162,352,o),
(162,255,q),
(162,158,o),
(191.5,115,q)
);
}
);
width = 609;
}
);
unicode = 229;
},
{
glyphname = Aring;
layers = (
{
layerId = "299db4c4-aa3b-4344-9706-c7608b9a95a1";
name = Fore;
shapes = (
{
closed = 1;
nodes = (
(299,938,o),
(343,938,q),
(387,938,o),
(412.5,916.5,q),
(438,895,o),
(438,853,q),
(438,811,o),
(411,786.5,q),
(384,762,o),
(340,762,q),
(296,762,o),
(272.5,783.5,q),
(249,805,o),
(249,846.5,q),
(249,888,o),
(274,913,q)
);
},
{
closed = 1;
nodes = (
(385,802,o),
(385,849,q),
(385,896,o),
(343,896,q),
(319,896,o),
(310.5,884,q),
(302,872,o),
(302,848,q),
(302,802,o),
(341,802,q)
);
},
{
closed = 1;
nodes = (
(262,705,l),
(270,726,o),
(297,726,q),
(308,726,o),
(404,720,q),
(643,0,l),
(526,0,l),
(461,210,l),
(208,210,l),
(144,0,l),
(25,0,l)
);
},
{
closed = 1;
nodes = (
(433,300,l),
(333,624,l),
(333,618,l),
(235,300,l)
);
}
);
width = 668;
}
);
unicode = 197;
},
{
glyphname = a;
kernLeft = c;
layers = (
{
layerId = "299db4c4-aa3b-4344-9706-c7608b9a95a1";
name = Fore;
shapes = (
{
closed = 1;
nodes = (
(504,127,l),
(504,92,o),
(512,80.5,q),
(520,69,o),
(551,69,q),
(555,6,l),
(530,-3,o),
(502,-3,q),
(424,-3,o),
(409,68,q),
(356,-12,o),
(252.5,-12,q),
(149,-12,o),
(98.5,65,q),
(48,142,o),
(48,263.5,q),
(48,385,o),
(117,465.5,q),
(186,546,o),
(302,546,q),
(349,546,o),
(411.5,531.5,q),
(474,517,o),
(504,501,q)
);
},
{
closed = 1;
nodes = (
(221,72,o),
(277,72,q),
(333,72,o),
(364.5,111.5,q),
(396,151,o),
(396,209,q),
(396,449,l),
(357,462,o),
(307,462,q),
(231,462,o),
(196.5,407,q),
(162,352,o),
(162,255,q),
(162,158,o),
(191.5,115,q)
);
}
);
width = 609;
}
);
unicode = 97;
},
{
glyphname = b;
kernLeft = h;
layers = (
{
layerId = "299db4c4-aa3b-4344-9706-c7608b9a95a1";
name = Fore;
shapes = (
{
closed = 1;
nodes = (
(100,754,l),
(208,768,l),
(208,514,l),
(274,546,o),
(349,546,q),
(439,546,o),
(497.5,476,q),
(556,406,o),
(556,274,q),
(556,142,o),
(490.5,65,q),
(425,-12,o),
(294,-12,q),
(245,-12,o),
(188.5,3.5,q),
(132,19,o),
(100,36,q)
);
},
{
closed = 1;
nodes = (
(377,462,o),
(317,462,q),
(257,462,o),
(208,434,q),
(208,85,l),
(242,72,o),
(296,72,q),
(378,72,o),
(410,123.5,q),
(442,175,o),
(442,274.5,q),
(442,374,o),
(409.5,418,q)
);
}
);
width = 604;
}
);
unicode = 98;
},
{
glyphname = d;
kernLeft = c;
layers = (
{
layerId = "299db4c4-aa3b-4344-9706-c7608b9a95a1";
name = Fore;
shapes = (
{
closed = 1;
nodes = (
(504,125,l),
(504,89,o),
(512.5,79,q),
(521,69,o),
(551,69,q),
(555,6,l),
(530,-3,o),
(502,-3,q),
(424,-3,o),
(409,68,q),
(356,-12,o),
(251,-12,q),
(161,-12,o),
(104.5,56.5,q),
(48,125,o),
(48,258,q),
(48,391,o),
(113.5,468.5,q),
(179,546,o),
(310,546,q),
(350,546,o),
(396,535,q),
(396,754,l),
(504,768,l)
);
},
{
closed = 1;
nodes = (
(334,72,o),
(365,112,q),
(396,152,o),
(396,207,q),
(396,449,l),
(362,462,o),
(307,462,q),
(226,462,o),
(194,410,q),
(162,358,o),
(162,257.5,q),
(162,157,o),
(192,114.5,q),
(222,72,o),
(278,72,q)
);
}
);
width = 609;
}
);
unicode = 100;
},
{
glyphname = r;
kernLeft = p;
layers = (
{
layerId = "299db4c4-aa3b-4344-9706-c7608b9a95a1";
name = Fore;
shapes = (
{
closed = 1;
nodes = (
(100,454,o),
(82,526,q),
(166,537,l),
(191,472,l),
(254,546,o),
(333,546,q),
(386,546,o),
(415.5,521,q),
(445,496,o),
(445,450,q),
(445,404,o),
(430,369,q),
(344,380,l),
(344,425,o),
(335.5,443.5,q),
(327,462,o),
(300.5,462,q),
(274,462,o),
(248.5,441,q),
(223,420,o),
(208,394,q),
(208,0,l),
(100,0,l),
(100,364,l)
);
}
);
width = 451;
}
);
unicode = 114;
},
{
glyphname = u;
kernLeft = y;
layers = (
{
layerId = "299db4c4-aa3b-4344-9706-c7608b9a95a1";
name = Fore;
shapes = (
{
closed = 1;
nodes = (
(513,125,l),
(513,89,o),
(521.5,79,q),
(530,69,o),
(560,69,q),
(564,6,l),
(539,-3,o),
(511,-3,q),
(450,-3,o),
(425,45,q),
(360,-12,o),
(262,-12,q),
(80,-12,o),
(80,184,q),
(80,527,l),
(188,541,l),
(188,204,l),
(188,72,o),
(293,72,q),
(365,72,o),
(405,114,q),
(405,527,l),
(513,541,l)
);
}
);
width = 618;
}
);
unicode = 117;
},
{
glyphname = w;
kernLeft = v;
layers = (
{
layerId = "299db4c4-aa3b-4344-9706-c7608b9a95a1";
name = Fore;
shapes = (
{
closed = 1;
nodes = (
(497,0,l),
(407,249,l),
(402,249,l),
(303,0,l),
(207,0,l),
(15,520,l),
(120,539,l),
(205,286,l),
(212,268,o),
(233,199.5,q),
(254,131,o),
(255,120,q),
(262,120,l),
(264,140,o),
(319,286,q),
(354,385,l),
(300,534,l),
(412,534,l),
(495,286,l),
(544,132,o),
(545,120,q),
(552,120,l),
(553,130,o),
(602,286,q),
(680,539,l),
(785,520,l),
(593,0,l)
);
}
);
width = 800;
}
);
unicode = 119;
},
{
glyphname = E.alt;
layers = (
{
layerId = "299db4c4-aa3b-4344-9706-c7608b9a95a1";
name = Fore;
shapes = (
{
closed = 1;
nodes = (
(398,318,o),
(318,318,q),
(174,318,o),
(174,210,q),
(174,149,o),
(211,116.5,q),
(248,84,o),
(316,84,q),
(356,84,o),
(401.5,97,q),
(447,110,o),
(472.5,123.5,q),
(498,137,l),
(533,55,l),
(525.6,47.6,o),
(499.8,33.8,q),
(474,20,o),
(450.5,11,q),
(390.4445,-12,o),
(312,-12,q),
(54,-12,o),
(54,198,q),
(54,269.7692,o),
(85,311.5,q),
(111.9135,347.7297,o),
(134,360,q),
(143,365,l),
(135.1053,370.2632,o),
(117.5526,389.6316,q),
(100,409,o),
(89.5,427,q),
(61,475.8571,o),
(61,529,q),
(61,618,o),
(126.5,675,q),
(192,732,o),
(309,732,q),
(353,732,o),
(406,716.5,q),
(459,701,o),
(490,685.5,q),
(521,670,l),
(484,584,l),
(385,636,o),
(321,636,q),
(257,636,o),
(219,610,q),
(181,584,o),
(181,528,q),
(181,472,o),
(218,443,q),
(255,414,o),
(318,414,q),
(441,416,l),
(441,314,l)
);
}
);
width = 587;
}
);
},
{
glyphname = s;
layers = (
{
layerId = "299db4c4-aa3b-4344-9706-c7608b9a95a1";
name = Fore;
shapes = (
{
closed = 1;
nodes = (
(57,108,l),
(139,72,o),
(198,72,q),
(300,72,o),
(300,141,q),
(300,195,o),
(202,231,q),
(164,245,o),
(145,253.5,q),
(126,262,o),
(97.5,280.5,q),
(43,315.8772,o),
(43,388.4386,q),
(43,461,o),
(94.5,502.5,q),
(146,544,o),
(234,544,q),
(322.6364,544,o),
(387,514.5,q),
(399,509,o),
(400,509,q),
(379,428,l),
(306,460,o),
(249,460,q),
(149,460,o),
(149,392,q),
(149,372,o),
(159.5,361.5,q),
(170,351,o),
(176,346.5,q),
(182,342,o),
(196,335.5,q),
(210,329,o),
(216.5,326.5,q),
(223,324,o),
(241,317,q),
(259,310,o),
(277.5,303.5,q),
(296,297,o),
(316.5,286,q),
(337,275,o),
(360,256,q),
(406,218,o),
(406,140,q),
(406,87,o),
(375,51.5,q),
(319.5493,-12,o),
(191,-12,q),
(105,-12,o),
(34,27,q)
);
}
);
width = 451;
}
);
unicode = 115;
},
{
glyphname = Q.alt;
layers = (
{
layerId = "299db4c4-aa3b-4344-9706-c7608b9a95a1";
name = Fore;
shapes = (
{
closed = 1;
nodes = (
(240,95,l),
(286,84,o),
(354,84,q),
(476,84,o),
(526.5,150,q),
(577,216,o),
(577,356,q),
(577,496,o),
(533,566,q),
(489,636,o),
(388,636,q),
(287,636,o),
(237,579.5,q),
(187,523,o),
(187,443.5,q),
(187,364,o),
(218.5,332,q),
(250,300,o),
(314,300,q),
(301,201,l),
(70,201,o),
(70,428,q),
(70,545.0385,o),
(152,636.5,q),
(191,680,o),
(252.5,706,q),
(314,732,o),
(388,732,q),
(525,732,o),
(609.5,642,q),
(694,552,o),
(694,370,q),
(694,225,o),
(636,128.5,q),
(578,32,o),
(461,1,q),
(478,-9,o),
(516,-34,q),
(554,-59,o),
(574,-71,q),
(594,-83,o),
(626,-98.5,q),
(684.8387,-127,o),
(754,-127,q),
(733,-222,l),
(612.2258,-220.1419,o),
(508,-149.5,q),
(463,-119,o),
(420.5,-87.5,q),
(313.3261,-8.0652,o),
(218,11,q)
);
}
);
width = 743;
}
);
},
{
glyphname = florin;
layers = (
{
layerId = "299db4c4-aa3b-4344-9706-c7608b9a95a1";
name = Fore;
shapes = (
{
closed = 1;
nodes = (
(17,452,l),
(120,475,l),
(120,556,l),
(120,664,o),
(164.5,716,q),
(209,768,o),
(304,768,q),
(362,768,o),
(410,750,q),
(393,676,l),
(369,684,o),
(320,684,q),
(230,684,o),
(228,541,q),
(228,472,l),
(349,472,l),
(349,388,l),
(228,388,l),
(228,-7,l),
(228,-123,o),
(182,-172.5,q),
(136,-222,o),
(34,-222,q),
(18,-222,o),
(-6,-218,q),
(2,-138,l),
(28,-138,l),
(78,-138,o),
(99,-105.5,q),
(120,-73,o),
(120,-5,q),
(120,388,l),
(17,388,l)
);
}
);
width = 378;
}
);
unicode = 402;
},
{
glyphname = fi;
layers = (
{
layerId = "299db4c4-aa3b-4344-9706-c7608b9a95a1";
name = Fore;
shapes = (
{
closed = 1;
nodes = (
(429,443,l),
(228,443,l),
(228,-45,l),
(228,-127,o),
(195,-173.5,q),
(162,-220,o),
(93,-220,q),
(54,-220,o),
(23,-209,q),
(36,-133,l),
(48,-136,o),
(67,-136,q),
(120,-136,o),
(120,-43,q),
(120,443,l),
(25,443,l),
(25,502,l),
(120,515,l),
(120,593,l),
(120,675,o),
(162.5,721.5,q),
(205,768,o),
(294,768,q),
(335,768,o),
(368,761,q),
(355,682,l),
(331,684,o),
(314,684,q),
(277,684,o),
(252.5,661.5,q),
(228,639,o),
(228,591,q),
(228,515,l),
(429,515,l),
(537,529,l),
(537,0,l),
(429,0,l)
);
},
{
closed = 1;
nodes = (
(511,760,o),
(528,744.5,q),
(545,729,o),
(545,698,q),
(545,633,o),
(477,633,q),
(453,633,o),
(437,648.5,q),
(421,664,o),
(421,694,q),
(421,760,o),
(486,760,q)
);
}
);
width = 637;
}
);
unicode = 64257;
},
{
glyphname = fl;
layers = (
{
layerId = "299db4c4-aa3b-4344-9706-c7608b9a95a1";
name = Fore;
shapes = (
{
closed = 1;
nodes = (
(25,502,l),
(120,515,l),
(120,593,l),
(120,675,o),
(162.5,721.5,q),
(205,768,o),
(294,768,q),
(416,768,o),
(547,729,q),
(547,165,l),
(547,72,o),
(600,72,q),
(613,72,o),
(648,79,q),
(661,5,l),
(660,5,o),
(652.5,2,q),
(645,-1,o),
(635.5,-4,q),
(610.1667,-12,o),
(574,-12,q),
(505,-12,o),
(472,34.5,q),
(439,81,o),
(439,163,q),
(439,675,l),
(376,684,o),
(314,684,q),
(277,684,o),
(252.5,661.5,q),
(228,639,o),
(228,591,q),
(228,515,l),
(348,515,l),
(336,443,l),
(228,443,l),
(228,-45,l),
(228,-127,o),
(195,-173.5,q),
(162,-220,o),
(93,-220,q),
(54,-220,o),
(23,-209,q),
(36,-133,l),
(48,-136,o),
(67,-136,q),
(120,-136,o),
(120,-43,q),
(120,443,l),
(25,443,l)
);
}
);
width = 662;
}
);
unicode = 64258;
},
{
glyphname = parenleft;
layers = (
{
layerId = "299db4c4-aa3b-4344-9706-c7608b9a95a1";
name = Fore;
shapes = (
{
closed = 1;
nodes = (
(269,-90,l),
(175,-61,o),
(117.5,47,q),
(60,155,o),
(60,322.5,q),
(60,490,o),
(112.5,602,q),
(165,714,o),
(269,752,q),
(298,675,l),
(230,651,o),
(205.5,563,q),
(181,475,o),
(181,332,q),
(181,32,o),
(298,-7,q)
);
}
);
width = 348;
}
);
unicode = 40;
},
{
glyphname = parenright;
layers = (
{
layerId = "299db4c4-aa3b-4344-9706-c7608b9a95a1";
name = Fore;
shapes = (
{
closed = 1;
nodes = (
(79,752,l),
(173,723,o),
(230.5,615,q),
(288,507,o),
(288,339.5,q),
(288,172,o),
(235.5,60,q),
(183,-52,o),
(79,-90,q),
(50,-13,l),
(118,11,o),
(142.5,99,q),
(167,187,o),
(167,330,q),
(167,630,o),
(50,669,q)
);
}
);
width = 348;
}
);
unicode = 41;
},
{
glyphname = exclamdown;
layers = (
{
layerId = "299db4c4-aa3b-4344-9706-c7608b9a95a1";
name = Fore;
shapes = (
{
closed = 1;
nodes = (
(112,641,o),
(142,641,q),
(172,641,o),
(190.5,624,q),
(209,607,o),
(209,575,q),
(209,506,o),
(137,506,q),
(112,506,o),
(95,523,q),
(78,540,o),
(78,571.5,q),
(78,603,o),
(95,622,q)
);
},
{
closed = 1;
nodes = (
(198,-92,l),
(145,-106,o),
(110,-106,q),
(68,-106,o),
(68,-60,q),
(68,12,o),
(81,169.5,q),
(94,327,o),
(110,419,q),
(187,406,l)
);
}
);
width = 284;
}
);
unicode = 161;
},
{
glyphname = thorn;
layers = (
{
layerId = "299db4c4-aa3b-4344-9706-c7608b9a95a1";
name = Fore;
shapes = (
{
closed = 1;
nodes = (
(208,-222,l),
(100,-222,l),
(100,743,l),
(208,757,l),
(208,514,l),
(274,546,o),
(349,546,q),
(439,546,o),
(497.5,476,q),
(556,406,o),
(556,274,q),
(556,142,o),
(490.5,65,q),
(425,-12,o),
(294,-12,q),
(259,-12,o),
(208,-1,q)
);
},
{
closed = 1;
nodes = (
(377,462,o),
(317,462,q),
(257,462,o),
(208,434,q),
(208,85,l),
(242,72,o),
(296,72,q),
(378,72,o),
(410,123.5,q),
(442,175,o),
(442,274.5,q),
(442,374,o),
(409.5,418,q)
);
}
);
width = 605;
}
);
unicode = 254;
},
{
glyphname = eight;
layers = (
{
layerId = "299db4c4-aa3b-4344-9706-c7608b9a95a1";
name = Fore;
shapes = (
{
closed = 1;
nodes = (
(56,86,o),
(56,171.5,q),
(56,257,o),
(156,357,q),
(68,411,o),
(68,507,q),
(68,589,o),
(130,639.5,q),
(192,690,o),
(289,690,q),
(386,690,o),
(444,646,q),
(502,602,o),
(502,531,q),
(502,446,o),
(412,362,q),
(514,300,o),
(514,190,q),
(514,100,o),
(448,44,q),
(382,-12,o),
(280,-12,q),
(178,-12,o),
(117,37,q)
);
},
{
closed = 1;
nodes = (
(351,417,o),
(363,432,q),
(395,472,o),
(395,516,q),
(395,560,o),
(368.5,590,q),
(342,620,o),
(290,620,q),
(238,620,o),
(205.5,587,q),
(173,554,o),
(173,508.5,q),
(173,463,o),
(219.5,431.5,q),
(266,400,o),
(328,392,q)
);
},
{
closed = 1;
nodes = (
(211,294,o),
(197,276.5,q),
(160,230.25,o),
(160,179.625,q),
(160,129,o),
(190,95,q),
(220,61,o),
(279,61,q),
(338,61,o),
(373.5,98.5,q),
(409,136,o),
(409,187,q),
(409,238,o),
(359,275,q),
(309,312,o),
(237,322,q)
);
}
);
width = 570;
}
);
unicode = 56;
},
{
glyphname = nine;
layers = (
{
layerId = "299db4c4-aa3b-4344-9706-c7608b9a95a1";
name = Fore;
shapes = (
{
closed = 1;
nodes = (
(122,73,l),
(190,73,o),
(240,94,q),
(290,115,o),
(317,149.5,q),
(362.0428,207.0548,o),
(375,274,q),
(309,235,o),
(236,235,q),
(163,235,o),
(104.5,292.5,q),
(46,350,o),
(46,448.5,q),
(46,547,o),
(101.5,618,q),
(157,689,o),
(264,689,q),
(371,689,o),
(432,616.5,q),
(493,544,o),
(493,408,q),
(493,206,o),
(389,97,q),
(285,-12,o),
(130,-12,q)
);
},
{
closed = 1;
nodes = (
(300,605,o),
(257,605,q),
(214,605,o),
(184,563.5,q),
(154,522,o),
(154,452.5,q),
(154,383,o),
(183,351,q),
(212,319,o),
(263,319,q),
(335,319,o),
(380,357,q),
(382,389,o),
(382,419,q),
(382,449,o),
(378,479,q),
(374,509,o),
(362,540,q),
(350,571,o),
(325,588,q)
);
}
);
width = 544;
}
);
unicode = 57;
},
{
glyphname = six;
layers = (
{
layerId = "299db4c4-aa3b-4344-9706-c7608b9a95a1";
name = Fore;
shapes = (
{
closed = 1;
nodes = (
(243,447,o),
(316,447,q),
(389,447,o),
(449,388.5,q),
(509,330,o),
(509,230.5,q),
(509,131,o),
(451.5,59.5,q),
(394,-12,o),
(284,-12,q),
(174,-12,o),
(112.5,60.5,q),
(51,133,o),
(51,270,q),
(51,376,o),
(80.5,458,q),
(110,540,o),
(161,589.5,q),
(264.5454,690,o),
(418,690,q),
(426,605,l),
(368,605,o),
(322,589,q),
(276,573,o),
(250.5,551.5,q),
(225,530,o),
(207.5,500,q),
(180.5405,453.7838,o),
(174,408,q)
);
},
{
closed = 1;
nodes = (
(250,72,o),
(294.5,72,q),
(339,72,o),
(370,114,q),
(401,156,o),
(401,227,q),
(401,298,o),
(370.5,330.5,q),
(340,363,o),
(288,363,q),
(213,363,o),
(168,325,q),
(165,300,o),
(165,265,q),
(165,230,o),
(169.5,199.5,q),
(174,169,o),
(186,137.5,q),
(198,106,o),
(224,89,q)
);
}
);
width = 555;
}
);
unicode = 54;
},
{
glyphname = x;
layers = (
{
layerId = "299db4c4-aa3b-4344-9706-c7608b9a95a1";
name = Fore;
shapes = (
{
closed = 1;
nodes = (
(387,0,l),
(256,183,l),
(131,0,l),
(15,0,l),
(197,265,l),
(15,520,l),
(120,539,l),
(264,336,l),
(402,539,l),
(507,520,l),
(323,253,l),
(503,0,l)
);
}
);
width = 522;
}
);
unicode = 120;
},
{
glyphname = exclam;
layers = (
{
layerId = "299db4c4-aa3b-4344-9706-c7608b9a95a1";
name = Fore;
shapes = (
{
closed = 1;
nodes = (
(86,728,l),
(139,742,o),
(174,742,q),
(216,742,o),
(216,696,q),
(216,624,o),
(203,466.5,q),
(190,309,o),
(174,217,q),
(97,230,l)
);
},
{
closed = 1;
nodes = (
(172,-5,o),
(142,-5,q),
(112,-5,o),
(93.5,12,q),
(75,29,o),
(75,61,q),
(75,130,o),
(147,130,q),
(172,130,o),
(189,113,q),
(206,96,o),
(206,64.5,q),
(206,33,o),
(189,14,q)
);
}
);
width = 284;
}
);
unicode = 33;
},
{
glyphname = z;
layers = (
{
layerId = "299db4c4-aa3b-4344-9706-c7608b9a95a1";
name = Fore;
shapes = (
{
closed = 1;
nodes = (
(51,0,l),
(51,81,l),
(325,450,l),
(50,450,l),
(64,534,l),
(446,534,l),
(446,450,l),
(174,84,l),
(445,84,l),
(459,0,l)
);
}
);
width = 506;
}
);
unicode = 122;
},
{
glyphname = quoteright;
layers = (
{
layerId = "299db4c4-aa3b-4344-9706-c7608b9a95a1";
name = Fore;
shapes = (
{
closed = 1;
nodes = (
(33,710,o),
(33,725,q),
(33,740,o),
(47,754,q),
(61,768,o),
(85.5,768,q),
(110,768,o),
(123,751,q),
(136,734,o),
(136,697,q),
(136,660,o),
(106,614,q),
(76,568,o),
(26,541,q),
(2,570,l),
(52,620,o),
(52,664,q),
(52,674,o),
(42.5,692,q)
);
}
);
width = 162;
}
);
unicode = 8217;
},
{
glyphname = quotesingle;
layers = (
{
layerId = "299db4c4-aa3b-4344-9706-c7608b9a95a1";
name = Fore;
shapes = (
{
closed = 1;
nodes = (
(100,525,l),
(52,533,l),
(50,565,o),
(50,599,q),
(50,736,o),
(64,758,q),
(71,768,o),
(90,768,q),
(130,768,o),
(149,749,q)
);
}
);
width = 242;
}
);
unicode = 39;
},
{
glyphname = e;
kernLeft = c;
layers = (
{
layerId = "299db4c4-aa3b-4344-9706-c7608b9a95a1";
name = Fore;
shapes = (
{
closed = 1;
nodes = (
(487,46,l),
(470,30,o),
(415,9,q),
(360,-12,o),
(297,-12,q),
(185,-12,o),
(116.5,56,q),
(48,124,o),
(48,260,q),
(48,335,o),
(72,392.5,q),
(96,450,o),
(134.5,482,q),
(211.5,546,o),
(297.25,546,q),
(383,546,o),
(433.5,502.5,q),
(484,459,o),
(484,396,q),
(484,313,o),
(405,260.5,q),
(326,208,o),
(152,208,q),
(152,162,o),
(190.5,117,q),
(229,72,o),
(304.5,72,q),
(380,72,o),
(450,114,q)
);
},
{
closed = 1;
nodes = (
(387,417,o),
(364.5,439.5,q),
(342,462,o),
(301,462,q),
(235,462,o),
(192.5,412.5,q),
(150,363,o),
(149,283,q),
(387,283,o),
(387,387,q)
);
}
);
width = 530;
}
);
unicode = 101;
},
{
glyphname = t;
kernLeft = f;
layers = (
{
layerId = "299db4c4-aa3b-4344-9706-c7608b9a95a1";
name = Fore;
shapes = (
{
closed = 1;
nodes = (
(218,652,l),
(218,515,l),
(373,515,l),
(361,443,l),
(218,443,l),
(218,175,l),
(218,121,o),
(234.5,96.5,q),
(251,72,o),
(286,72,q),
(321,72,o),
(365,80,q),
(378,7,l),
(316,-12,o),
(258,-12,q),
(177,-12,o),
(143.5,31,q),
(110,74,o),
(110,153,q),
(110,443,l),
(35,443,l),
(35,505,l),
(110,515,l),
(133,641,l)
);
}
);
width = 418;
}
);
unicode = 116;
},
{
glyphname = k;
kernLeft = h;
layers = (
{
layerId = "299db4c4-aa3b-4344-9706-c7608b9a95a1";
name = Fore;
shapes = (
{
closed = 1;
nodes = (
(100,0,l),
(100,754,l),
(208,768,l),
(208,312,l),
(437,540,l),
(567,528,l),
(340,315,l),
(456,151,l),
(511,74,o),
(570,72,q),
(570,-5,l),
(562,-7,o),
(537,-7,q),
(436,-7,o),
(370,90,q),
(263,250,l),
(208,199,l),
(208,0,l)
);
}
);
width = 585;
}
);
unicode = 107;
},
{
glyphname = onesuperior;
layers = (
{
layerId = "299db4c4-aa3b-4344-9706-c7608b9a95a1";
name = Fore;
shapes = (
{
closed = 1;
nodes = (
(196,535,l),
(259,535,l),
(245,466,l),
(56,466,l),
(56,524,l),
(116,533,l),
(116,734,l),
(68,709,l),
(37,771,l),
(96,802,l),
(118,813,o),
(129,813,q),
(140,813,o),
(196,807,q)
);
}
);
width = 283;
}
);
unicode = 185;
},
{
glyphname = twosuperior;
layers = (
{
layerId = "299db4c4-aa3b-4344-9706-c7608b9a95a1";
name = Fore;
shapes = (
{
closed = 1;
nodes = (
(34,465,l),
(34,505,l),
(34,534.375,o),
(45,550.1875,q),
(56,566,o),
(61,573.5,q),
(66,581,o),
(80.5,592,q),
(95,603,o),
(100,606.5,q),
(105,610,o),
(122.5,621.5,q),
(140,633,o),
(143,635,q),
(201,673,o),
(201,706,q),
(201,746,o),
(153,746,q),
(105,746,o),
(59,723,q),
(35,782,l),
(90,815,o),
(156,815,q),
(222,815,o),
(253,783,q),
(284,751,o),
(284,711,q),
(284,671,o),
(263.5,646.5,q),
(243,622,o),
(190,586,q),
(137,550,o),
(124,534,q),
(276,534,l),
(276,465,l)
);
}
);
width = 312;
}
);
unicode = 178;
},
{
glyphname = threesuperior;
layers = (
{
layerId = "299db4c4-aa3b-4344-9706-c7608b9a95a1";
name = Fore;
shapes = (
{
closed = 1;
nodes = (
(69,543,l),
(110,528,o),
(147,528,q),
(214,528,o),
(214,571,q),
(214,603.3158,o),
(175,610.5,q),
(145.1429,616,o),
(110,616,q),
(99,671,l),
(158,671,o),
(185.5,679.5,q),
(213,688,o),
(213,710,q),
(213,746,o),
(153,746,q),
(128,746,o),
(101,739.5,q),
(74,733,o),
(66,728,q),
(45,787,l),
(101,815,o),
(158,815,q),
(215,815,o),
(254.5,791,q),
(294,767,o),
(294,723.5,q),
(294,680,o),
(260,651,q),
(260,646,l),
(298,621,o),
(298,567.5,q),
(298,514,o),
(257,486.5,q),
(216,459,o),
(149.5,459,q),
(83,459,o),
(43,483,q)
);
}
);
width = 326;
}
);
unicode = 179;
},
{
glyphname = onequarter;
layers = (
{
layerId = "299db4c4-aa3b-4344-9706-c7608b9a95a1";
name = Fore;
shapes = (
{
closed = 1;
nodes = (
(130,16,l),
(480,729,l),
(549,700,l),
(199,-12,l)
);
},
{
closed = 1;
nodes = (
(196,448,l),
(259,448,l),
(245,379,l),
(56,379,l),
(56,437,l),
(116,446,l),
(116,647,l),
(68,622,l),
(37,684,l),
(96,715,l),
(118,726,o),
(129,726,q),
(140,726,o),
(196,720,q)
);
},
{
closed = 1;
nodes = (
(354,122,l),
(499,329,l),
(512,347,o),
(529,347,q),
(602,340,l),
(602,141,l),
(654,141,l),
(640,72,l),
(602,72,l),
(602,0,l),
(523,0,l),
(523,72,l),
(355,72,l)
);
},
{
closed = 1;
nodes = (
(458,141,l),
(524,141,l),
(524,246,l)
);
}
);
width = 657;
}
);
unicode = 188;
},
{
glyphname = onehalf;
layers = (
{
layerId = "299db4c4-aa3b-4344-9706-c7608b9a95a1";
name = Fore;
shapes = (
{
closed = 1;
nodes = (
(130,16,l),
(480,729,l),
(549,700,l),
(199,-12,l)
);
},
{
closed = 1;
nodes = (
(196,448,l),
(259,448,l),
(245,379,l),
(56,379,l),
(56,437,l),
(116,446,l),
(116,647,l),
(68,622,l),
(37,684,l),
(96,715,l),
(118,726,o),
(129,726,q),
(140,726,o),
(196,720,q)
);
},
{
closed = 1;
nodes = (
(417,0,l),
(417,40,l),
(417,69.375,o),
(428,85.1875,q),
(439,101,o),
(444,108.5,q),
(449,116,o),
(463.5,127,q),
(478,138,o),
(483,141.5,q),
(488,145,o),
(505.5,156.5,q),
(523,168,o),
(526,170,q),
(584,208,o),
(584,241,q),
(584,281,o),
(536,281,q),
(488,281,o),
(442,258,q),
(418,317,l),
(473,350,o),
(539,350,q),
(605,350,o),
(636,318,q),
(667,286,o),
(667,246,q),
(667,206,o),
(646.5,181.5,q),
(626,157,o),
(573,121,q),
(520,85,o),
(507,69,q),
(659,69,l),
(659,0,l)
);
}
);
width = 693;
}
);
unicode = 189;
},
{
glyphname = threequarters;
layers = (
{
layerId = "299db4c4-aa3b-4344-9706-c7608b9a95a1";
name = Fore;
shapes = (
{
closed = 1;
nodes = (
(158,16,l),
(508,729,l),
(577,700,l),
(227,-12,l)
);
},
{
closed = 1;
nodes = (
(69,457,l),
(110,442,o),
(147,442,q),
(214,442,o),
(214,485,q),
(214,517.3158,o),
(175,524.5,q),
(145.1429,530,o),
(110,530,q),
(99,585,l),
(158,585,o),
(185.5,593.5,q),
(213,602,o),
(213,624,q),
(213,660,o),
(153,660,q),
(128,660,o),
(101,653.5,q),
(74,647,o),
(66,642,q),
(45,701,l),
(101,729,o),
(158,729,q),
(215,729,o),
(254.5,705,q),
(294,681,o),
(294,637.5,q),
(294,594,o),
(260,565,q),
(260,560,l),
(298,535,o),
(298,481.5,q),
(298,428,o),
(257,400.5,q),
(216,373,o),
(149.5,373,q),
(83,373,o),
(43,397,q)
);
},
{
closed = 1;
nodes = (
(381,122,l),
(526,329,l),
(540,347,o),
(556,347,q),
(629,340,l),
(629,141,l),
(681,141,l),
(667,72,l),
(629,72,l),
(629,0,l),
(550,0,l),
(550,72,l),
(382,72,l)
);
},
{
closed = 1;
nodes = (
(485,141,l),
(551,141,l),
(551,246,l)
);
}
);
width = 698;
}
);
unicode = 190;
},
{
glyphname = ordfeminine;
layers = (
{
layerId = "299db4c4-aa3b-4344-9706-c7608b9a95a1";
name = Fore;
shapes = (
{
closed = 1;
nodes = (
(373,467,l),
(373,457,o),
(378,453.5,q),
(383,450,o),
(404,450,q),
(409,385,l),
(377,377,o),
(363,377,q),
(314,377,o),
(296,413,q),
(255,372,o),
(185,372,q),
(115,372,o),
(78,420.5,q),
(41,469,o),
(41,545,q),
(41,621,o),
(91,671.5,q),
(141,722,o),
(225,722,q),
(257,722,o),
(303,712.5,q),
(349,703,o),
(373,693,q)
);
},
{
closed = 1;
nodes = (
(174,452,o),
(208.5,452,q),
(243,452,o),
(262,470,q),
(281,488,o),
(281,514,q),
(281,637,l),
(259,642,o),
(220,642,q),
(181,642,o),
(159.5,615,q),
(138,588,o),
(138,541,q),
(138,494,o),
(156,473,q)
);
}
);
width = 445;
}
);
unicode = 170;
},
{
glyphname = ordmasculine;
layers = (
{
layerId = "299db4c4-aa3b-4344-9706-c7608b9a95a1";
name = Fore;
shapes = (
{
closed = 1;
nodes = (
(302,722,o),
(348.5,679,q),
(395,636,o),
(395,552.5,q),
(395,469,o),
(348,420.5,q),
(301,372,o),
(206,372,q),
(134,372,o),
(87.5,416,q),
(41,460,o),
(41,543,q),
(41,626,o),
(88.5,674,q),
(136,722,o),
(231,722,q)
);
},
{
closed = 1;
nodes = (
(262,452,o),
(280,477.5,q),
(298,503,o),
(298,552,q),
(298,601,o),
(278,621.5,q),
(258,642,o),
(216.5,642,q),
(138,642,o),
(138,547,q),
(138,452,o),
(216,452,q)
);
}
);
width = 436;
}
);
unicode = 186;
},
{
glyphname = degree;
layers = (
{
layerId = "299db4c4-aa3b-4344-9706-c7608b9a95a1";
name = Fore;
shapes = (
{
closed = 1;
nodes = (
(41,594,o),
(91,642,q),
(141,690,o),
(217,690,q),
(293,690,o),
(343.5,642,q),
(394,594,o),
(394,515,q),
(394,436,o),
(343.5,388.5,q),
(293,341,o),
(217,341,q),
(141,341,o),
(91,388.5,q),
(41,436,o),
(41,515,q)
);
},
{
closed = 1;
nodes = (
(130,467,o),
(154,442,q),
(178,417,o),
(217,417,q),
(256,417,o),
(281,442,q),
(306,467,o),
(306,515,q),
(306,563,o),
(281,588.5,q),
(256,614,o),
(217,614,q),
(178,614,o),
(154,588.5,q),
(130,563,o),
(130,515,q)
);
}
);
width = 436;
}
);
unicode = 176;
},
{
glyphname = less;
layers = (
{
layerId = "299db4c4-aa3b-4344-9706-c7608b9a95a1";
name = Fore;
shapes = (
{
closed = 1;
nodes = (
(82,351,l),
(423,544,l),
(467,471,l),
(169,303,l),
(465,136,l),
(433,56,l),
(50,272,l)
);
}
);
width = 527;
}
);
unicode = 60;
},
{
glyphname = greater;
layers = (
{
layerId = "299db4c4-aa3b-4344-9706-c7608b9a95a1";
name = Fore;
shapes = (
{
closed = 1;
nodes = (
(445,249,l),
(104,56,l),
(60,129,l),
(358,297,l),
(62,464,l),
(94,544,l),
(477,328,l)
);
}
);
width = 527;
}
);
unicode = 62;
},
{
glyphname = plus;
layers = (
{
layerId = "299db4c4-aa3b-4344-9706-c7608b9a95a1";
name = Fore;
shapes = (
{
closed = 1;
nodes = (
(317,516,l),
(317,349,l),
(486,349,l),
(472,265,l),
(317,265,l),
(317,108,l),
(227,94,l),
(227,265,l),
(64,265,l),
(64,349,l),
(227,349,l),
(227,516,l)
);
}
);
width = 546;
}
);
unicode = 43;
},
{
glyphname = plusminus;
layers = (
{
layerId = "299db4c4-aa3b-4344-9706-c7608b9a95a1";
name = Fore;
shapes = (
{
closed = 1;
nodes = (
(317,536,l),
(317,416,l),
(486,416,l),
(472,338,l),
(317,338,l),
(317,228,l),
(227,214,l),
(227,338,l),
(64,338,l),
(64,416,l),
(227,416,l),
(227,536,l)
);
},
{
closed = 1;
nodes = (
(486,163,l),
(472,85,l),
(64,85,l),
(64,163,l)
);
}
);
width = 546;
}
);
unicode = 177;
},
{
glyphname = hyphen;
layers = (
{
layerId = "299db4c4-aa3b-4344-9706-c7608b9a95a1";
name = Fore;
shapes = (
{
closed = 1;
nodes = (
(486,349,l),
(472,265,l),
(64,265,l),
(64,349,l)
);
}
);
width = 546;
}
);
unicode = 45;
},
{
glyphname = equal;
layers = (
{
layerId = "299db4c4-aa3b-4344-9706-c7608b9a95a1";
name = Fore;
shapes = (
{
closed = 1;
nodes = (
(64,349,l),
(64,433,l),
(486,433,l),
(472,349,l)
);
},
{
closed = 1;
nodes = (
(486,266,l),
(472,182,l),
(64,182,l),
(64,266,l)
);
}
);
width = 546;
}
);
unicode = 61;
},
{
glyphname = multiply;
layers = (
{
layerId = "299db4c4-aa3b-4344-9706-c7608b9a95a1";
name = Fore;
shapes = (
{
closed = 1;
nodes = (
(125,514,l),
(271,359,l),
(420,518,l),
(476,443,l),
(336,303,l),
(474,165,l),
(420,92,l),
(272,250,l),
(127,95,l),
(62,160,l),
(207,305,l),
(62,450,l)
);
}
);
width = 538;
}
);
unicode = 215;
},
{
glyphname = divide;
layers = (
{
layerId = "299db4c4-aa3b-4344-9706-c7608b9a95a1";
name = Fore;
shapes = (
{
closed = 1;
nodes = (
(210,505,o),
(227,523.5,q),
(244,542,o),
(272,542,q),
(300,542,o),
(317,523.5,q),
(334,505,o),
(334,479,q),
(334,453,o),
(317,434.5,q),
(300,416,o),
(272,416,q),
(244,416,o),
(227,434.5,q),
(210,453,o),
(210,479,q)
);
},
{
closed = 1;
nodes = (
(486,349,l),
(472,265,l),
(64,265,l),
(64,349,l)
);
},
{
closed = 1;
nodes = (
(210,165,o),
(227,183.5,q),
(244,202,o),
(272,202,q),
(300,202,o),
(317,183.5,q),
(334,165,o),
(334,139,q),
(334,113,o),
(317,94.5,q),
(300,76,o),
(272,76,q),
(244,76,o),
(227,94.5,q),
(210,113,o),
(210,139,q)
);
}
);
width = 546;
}
);
unicode = 247;
},
{
glyphname = logicalnot;
layers = (
{
layerId = "299db4c4-aa3b-4344-9706-c7608b9a95a1";
name = Fore;
shapes = (
{
closed = 1;
nodes = (
(550,334,l),
(64,334,l),
(64,409,l),
(626,409,l),
(626,120,l),
(550,120,l)
);
}
);
width = 690;
}
);
unicode = 172;
},
{
glyphname = mu;
layers = (
{
layerId = "299db4c4-aa3b-4344-9706-c7608b9a95a1";
name = Fore;
shapes = (
{
closed = 1;
nodes = (
(533,125,l),
(533,89,o),
(541.5,79,q),
(550,69,o),
(580,69,q),
(584,6,l),
(559,-3,o),
(531,-3,q),
(470,-3,o),
(445,45,q),
(380,-12,o),
(282,-12,q),
(236,-12,o),
(199,1,q),
(199,-212,l),
(100,-212,l),
(100,527,l),
(208,541,l),
(208,204,l),
(208,72,o),
(313,72,q),
(385,72,o),
(425,114,q),
(425,527,l),
(533,541,l)
);
}
);
width = 638;
}
);
unicode = 181;
},
{
glyphname = percent;
layers = (
{
layerId = "299db4c4-aa3b-4344-9706-c7608b9a95a1";
name = Fore;
shapes = (
{
closed = 1;
nodes = (
(184,16,l),
(534,729,l),
(603,700,l),
(253,-12,l)
);
},
{
closed = 1;
nodes = (
(128,373,o),
(88.5,417.5,q),
(49,462,o),
(49,546,q),
(49,630,o),
(90.5,679.5,q),
(132,729,o),
(212,729,q),
(270,729,o),
(309.5,684.5,q),
(349,640,o),
(349,556,q),
(349,472,o),
(307,422.5,q),
(265,373,o),
(185,373,q)
);
},
{
closed = 1;
nodes = (
(265,442,o),
(265,558,q),
(265,660,o),
(202,660,q),
(133,660,o),
(133,544,q),
(133,442,o),
(196,442,q)
);
},
{
closed = 1;
nodes = (
(506,-12,o),
(466.5,32.5,q),
(427,77,o),
(427,161,q),
(427,245,o),
(468.5,294.5,q),
(510,344,o),
(590,344,q),
(648,344,o),
(687.5,299.5,q),
(727,255,o),
(727,171,q),
(727,87,o),
(685,37.5,q),
(643,-12,o),
(563,-12,q)
);
},
{
closed = 1;
nodes = (
(643,57,o),
(643,173,q),
(643,275,o),
(580,275,q),
(511,275,o),
(511,159,q),
(511,57,o),
(574,57,q)
);
}
);
width = 776;
}
);
unicode = 37;
},
{
glyphname = numbersign;
layers = (
{
layerId = "299db4c4-aa3b-4344-9706-c7608b9a95a1";
name = Fore;
shapes = (
{
closed = 1;
nodes = (
(532,411,l),
(507,268,l),
(688,268,l),
(674,190,l),
(493,190,l),
(460,0,l),
(371,0,l),
(405,190,l),
(280,190,l),
(244,-6,l),
(161,6,l),
(193,190,l),
(64,190,l),
(64,268,l),
(207,268,l),
(232,411,l),
(64,411,l),
(64,489,l),
(246,489,l),
(280,679,l),
(369,679,l),
(334,489,l),
(460,489,l),
(496,685,l),
(579,673,l),
(546,489,l),
(688,489,l),
(674,411,l)
);
},
{
closed = 1;
nodes = (
(294,268,l),
(420,268,l),
(446,411,l),
(320,411,l)
);
}
);
width = 833;
}
);
unicode = 35;
},
{
glyphname = asterisk;
layers = (
{
layerId = "299db4c4-aa3b-4344-9706-c7608b9a95a1";
name = Fore;
shapes = (
{
closed = 1;
nodes = (
(205,520,l),
(202,521,o),
(182,523,q),
(162,525,o),
(144,528,q),
(126,531,o),
(105.5,536.5,q),
(60,548.7073,o),
(60,574,q),
(60,615,o),
(86,643,q),
(220,573,l),
(203,672,o),
(203,693,q),
(203,714,o),
(215,723,q),
(227,732,o),
(256,732,q),
(285,732,o),
(299,725,q),
(274,576,l),
(276,577,o),
(299,589.5,q),
(322,602,o),
(336,609,q),
(380,631,o),
(399.5,631,q),
(419,631,o),
(431,606.5,q),
(443,582,o),
(443,566,q),
(443,550,o),
(442,547,q),
(293,524,l),
(295,522,o),
(308.5,510.5,q),
(322,499,o),
(333.5,488,q),
(345,477,o),
(358,463,q),
(387,431.7692,o),
(387,413.3846,q),
(387,395,o),
(363,377,q),
(339,359,o),
(318,356,q),
(251,491,l),
(248,485,o),
(228,443.5,q),
(208,402,o),
(199,389,q),
(181,367,o),
(165,367,q),
(149,367,o),
(128,382.5,q),
(107,398,o),
(98,415,q)
);
}
);
width = 503;
}
);
unicode = 42;
},
{
glyphname = endash;
layers = (
{
layerId = "299db4c4-aa3b-4344-9706-c7608b9a95a1";
name = Fore;
shapes = (
{
closed = 1;
nodes = (
(526,339,l),
(515,275,l),
(64,275,l),
(64,339,l)
);
}
);
width = 586;
}
);
unicode = 8211;
},
{
glyphname = emdash;
layers = (
{
layerId = "299db4c4-aa3b-4344-9706-c7608b9a95a1";
name = Fore;
shapes = (
{
closed = 1;
nodes = (
(827,339,l),
(816,275,l),
(64,275,l),
(64,339,l)
);
}
);
width = 887;
}
);
unicode = 8212;
},
{
glyphname = slash;
layers = (
{
layerId = "299db4c4-aa3b-4344-9706-c7608b9a95a1";
name = Fore;
shapes = (
{
closed = 1;
nodes = (
(42,-50,l),
(298,720,l),
(376,720,l),
(120,-50,l)
);
}
);
width = 415;
}
);
unicode = 47;
},
{
glyphname = backslash;
layers = (
{
layerId = "299db4c4-aa3b-4344-9706-c7608b9a95a1";
name = Fore;
shapes = (
{
closed = 1;
nodes = (
(117,720,l),
(373,-50,l),
(295,-50,l),
(39,720,l)
);
}
);
width = 415;
}
);
unicode = 92;
},
{
glyphname = bar;
layers = (
{
layerId = "299db4c4-aa3b-4344-9706-c7608b9a95a1";
name = Fore;
shapes = (
{
closed = 1;
nodes = (
(108,768,l),
(184,768,l),
(184,-200,l),
(108,-200,l)
);
}
);
width = 292;
}
);
unicode = 124;
},
{
glyphname = brokenbar;
layers = (
{
layerId = "299db4c4-aa3b-4344-9706-c7608b9a95a1";
name = Fore;
shapes = (
{
closed = 1;
nodes = (
(109,768,l),
(184,768,l),
(184,367,l),
(109,367,l)
);
},
{
closed = 1;
nodes = (
(109,201,l),
(184,201,l),
(184,-200,l),
(109,-200,l)
);
}
);
width = 292;
}
);
unicode = 166;
},
{
glyphname = paragraph;
layers = (
{
layerId = "299db4c4-aa3b-4344-9706-c7608b9a95a1";
name = Fore;
shapes = (
{
closed = 1;
nodes = (
(277,255,l),
(172,256,o),
(111,324.5,q),
(50,393,o),
(50,498,q),
(50,603,o),
(100.5,664.5,q),
(151,726,o),
(244,726,q),
(530,726,l),
(530,-4,l),
(530,-86,o),
(490,-132.5,q),
(450,-179,o),
(366,-179,q),
(308,-179,o),
(277,-172,q),
(277,-91,l),
(290,-92,o),
(337,-92,q),
(384,-92,o),
(408,-70.5,q),
(432,-49,o),
(432,-2,q),
(432,636,l),
(375,636,l),
(375,0,l),
(277,0,l)
);
}
);
width = 638;
}
);
unicode = 182;
},
{
glyphname = braceleft;
layers = (
{
layerId = "299db4c4-aa3b-4344-9706-c7608b9a95a1";
name = Fore;
shapes = (
{
closed = 1;
nodes = (
(60,358,l),
(140,369,o),
(140,427,q),
(140,451,o),
(131.5,500,q),
(123,549,o),
(123,578,q),
(123,654,o),
(168.5,704,q),
(214,754,o),
(319,754,q),
(347,676,l),
(294,676,o),
(264,645.5,q),
(234,615,o),
(234,570,q),
(234,552,o),
(243,507,q),
(252,462,o),
(252,455,q),
(252,364,o),
(182,332,q),
(252,300,o),
(252,209,q),
(252,202,o),
(243,157,q),
(234,112,o),
(234,94,q),
(234,49,o),
(264,18.5,q),
(294,-12,o),
(347,-12,q),
(319,-90,l),
(214,-90,o),
(168.5,-40,q),
(123,10,o),
(123,86,q),
(123,115,o),
(131.5,164,q),
(140,213,o),
(140,237,q),
(140,295,o),
(60,306,q)
);
}
);
width = 392;
}
);
unicode = 123;
},
{
glyphname = periodcentered;
layers = (
{
layerId = "299db4c4-aa3b-4344-9706-c7608b9a95a1";
name = Fore;
shapes = (
{
closed = 1;
nodes = (
(50,358,o),
(67,376.5,q),
(84,395,o),
(112,395,q),
(140,395,o),
(157,376.5,q),
(174,358,o),
(174,332,q),
(174,306,o),
(157,287.5,q),
(140,269,o),
(112,269,q),
(84,269,o),
(67,287.5,q),
(50,306,o),
(50,332,q)
);
}
);
width = 224;
}
);
unicode = 183;
},
{
glyphname = bullet;
layers = (
{
layerId = "299db4c4-aa3b-4344-9706-c7608b9a95a1";
name = Fore;
shapes = (
{
closed = 1;
nodes = (
(50,297,o),
(50,341.5,q),
(50,386,o),
(79,417,q),
(108,448,o),
(155,448,q),
(202,448,o),
(231.5,417,q),
(261,386,o),
(261,341.5,q),
(261,297,o),
(231.5,265.5,q),
(202,234,o),
(155,234,q),
(108,234,o),
(79,265.5,q)
);
}
);
width = 311;
}
);
unicode = 8226;
},
{
glyphname = comma;
layers = (
{
layerId = "299db4c4-aa3b-4344-9706-c7608b9a95a1";
name = Fore;
shapes = (
{
closed = 1;
nodes = (
(50,38,o),
(50,58,q),
(50,78,o),
(66.5,96.5,q),
(83,115,o),
(111,115,q),
(139,115,o),
(155,92,q),
(171,69,o),
(171,25,q),
(171,-19,o),
(139,-71.5,q),
(107,-124,o),
(54,-156,q),
(25,-119,l),
(69,-69,o),
(69,-22,q),
(69,-10,o),
(59.5,14,q)
);
}
);
width = 219;
}
);
unicode = 44;
},
{
glyphname = semicolon;
layers = (
{
layerId = "299db4c4-aa3b-4344-9706-c7608b9a95a1";
name = Fore;
shapes = (
{
closed = 1;
nodes = (
(50,418,o),
(67,436.5,q),
(84,455,o),
(112,455,q),
(140,455,o),
(157,436.5,q),
(174,418,o),
(174,392,q),
(174,366,o),
(157,347.5,q),
(140,329,o),
(112,329,q),
(84,329,o),
(67,347.5,q),
(50,366,o),
(50,392,q)
);
},
{
closed = 1;
nodes = (
(50,38,o),
(50,58,q),
(50,78,o),
(66.5,96.5,q),
(83,115,o),
(111,115,q),
(139,115,o),
(155,92,q),
(171,69,o),
(171,25,q),
(171,-19,o),
(139,-71.5,q),
(107,-124,o),
(54,-156,q),
(25,-119,l),
(69,-69,o),
(69,-22,q),
(69,-10,o),
(59.5,14,q)
);
}
);
width = 224;
}
);
unicode = 59;
},
{
glyphname = quoteleft;
layers = (
{
layerId = "299db4c4-aa3b-4344-9706-c7608b9a95a1";
name = Fore;
shapes = (
{
closed = 1;
nodes = (
(129,599,o),
(129,584,q),
(129,569,o),
(115,555,q),
(101,541,o),
(76.5,541,q),
(52,541,o),
(39,558,q),
(26,575,o),
(26,612,q),
(26,649,o),
(56,695,q),
(86,741,o),
(136,768,q),
(160,739,l),
(110,689,o),
(110,645,q),
(110,635,o),
(119.5,617,q)
);
}
);
width = 162;
}
);
unicode = 8216;
},
{
glyphname = quotedblleft;
layers = (
{
layerId = "299db4c4-aa3b-4344-9706-c7608b9a95a1";
name = Fore;
shapes = (
{
closed = 1;
nodes = (
(269,599,o),
(269,584,q),
(269,569,o),
(255,555,q),
(241,541,o),
(216.5,541,q),
(192,541,o),
(179,558,q),
(166,575,o),
(166,612,q),
(166,649,o),
(196,695,q),
(226,741,o),
(276,768,q),
(300,739,l),
(250,689,o),
(250,645,q),
(250,635,o),
(259.5,617,q)
);
},
{
closed = 1;
nodes = (
(129,599,o),
(129,584,q),
(129,569,o),
(115,555,q),
(101,541,o),
(76.5,541,q),
(52,541,o),
(39,558,q),
(26,575,o),
(26,612,q),
(26,649,o),
(56,695,q),
(86,741,o),
(136,768,q),
(160,739,l),
(110,689,o),
(110,645,q),
(110,635,o),
(119.5,617,q)
);
}
);
width = 302;
}
);
unicode = 8220;
},
{
glyphname = quotedblright;
layers = (
{
layerId = "299db4c4-aa3b-4344-9706-c7608b9a95a1";
name = Fore;
shapes = (
{
closed = 1;
nodes = (
(173,710,o),
(173,725,q),
(173,740,o),
(187,754,q),
(201,768,o),
(225.5,768,q),
(250,768,o),
(263,751,q),
(276,734,o),
(276,697,q),
(276,660,o),
(246,614,q),
(216,568,o),
(166,541,q),
(142,570,l),
(192,620,o),
(192,664,q),
(192,674,o),
(182.5,692,q)
);
},
{
closed = 1;
nodes = (
(33,710,o),
(33,725,q),
(33,740,o),
(47,754,q),
(61,768,o),
(85.5,768,q),
(110,768,o),
(123,751,q),
(136,734,o),
(136,697,q),
(136,660,o),
(106,614,q),
(76,568,o),
(26,541,q),
(2,570,l),
(52,620,o),
(52,664,q),
(52,674,o),
(42.5,692,q)
);
}
);
width = 302;
}
);
unicode = 8221;
},
{
glyphname = quotesinglbase;
layers = (
{
layerId = "299db4c4-aa3b-4344-9706-c7608b9a95a1";
name = Fore;
shapes = (
{
closed = 1;
nodes = (
(33,69,o),
(33,84,q),
(33,99,o),
(47,113,q),
(61,127,o),
(85.5,127,q),
(110,127,o),
(123,110,q),
(136,93,o),
(136,56,q),
(136,19,o),
(106,-27,q),
(76,-73,o),
(26,-100,q),
(2,-71,l),
(52,-21,o),
(52,23,q),
(52,33,o),
(42.5,51,q)
);
}
);
width = 162;
}
);
unicode = 8218;
},
{
glyphname = quotedbl;
layers = (
{
layerId = "299db4c4-aa3b-4344-9706-c7608b9a95a1";
name = Fore;
shapes = (
{
closed = 1;
nodes = (
(240,525,l),
(192,533,l),
(190,565,o),
(190,599,q),
(190,736,o),
(204,758,q),
(211,768,o),
(230,768,q),
(270,768,o),
(289,749,q)
);
},
{
closed = 1;
nodes = (
(100,525,l),
(52,533,l),
(50,565,o),
(50,599,q),
(50,736,o),
(64,758,q),
(71,768,o),
(90,768,q),
(130,768,o),
(149,749,q)
);
}
);
width = 382;
}
);
unicode = 34;
},
{
glyphname = quotedblbase;
layers = (
{
layerId = "299db4c4-aa3b-4344-9706-c7608b9a95a1";
name = Fore;
shapes = (
{
closed = 1;
nodes = (
(173,69,o),
(173,84,q),
(173,99,o),
(187,113,q),
(201,127,o),
(225.5,127,q),
(250,127,o),
(263,110,q),
(276,93,o),
(276,56,q),
(276,19,o),
(246,-27,q),
(216,-73,o),
(166,-100,q),
(142,-71,l),
(192,-21,o),
(192,23,q),
(192,33,o),
(182.5,51,q)
);
},
{
closed = 1;
nodes = (
(33,69,o),
(33,84,q),
(33,99,o),
(47,113,q),
(61,127,o),
(85.5,127,q),
(110,127,o),
(123,110,q),
(136,93,o),
(136,56,q),
(136,19,o),
(106,-27,q),
(76,-73,o),
(26,-100,q),
(2,-71,l),
(52,-21,o),
(52,23,q),
(52,33,o),
(42.5,51,q)
);
}
);
width = 302;
}
);
unicode = 8222;
},
{
glyphname = guilsinglleft;
layers = (
{
layerId = "299db4c4-aa3b-4344-9706-c7608b9a95a1";
name = Fore;
shapes = (
{
closed = 1;
nodes = (
(188,304,l),
(349,105,l),
(336,73,o),
(306,62,q),
(168,191,o),
(129.5,233.5,q),
(91,276,o),
(91,306.5146,q),
(91,337.0292,o),
(136.3741,384.048,q),
(149.8619,398.0247,o),
(306,544,q),
(336,533,o),
(349,501,q),
(188,309,l)
);
}
);
width = 389;
}
);
unicode = 8249;
},
{
glyphname = guilsinglright;
layers = (
{
layerId = "299db4c4-aa3b-4344-9706-c7608b9a95a1";
name = Fore;
shapes = (
{
closed = 1;
nodes = (
(201,309,l),
(40,501,l),
(53,533,o),
(83,544,q),
(241.7831,395.5519,o),
(256.7108,379.7742,q),
(298,336.1339,o),
(298,306.067,q),
(298,276,o),
(259.5,233.5,q),
(221,191,o),
(83,62,q),
(53,73,o),
(40,105,q),
(201,304,l)
);
}
);
width = 389;
}
);
unicode = 8250;
},
{
glyphname = guillemotleft;
layers = (
{
layerId = "299db4c4-aa3b-4344-9706-c7608b9a95a1";
name = Fore;
shapes = (
{
closed = 1;
nodes = (
(395,304,l),
(556,105,l),
(543,73,o),
(513,62,q),
(375,191,o),
(336.5,233.5,q),
(298,276,o),
(298,306.5146,q),
(298,337.0292,o),
(343.3741,384.048,q),
(356.8619,398.0247,o),
(513,544,q),
(543,533,o),
(556,501,q),
(395,309,l)
);
},
{
closed = 1;
nodes = (
(188,304,l),
(349,105,l),
(336,73,o),
(306,62,q),
(168,191,o),
(129.5,233.5,q),
(91,276,o),
(91,306.5146,q),
(91,337.0292,o),
(136.3741,384.048,q),
(149.8619,398.0247,o),
(306,544,q),
(336,533,o),
(349,501,q),
(188,309,l)
);
}
);
width = 596;
}
);
unicode = 171;
},
{
glyphname = guillemotright;
layers = (
{
layerId = "299db4c4-aa3b-4344-9706-c7608b9a95a1";
name = Fore;
shapes = (
{
closed = 1;
nodes = (
(408,309,l),
(247,501,l),
(260,533,o),
(290,544,q),
(448.7831,395.5519,o),
(463.7108,379.7742,q),
(505,336.1339,o),
(505,306.067,q),
(505,276,o),
(466.5,233.5,q),
(428,191,o),
(290,62,q),
(260,73,o),
(247,105,q),
(408,304,l)
);
},
{
closed = 1;
nodes = (
(201,309,l),
(40,501,l),
(53,533,o),
(83,544,q),
(241.7831,395.5519,o),
(256.7108,379.7742,q),
(298,336.1339,o),
(298,306.067,q),
(298,276,o),
(259.5,233.5,q),
(221,191,o),
(83,62,q),
(53,73,o),
(40,105,q),
(201,304,l)
);
}
);
width = 596;
}
);
unicode = 187;
},
{
glyphname = bracketleft;
layers = (
{
layerId = "299db4c4-aa3b-4344-9706-c7608b9a95a1";
name = Fore;
shapes = (
{
closed = 1;
nodes = (
(269,754,l),
(288,676,l),
(162,676,l),
(162,-12,l),
(288,-12,l),
(269,-90,l),
(60,-90,l),
(60,754,l)
);
}
);
width = 333;
}
);
unicode = 91;
},
{
glyphname = bracketright;
layers = (
{
layerId = "299db4c4-aa3b-4344-9706-c7608b9a95a1";
name = Fore;
shapes = (
{
closed = 1;
nodes = (
(64,-90,l),
(45,-12,l),
(171,-12,l),
(171,676,l),
(45,676,l),
(64,754,l),
(273,754,l),
(273,-90,l)
);
}
);
width = 333;
}
);
unicode = 93;
},
{
glyphname = currency;
layers = (
{
layerId = "299db4c4-aa3b-4344-9706-c7608b9a95a1";
name = Fore;
shapes = (
{
closed = 1;
nodes = (
(227,498,o),
(292.5,498,q),
(358,498,o),
(403,479,q),
(468,548,l),
(524,473,l),
(477,426,l),
(512,378,o),
(512,306.5,q),
(512,235,o),
(474,182,q),
(522,135,l),
(468,62,l),
(407,126,l),
(355,100,o),
(285.5,100,q),
(216,100,o),
(168,121,q),
(115,65,l),
(50,130,l),
(96,176,l),
(64,222,o),
(64,296,q),
(64,370,o),
(106,423,q),
(50,480,l),
(113,544,l),
(177,476,l)
);
},
{
closed = 1;
nodes = (
(166,172,o),
(289,172,q),
(347,172,o),
(378,208,q),
(409,244,o),
(409,305,q),
(409,426,o),
(293,426,q),
(229,426,o),
(197.5,390.5,q),
(166,355,o),
(166,295,q)
);
}
);
width = 574;
}
);
unicode = 164;
},
{
glyphname = cent;
layers = (
{
layerId = "299db4c4-aa3b-4344-9706-c7608b9a95a1";
name = Fore;
shapes = (
{
closed = 1;
nodes = (
(58,234,o),
(58,342.5,q),
(58,451,o),
(110.5,527.5,q),
(163,604,o),
(259,620,q),
(259,768,l),
(335,768,l),
(335,623,l),
(416,618,o),
(487,582,q),
(457,509,l),
(391,538,o),
(335,540,q),
(335,150,l),
(394,151,o),
(453,184,q),
(488,114,l),
(426,75,o),
(335,67,q),
(335,-102,l),
(259,-102,l),
(259,69,l),
(159,83,o),
(108.5,158.5,q)
);
},
{
closed = 1;
nodes = (
(172,203,o),
(259,163,q),
(259,525,l),
(172,484,o),
(172,354,q)
);
}
);
width = 523;
}
);
unicode = 162;
},
{
glyphname = Euro;
layers = (
{
layerId = "299db4c4-aa3b-4344-9706-c7608b9a95a1";
name = Fore;
shapes = (
{
closed = 1;
nodes = (
(6,354,l),
(6,420,l),
(56,420,l),
(72,548,o),
(137,619,q),
(202,690,o),
(318,690,q),
(402.4445,690,o),
(479.5,653.5,q),
(489,649,l),
(460,561,l),
(447,566,l),
(374.2,594,o),
(315.1,594,q),
(256,594,o),
(220.5,553.5,q),
(185,513,o),
(175,420,q),
(365,420,l),
(355,354,l)
);
},
{
closed = 1;
nodes = (
(177,234,l),
(190,148,o),
(225,116,q),
(260,84,o),
(323,84,q),
(386,84,o),
(460,121,q),
(489,30,l),
(471,23,o),
(460,18.5,q),
(449,14,o),
(430.5,8.5,q),
(412,3,o),
(393.5,-1.5,q),
(350.3333,-12,o),
(304,-12,q),
(200,-12,o),
(137.5,50,q),
(75,112,o),
(57,234,q),
(6,234,l),
(6,300,l),
(346,300,l),
(336,234,l)
);
}
);
width = 462;
}
);
unicode = 8364;
},
{
glyphname = yen;
layers = (
{
layerId = "299db4c4-aa3b-4344-9706-c7608b9a95a1";
name = Fore;
shapes = (
{
closed = 1;
nodes = (
(127,324,l),
(117,390,l),
(212,390,l),
(44,683,l),
(163,695,l),
(327,390,l),
(331,390,l),
(496,695,l),
(615,683,l),
(445,390,l),
(546,390,l),
(536,324,l)
);
},
{
closed = 1;
nodes = (
(386,214,l),
(386,0,l),
(272,0,l),
(272,214,l),
(146,214,l),
(136,280,l),
(527,280,l),
(517,214,l)
);
}
);
width = 659;
}
);
unicode = 165;
},
{
glyphname = sterling;
layers = (
{
layerId = "299db4c4-aa3b-4344-9706-c7608b9a95a1";
name = Fore;
shapes = (
{
closed = 1;
nodes = (
(283,323,l),
(271,206,o),
(236,116,q),
(237,113,l),
(273,113,o),
(325,95.5,q),
(377,78,o),
(414,78,q),
(451,78,o),
(479,99,q),
(520,61,l),
(475,-12,o),
(387,-12,q),
(347,-12,o),
(293,5,q),
(239,22,o),
(213.5,22,q),
(188,22,o),
(165,15.5,q),
(142,9,o),
(134,1,q),
(97,36,l),
(158,150,o),
(171,323,q),
(96,323,l),
(96,389,l),
(175,389,l),
(177,473,o),
(178,496,q),
(179,519,o),
(184.5,542,q),
(190,565,o),
(204,593,q),
(218,621,o),
(239.5,641.5,q),
(290.3658,690,o),
(380,690,q),
(428.1429,690,o),
(449.5714,684,q),
(471,678,o),
(481.5,675,q),
(492,672,o),
(493,672,q),
(477,599,l),
(421,606,o),
(402,606,q),
(383,606,o),
(365,600.5,q),
(347,595,o),
(335,588,q),
(323,581,o),
(314.5,566,q),
(306,551,o),
(301.5,539.5,q),
(297,528,o),
(294.5,506,q),
(292,484,o),
(291,470,q),
(290,456,o),
(289.5,429.5,q),
(289,403,o),
(288,389,q),
(436,389,l),
(426,323,l)
);
}
);
width = 525;
}
);
unicode = 163;
},
{
glyphname = section;
layers = (
{
layerId = "299db4c4-aa3b-4344-9706-c7608b9a95a1";
name = Fore;
shapes = (
{
closed = 1;
nodes = (
(79,664,o),
(143.5,716.5,q),
(208,769,o),
(304,769,q),
(366,769,o),
(422,749,q),
(478,729,o),
(508,709,q),
(468,622,l),
(465,623,o),
(450,631,q),
(435,639,o),
(426.5,642.5,q),
(401,653,l),
(352.4286,673,o),
(306.2143,673,q),
(260,673,o),
(227,654,q),
(194,635,o),
(194,603,q),
(194,571,o),
(215,552,q),
(236,533,o),
(261,524,q),
(286,515,o),
(331.5,503,q),
(377,491,o),
(405.5,479.5,q),
(434,468,o),
(463,448,q),
(522,407.3103,o),
(522,329.6552,q),
(522,252,o),
(474,198,q),
(522,157,o),
(522,88,q),
(522,-4,o),
(451,-53,q),
(380,-102,o),
(269,-102,q),
(158,-102,o),
(60,-44,q),
(95,49,l),
(197,-7,o),
(281,-7,q),
(337,-7,o),
(372.5,14,q),
(408,35,o),
(408,74,q),
(408,103.1667,o),
(386,121.5,q),
(363.1928,140.506,o),
(290,161,q),
(255,172,o),
(232.5,179.5,q),
(210,187,o),
(177.5,203.5,q),
(145,220,o),
(126,238.5,q),
(79,284.2632,o),
(79,352.1316,q),
(79,420,o),
(128,471,q),
(79,513,o),
(79,580,q)
);
},
{
closed = 1;
nodes = (
(408,269,o),
(408,309.5,q),
(408,350,o),
(385,366.5,q),
(362,383,o),
(300,399.5,q),
(238,416,o),
(207,428,q),
(194,405,o),
(194,365.5,q),
(194,326,o),
(224,305.5,q),
(254,285,o),
(336,260,q),
(392,242,l)
);
}
);
width = 572;
}
);
unicode = 167;
},
{
glyphname = copyright;
layers = (
{
layerId = "299db4c4-aa3b-4344-9706-c7608b9a95a1";
name = Fore;
shapes = (
{
closed = 1;
nodes = (
(60,518,o),
(166,625.5,q),
(272,733,o),
(427.5,733,q),
(583,733,o),
(688.5,625,q),
(794,517,o),
(794,359.5,q),
(794,202,o),
(688.5,94.5,q),
(583,-13,o),
(427.5,-13,q),
(272,-13,o),
(166,94.5,q),
(60,202,o),
(60,360,q)
);
},
{
closed = 1;
nodes = (
(161,479,o),
(161,359.5,q),
(161,240,o),
(238,158.5,q),
(315,77,o),
(427.5,77,q),
(540,77,o),
(616.5,158.5,q),
(693,240,o),
(693,359.5,q),
(693,479,o),
(616.5,561,q),
(540,643,o),
(427.5,643,q),
(315,643,o),
(238,561,q)
);
},
{
closed = 1;
nodes = (
(534,444,l),
(474,464,o),
(434.5,464,q),
(395,464,o),
(374,440,q),
(353,416,o),
(353,356.5,q),
(353,297,o),
(374,275.5,q),
(395,254,o),
(438,254,q),
(481,254,o),
(534,277,q),
(562,189,l),
(491,164,o),
(414.5,164,q),
(338,164,o),
(295,214,q),
(252,264,o),
(252,355.5,q),
(252,447,o),
(297,500.5,q),
(342,554,o),
(430,554,q),
(478,554,o),
(562,528,q)
);
}
);
width = 854;
}
);
unicode = 169;
},
{
glyphname = registered;
layers = (
{
layerId = "299db4c4-aa3b-4344-9706-c7608b9a95a1";
name = Fore;
shapes = (
{
closed = 1;
nodes = (
(30,395,o),
(30,495.5,q),
(30,596,o),
(97.5,664,q),
(165,732,o),
(264,732,q),
(363,732,o),
(430,664,q),
(497,596,o),
(497,495.5,q),
(497,395,o),
(430,327,q),
(363,259,o),
(264,259,q),
(165,259,o),
(97.5,327,q)
);
},
{
closed = 1;
nodes = (
(100,569,o),
(100,495.5,q),
(100,422,o),
(147.5,372,q),
(195,322,o),
(264,322,q),
(333,322,o),
(380,372.5,q),
(427,423,o),
(427,496,q),
(427,569,o),
(380,619,q),
(333,669,o),
(264,669,q),
(195,669,o),
(147.5,619,q)
);
},
{
closed = 1;
nodes = (
(188,382,l),
(188,611,l),
(218,616,o),
(263,616,q),
(308,616,o),
(327.5,595,q),
(347,574,o),
(347,537.5,q),
(347,501,o),
(317,479,q),
(318,478,o),
(322.5,465.5,q),
(327,453,o),
(330,446,q),
(338,431,o),
(365,431,q),
(354,381,l),
(335,381,l),
(299,381,o),
(282,416,q),
(260,465,l),
(245,465,l),
(245,382,l)
);
},
{
closed = 1;
nodes = (
(279,514,l),
(289,521,o),
(289,540,q),
(289,567,o),
(264,567,q),
(245,567,l),
(245,514,l)
);
}
);
width = 527;
}
);
unicode = 174;
},
{
glyphname = asciicircum;
layers = (
{
layerId = "299db4c4-aa3b-4344-9706-c7608b9a95a1";
name = Fore;
shapes = (
{
closed = 1;
nodes = (
(309,720,l),
(493,348,l),
(406,324,l),
(258,608,l),
(112,324,l),
(25,348,l),
(207,720,l)
);
}
);
width = 518;
}
);
unicode = 94;
},
{
glyphname = underscore;
layers = (
{
layerId = "299db4c4-aa3b-4344-9706-c7608b9a95a1";
name = Fore;
shapes = (
{
closed = 1;
nodes = (
(437,-122,l),
(426,-186,l),
(15,-186,l),
(15,-122,l)
);
}
);
width = 452;
}
);
unicode = 95;
},
{
glyphname = asciitilde;
layers = (
{
layerId = "299db4c4-aa3b-4344-9706-c7608b9a95a1";
name = Fore;
shapes = (
{
closed = 1;
nodes = (
(75,274,l),
(144,363,o),
(218,363,q),
(252,363,o),
(337,341,q),
(422,319,o),
(453,319,q),
(484,319,o),
(538,356,q),
(578,330,l),
(509,241,o),
(439,241,q),
(410,241,o),
(321.5,263,q),
(233,285,o),
(200.5,285,q),
(168,285,o),
(115,248,q)
);
}
);
width = 653;
}
);
unicode = 126;
},
{
glyphname = ae;
layers = (
{
layerId = "299db4c4-aa3b-4344-9706-c7608b9a95a1";
name = Fore;
shapes = (
{
closed = 1;
nodes = (
(493,-12,o),
(430,100,q),
(368,-12,o),
(251,-12,q),
(149,-12,o),
(98.5,65,q),
(48,142,o),
(48,263.5,q),
(48,385,o),
(117,465.5,q),
(186,546,o),
(302,546,q),
(349,546,o),
(409.5,531,q),
(470,516,o),
(503,500,q),
(568,546,o),
(649,546,q),
(730,546,o),
(780.5,502.5,q),
(831,459,o),
(831,396,q),
(831,313,o),
(752,260.5,q),
(673,208,o),
(499,208,q),
(499,162,o),
(537.5,117,q),
(576,72,o),
(651.5,72,q),
(727,72,o),
(797,114,q),
(834,46,l),
(817,30,o),
(762,9,q),
(707,-12,o),
(644,-12,q)
);
},
{
closed = 1;
nodes = (
(734,417,o),
(711.5,439.5,q),
(689,462,o),
(648,462,q),
(582,462,o),
(539.5,412.5,q),
(497,363,o),
(496,283,q),
(734,283,o),
(734,387,q)
);
},
{
closed = 1;
nodes = (
(221,72,o),
(277,72,q),
(333,72,o),
(364.5,111.5,q),
(396,151,o),
(396,209,q),
(396,449,l),
(357,462,o),
(307,462,q),
(231,462,o),
(196.5,407,q),
(162,352,o),
(162,255,q),
(162,158,o),
(191.5,115,q)
);
}
);
width = 877;
}
);
unicode = 230;
},
{
glyphname = macron;
layers = (
{
layerId = "299db4c4-aa3b-4344-9706-c7608b9a95a1";
name = Fore;
shapes = (
{
closed = 1;
nodes = (
(10,728,l),
(347,728,l),
(333,644,l),
(10,644,l)
);
}
);
width = 357;
}
);
unicode = 175;
},
{
glyphname = hbar;
layers = (
{
layerId = "299db4c4-aa3b-4344-9706-c7608b9a95a1";
name = Fore;
shapes = (
{
closed = 1;
nodes = (
(100,0,l),
(100,618,l),
(25,618,l),
(25,668,l),
(100,678,l),
(100,754,l),
(208,768,l),
(208,678,l),
(333,678,l),
(321,618,l),
(208,618,l),
(208,499,l),
(287,546,o),
(363,546,q),
(545,546,o),
(545,350,q),
(545,0,l),
(437,0,l),
(437,330,l),
(437,462,o),
(332,462,q),
(292,462,o),
(256,447,q),
(220,432,o),
(208,419,q),
(208,0,l)
);
}
);
width = 625;
}
);
unicode = 295;
},
{
glyphname = dotlessi;
layers = (
{
layerId = "299db4c4-aa3b-4344-9706-c7608b9a95a1";
name = Fore;
shapes = (
{
closed = 1;
nodes = (
(100,527,l),
(208,541,l),
(208,0,l),
(100,0,l)
);
}
);
width = 308;
}
);
unicode = 305;
},
{
glyphname = itilde;
layers = (
{
layerId = "299db4c4-aa3b-4344-9706-c7608b9a95a1";
name = Fore;
shapes = (
{
closed = 1;
nodes = (
(-27,664,l),
(-16,695,o),
(15.5,719,q),
(47,743,o),
(83.5,743,q),
(120,743,o),
(161,720.5,q),
(202,698,o),
(222,698,q),
(242,698,o),
(259,707,q),
(276,716,o),
(283,726,q),
(323,700,l),
(312,669,o),
(280.5,645,q),
(249,621,o),
(212.5,621,q),
(176,621,o),
(135,643,q),
(94,665,o),
(74,665,q),
(54,665,o),
(37,656.5,q),
(20,648,o),
(13,638,q)
);
},
{
closed = 1;
nodes = (
(100,527,l),
(208,541,l),
(208,0,l),
(100,0,l)
);
}
);
width = 308;
}
);
unicode = 297;
},
{
glyphname = ij;
layers = (
{
layerId = "299db4c4-aa3b-4344-9706-c7608b9a95a1";
name = Fore;
shapes = (
{
closed = 1;
nodes = (
(430,633,o),
(414,648.5,q),
(398,664,o),
(398,694,q),
(398,724,o),
(414.5,742,q),
(431,760,o),
(460,760,q),
(489,760,o),
(505.5,744.5,q),
(522,729,o),
(522,698,q),
(522,633,o),
(453,633,q)
);
},
{
closed = 1;
nodes = (
(182,760,o),
(199,744.5,q),
(216,729,o),
(216,698,q),
(216,633,o),
(148,633,q),
(124,633,o),
(108,648.5,q),
(92,664,o),
(92,694,q),
(92,760,o),
(157,760,q)
);
},
{
closed = 1;
nodes = (
(408,527,l),
(516,541,l),
(516,-45,l),
(516,-127,o),
(473.5,-173.5,q),
(431,-220,o),
(342,-220,q),
(300,-220,o),
(269,-213,q),
(276,-132,l),
(289,-133,o),
(324.5,-133,q),
(360,-133,o),
(384,-111.5,q),
(408,-90,o),
(408,-43,q)
);
},
{
closed = 1;
nodes = (
(100,527,l),
(208,541,l),
(208,0,l),
(100,0,l)
);
}
);
width = 616;
}
);
unicode = 307;
},
{
glyphname = jcircumflex;
layers = (
{
layerId = "299db4c4-aa3b-4344-9706-c7608b9a95a1";
name = Fore;
shapes = (
{
closed = 1;
nodes = (
(40,614,l),
(8,654,l),
(118,778,o),
(154,778,q),
(190,778,o),
(300,654,q),
(269,614,l),
(154,691,l)
);
},
{
closed = 1;
nodes = (
(-32,-132,l),
(-19,-133,o),
(16.5,-133,q),
(52,-133,o),
(76,-111.5,q),
(100,-90,o),
(100,-43,q),
(100,527,l),
(208,541,l),
(208,-45,l),
(208,-127,o),
(165.5,-173.5,q),
(123,-220,o),
(34,-220,q),
(-7,-220,o),
(-39,-213,q)
);
}
);
width = 308;
}
);
unicode = 309;
},
{
glyphname = kcommaaccent;
layers = (
{
layerId = "299db4c4-aa3b-4344-9706-c7608b9a95a1";
name = Fore;
shapes = (
{
closed = 1;
nodes = (
(100,0,l),
(100,754,l),
(208,768,l),
(208,312,l),
(437,540,l),
(567,528,l),
(340,315,l),
(456,151,l),
(511,74,o),
(570,72,q),
(570,-5,l),
(562,-7,o),
(537,-7,q),
(436,-7,o),
(370,90,q),
(263,250,l),
(208,199,l),
(208,0,l)
);
},
{
closed = 1;
nodes = (
(273,-89,o),
(273,-75,q),
(273,-61,o),
(287,-47,q),
(301,-33,o),
(325.5,-33,q),
(350,-33,o),
(363,-50,q),
(376,-67,o),
(376,-100,q),
(376,-133,o),
(349,-170.5,q),
(322,-208,o),
(276,-230,q),
(252,-201,l),
(292,-157,o),
(292,-126,q),
(292,-118,o),
(282.5,-103.5,q)
);
}
);
width = 585;
}
);
unicode = 311;
},
{
glyphname = kgreenlandic;
layers = (
{
layerId = "299db4c4-aa3b-4344-9706-c7608b9a95a1";
name = Fore;
shapes = (
{
closed = 1;
nodes = (
(100,0,l),
(100,527,l),
(208,541,l),
(208,322,l),
(424,534,l),
(570,534,l),
(340,315,l),
(456,151,l),
(511,74,o),
(570,72,q),
(570,-5,l),
(562,-7,o),
(537,-7,q),
(436,-7,o),
(370,90,q),
(263,250,l),
(208,199,l),
(208,0,l)
);
}
);
width = 585;
}
);
unicode = 312;
},
{
glyphname = ldot;
layers = (
{
layerId = "299db4c4-aa3b-4344-9706-c7608b9a95a1";
name = Fore;
shapes = (
{
closed = 1;
nodes = (
(208,768,l),
(208,165,l),
(208,72,o),
(261,72,q),
(274,72,o),
(309,79,q),
(322,5,l),
(321,5,o),
(313.5,2,q),
(306,-1,o),
(296.5,-4,q),
(271.1667,-12,o),
(235,-12,q),
(166,-12,o),
(133,34.5,q),
(100,81,o),
(100,163,q),
(100,754,l)
);
},
{
closed = 1;
nodes = (
(374,492,o),
(391,476.5,q),
(408,461,o),
(408,430,q),
(408,365,o),
(340,365,q),
(316,365,o),
(300,380.5,q),
(284,396,o),
(284,426,q),
(284,492,o),
(349,492,q)
);
}
);
width = 378;
}
);
unicode = 320;
},
{
glyphname = lslash;
layers = (
{
layerId = "299db4c4-aa3b-4344-9706-c7608b9a95a1";
name = Fore;
shapes = (
{
closed = 1;
nodes = (
(208,768,l),
(208,366,l),
(298,413,l),
(317,353,l),
(208,295,l),
(208,165,l),
(208,72,o),
(261,72,q),
(274,72,o),
(309,79,q),
(322,5,l),
(321,5,o),
(313.5,2,q),
(306,-1,o),
(296.5,-4,q),
(271.1667,-12,o),
(235,-12,q),
(166,-12,o),
(133,34.5,q),
(100,81,o),
(100,163,q),
(100,238,l),
(46,210,l),
(17,266,l),
(100,309,l),
(100,754,l)
);
}
);
width = 338;
}
);
unicode = 322;
},
{
glyphname = nacute;
layers = (
{
layerId = "299db4c4-aa3b-4344-9706-c7608b9a95a1";
name = Fore;
shapes = (
{
closed = 1;
nodes = (
(257,614,l),
(233,656,l),
(264,687,o),
(329.5,732.5,q),
(395,778,o),
(413,778,q),
(431,778,o),
(450.5,745,q),
(470,712,o),
(470,692,q)
);
},
{
closed = 1;
nodes = (
(100,454,o),
(82,526,q),
(166,537,l),
(185,487,l),
(269,546,o),
(357,546,q),
(539,546,o),
(539,350,q),
(539,0,l),
(431,0,l),
(431,330,l),
(431,462,o),
(326,462,q),
(265,462,o),
(208,419,q),
(208,0,l),
(100,0,l),
(100,364,l)
);
}
);
width = 619;
}
);
unicode = 324;
},
{
glyphname = oe;
layers = (
{
layerId = "299db4c4-aa3b-4344-9706-c7608b9a95a1";
name = Fore;
shapes = (
{
closed = 1;
nodes = (
(867,46,l),
(850,30,o),
(795,9,q),
(740,-12,o),
(677,-12,q),
(544,-12,o),
(479,76,q),
(413,-12,o),
(274,-12,q),
(176,-12,o),
(112,57.5,q),
(48,127,o),
(48,260,q),
(48,393,o),
(113.5,469.5,q),
(179,546,o),
(303,546,q),
(427,546,o),
(489,455,q),
(526,500,o),
(577,523,q),
(628,546,o),
(679,546,q),
(763,546,o),
(813.5,502.5,q),
(864,459,o),
(864,396,q),
(864,313,o),
(785,260.5,q),
(706,208,o),
(532,208,q),
(532,162,o),
(570.5,117,q),
(609,72,o),
(684.5,72,q),
(760,72,o),
(830,114,q)
);
},
{
closed = 1;
nodes = (
(767,417,o),
(744.5,439.5,q),
(722,462,o),
(681,462,q),
(615,462,o),
(572.5,412.5,q),
(530,363,o),
(529,283,q),
(767,283,o),
(767,387,q)
);
},
{
closed = 1;
nodes = (
(229,72,o),
(296,72,q),
(363,72,o),
(392.5,124,q),
(422,176,o),
(422,276.5,q),
(422,377,o),
(388.5,419.5,q),
(355,462,o),
(296,462,q),
(221,462,o),
(191.5,411,q),
(162,360,o),
(162,259.5,q),
(162,159,o),
(195.5,115.5,q)
);
}
);
width = 910;
}
);
unicode = 339;
},
{
glyphname = oslash;
layers = (
{
layerId = "299db4c4-aa3b-4344-9706-c7608b9a95a1";
name = Fore;
shapes = (
{
closed = 1;
nodes = (
(388,546,o),
(442,505,q),
(473,546,l),
(536,534,l),
(483,463,l),
(536,390,o),
(536,266.5,q),
(536,143,o),
(470.5,65.5,q),
(405,-12,o),
(274,-12,q),
(205,-12,o),
(153,22,q),
(137,0,l),
(68,0,l),
(111,58,l),
(48,131,o),
(48,262,q),
(48,393,o),
(113.5,469.5,q),
(179,546,o),
(310,546,q)
);
},
{
closed = 1;
nodes = (
(156,363,o),
(156,274.5,q),
(156,186,o),
(174,143,q),
(387,431,l),
(355,468,o),
(296,468,q),
(218,468,o),
(187,415.5,q)
);
},
{
closed = 1;
nodes = (
(366,66,o),
(397,119.5,q),
(428,173,o),
(428,271,q),
(428,327,o),
(416,373,q),
(207,93,l),
(237,66,o),
(289,66,q)
);
}
);
width = 584;
}
);
unicode = 248;
},
{
glyphname = rcaron;
layers = (
{
layerId = "299db4c4-aa3b-4344-9706-c7608b9a95a1";
name = Fore;
shapes = (
{
closed = 1;
nodes = (
(258,703,l),
(373,780,l),
(404,740,l),
(294,616,o),
(258,616,q),
(222,616,o),
(112,740,q),
(144,780,l)
);
},
{
closed = 1;
nodes = (
(100,454,o),
(82,526,q),
(166,537,l),
(191,472,l),
(254,546,o),
(333,546,q),
(386,546,o),
(415.5,521,q),
(445,496,o),
(445,450,q),
(445,404,o),
(430,369,q),
(344,380,l),
(344,425,o),
(335.5,443.5,q),
(327,462,o),
(300.5,462,q),
(274,462,o),
(248.5,441,q),
(223,420,o),
(208,394,q),
(208,0,l),
(100,0,l),
(100,364,l)
);
}
);
width = 451;
}
);
unicode = 345;
},
{
glyphname = rcommaaccent;
layers = (
{
layerId = "299db4c4-aa3b-4344-9706-c7608b9a95a1";
name = Fore;
shapes = (
{
closed = 1;
nodes = (
(100,454,o),
(82,526,q),
(166,537,l),
(191,472,l),
(254,546,o),
(333,546,q),
(386,546,o),
(415.5,521,q),
(445,496,o),
(445,450,q),
(445,404,o),
(430,369,q),
(344,380,l),
(344,425,o),
(335.5,443.5,q),
(327,462,o),
(300.5,462,q),
(274,462,o),
(248.5,441,q),
(223,420,o),
(208,394,q),
(208,0,l),
(100,0,l),
(100,364,l)
);
},
{
closed = 1;
nodes = (
(103,-89,o),
(103,-75,q),
(103,-61,o),
(117,-47,q),
(131,-33,o),
(155.5,-33,q),
(180,-33,o),
(193,-50,q),
(206,-67,o),
(206,-100,q),
(206,-133,o),
(179,-170.5,q),
(152,-208,o),
(106,-230,q),
(82,-201,l),
(122,-157,o),
(122,-126,q),
(122,-118,o),
(112.5,-103.5,q)
);
}
);
width = 451;
}
);
unicode = 343;
},
{
glyphname = eth;
layers = (
{
layerId = "299db4c4-aa3b-4344-9706-c7608b9a95a1";
name = Fore;
shapes = (
{
closed = 1;
nodes = (
(243,651,l),
(188,682,o),
(113,682,q),
(121,767,l),
(236,767,o),
(327,702,q),
(436,769,l),
(468,699,l),
(386,649,l),
(504,516,o),
(504,277,q),
(504,137,o),
(443,62.5,q),
(382,-12,o),
(275,-12,q),
(168,-12,o),
(112.5,61.5,q),
(57,135,o),
(57,236.5,q),
(57,338,o),
(115.5,397,q),
(174,456,o),
(247,456,q),
(320,456,o),
(386,417,q),
(370,530,o),
(307,600,q),
(207,539,l),
(165,604,l)
);
},
{
closed = 1;
nodes = (
(225,72,o),
(268,72,q),
(311,72,o),
(336,89.5,q),
(361,107,o),
(373,139,q),
(393,192.3333,o),
(393,275,q),
(393,298,o),
(391,334,q),
(346,372,o),
(274,372,q),
(224,372,o),
(194.5,338.5,q),
(165,305,o),
(165,232,q),
(165,159,o),
(195,115.5,q)
);
}
);
width = 554;
}
);
unicode = 240;
},
{
glyphname = Itilde;
layers = (
{
layerId = "299db4c4-aa3b-4344-9706-c7608b9a95a1";
name = Fore;
shapes = (
{
closed = 1;
nodes = (
(-11,830,l),
(0,861,o),
(31.5,885,q),
(63,909,o),
(99,909,q),
(107,909,o),
(110,908,q),
(113,909,o),
(119,909,q),
(155,909,o),
(194.5,887.5,q),
(234,866,o),
(249,864,q),
(284,868,o),
(299,892,q),
(311,883,l),
(315,886,o),
(319,892,q),
(359,866,l),
(348,835,o),
(316.5,811,q),
(285,787,o),
(249,787,q),
(229,787,l),
(194,787,o),
(154,807.5,q),
(114,828,o),
(99,830,q),
(64,826,o),
(49,804,q),
(36,812,l),
(29,804,l)
);
},
{
closed = 1;
nodes = (
(108,720,l),
(222,720,l),
(222,0,l),
(108,0,l)
);
}
);
width = 330;
}
);
unicode = 296;
},
{
glyphname = IJ;
layers = (
{
layerId = "299db4c4-aa3b-4344-9706-c7608b9a95a1";
name = Fore;
shapes = (
{
closed = 1;
nodes = (
(303,-126,o),
(348,-126,q),
(393,-126,o),
(415.5,-92,q),
(438,-58,o),
(438,-3,q),
(438,720,l),
(552,720,l),
(552,-3,l),
(552,-116,o),
(503,-169,q),
(454,-222,o),
(352,-222,q),
(319,-222,o),
(289,-213,q),
(259,-204,o),
(245,-194.5,q),
(231,-185,l),
(269,-105,l)
);
},
{
closed = 1;
nodes = (
(108,720,l),
(222,720,l),
(222,0,l),
(108,0,l)
);
}
);
width = 660;
}
);
unicode = 306;
},
{
glyphname = Jcircumflex;
layers = (
{
layerId = "299db4c4-aa3b-4344-9706-c7608b9a95a1";
name = Fore;
shapes = (
{
closed = 1;
nodes = (
(65,778,l),
(33,818,l),
(143,942,o),
(179,942,q),
(215,942,o),
(325,818,q),
(294,778,l),
(179,855,l)
);
},
{
closed = 1;
nodes = (
(-15,-126,o),
(30,-126,q),
(75,-126,o),
(97.5,-92,q),
(120,-58,o),
(120,-3,q),
(120,720,l),
(234,720,l),
(234,-3,l),
(234,-116,o),
(185,-169,q),
(136,-222,o),
(34,-222,q),
(1,-222,o),
(-29,-213,q),
(-59,-204,o),
(-73,-194.5,q),
(-87,-185,l),
(-49,-105,l)
);
}
);
width = 342;
}
);
unicode = 308;
},
{
glyphname = Lslash;
layers = (
{
layerId = "299db4c4-aa3b-4344-9706-c7608b9a95a1";
name = Fore;
shapes = (
{
closed = 1;
nodes = (
(108,0,l),
(108,245,l),
(11,194,l),
(-18,250,l),
(108,317,l),
(108,720,l),
(222,720,l),
(222,377,l),
(342,441,l),
(362,380,l),
(222,306,l),
(222,96,l),
(495,96,l),
(481,0,l)
);
}
);
width = 525;
}
);
unicode = 321;
},
{
glyphname = Ldotaccent;
layers = (
{
layerId = "299db4c4-aa3b-4344-9706-c7608b9a95a1";
name = Fore;
shapes = (
{
closed = 1;
nodes = (
(108,720,l),
(222,720,l),
(222,96,l),
(495,96,l),
(481,0,l),
(108,0,l)
);
},
{
closed = 1;
nodes = (
(343,428,o),
(360,446.5,q),
(377,465,o),
(405,465,q),
(433,465,o),
(450,446.5,q),
(467,428,o),
(467,402,q),
(467,376,o),
(450,357.5,q),
(433,339,o),
(405,339,q),
(377,339,o),
(360,357.5,q),
(343,376,o),
(343,402,q)
);
}
);
width = 525;
}
);
unicode = 319;
},
{
glyphname = Nacute;
layers = (
{
layerId = "299db4c4-aa3b-4344-9706-c7608b9a95a1";
name = Fore;
shapes = (
{
closed = 1;
nodes = (
(316,778,l),
(292,820,l),
(323,851,o),
(388.5,896.5,q),
(454,942,o),
(472,942,q),
(490,942,o),
(509.5,909,q),
(529,876,o),
(529,856,q)
);
},
{
closed = 1;
nodes = (
(573,-9,l),
(552,-9,o),
(536,16,q),
(207,545,l),
(222,0,l),
(108,0,l),
(108,720,l),
(186,729,l),
(208,729,o),
(224,704,q),
(555,176,l),
(537,720,l),
(651,720,l),
(651,0,l)
);
}
);
width = 759;
}
);
unicode = 323;
},
{
glyphname = OE;
layers = (
{
layerId = "299db4c4-aa3b-4344-9706-c7608b9a95a1";
name = Fore;
shapes = (
{
closed = 1;
nodes = (
(497,0,l),
(436,-12,o),
(354,-12,q),
(227,-12,o),
(143.5,80.5,q),
(60,173,o),
(60,350.5,q),
(60,528,o),
(145,630,q),
(230,732,o),
(400,732,q),
(444,732,o),
(495,720,q),
(912,720,l),
(912,627,l),
(609,627,l),
(609,409,l),
(872,409,l),
(872,322,l),
(609,322,l),
(609,93,l),
(932,93,l),
(918,0,l)
);
},
{
closed = 1;
nodes = (
(283,84,o),
(365.5,84,q),
(448,84,o),
(495,102,q),
(495,611,l),
(449,636,o),
(386.5,636,q),
(324,636,o),
(284,616,q),
(244,596,o),
(222,557,q),
(181,484.3182,o),
(181,345.6591,q),
(181,207,o),
(232,145.5,q)
);
}
);
width = 986;
}
);
unicode = 338;
},
{
glyphname = Oslash;
layers = (
{
layerId = "299db4c4-aa3b-4344-9706-c7608b9a95a1";
name = Fore;
shapes = (
{
closed = 1;
nodes = (
(496,732,o),
(567,680,q),
(600,726,l),
(678,714,l),
(618,631,l),
(694,536,o),
(694,365,q),
(694,194,o),
(609,91,q),
(524,-12,o),
(354,-12,q),
(261,-12,o),
(191,37,q),
(164,0,l),
(80,0,l),
(140,84,l),
(60,182,o),
(60,355,q),
(60,528,o),
(145,630,q),
(230,732,o),
(400,732,q)
);
},
{
closed = 1;
nodes = (
(175,493,o),
(175,368,q),
(175,243,o),
(206,176,q),
(510,600,l),
(463,642,o),
(382,642,q),
(267,642,o),
(221,567.5,q)
);
},
{
closed = 1;
nodes = (
(293,78,o),
(363,78,q),
(433,78,o),
(475.5,99,q),
(518,120,o),
(540.5,160,q),
(583,235.5556,o),
(583,355.2778,q),
(583,475,o),
(553,540,q),
(249,118,l)
);
}
);
width = 755;
}
);
unicode = 216;
},
{
glyphname = Racute;
layers = (
{
layerId = "299db4c4-aa3b-4344-9706-c7608b9a95a1";
name = Fore;
shapes = (
{
closed = 1;
nodes = (
(214,778,l),
(190,820,l),
(221,851,o),
(286.5,896.5,q),
(352,942,o),
(370,942,q),
(388,942,o),
(407.5,909,q),
(427,876,o),
(427,856,q)
);
},
{
closed = 1;
nodes = (
(108,714,l),
(186,726,o),
(347,726,q),
(455,726,o),
(513,664.5,q),
(571,603,o),
(571,507,q),
(571,441,o),
(539,390.5,q),
(507,340,o),
(447,314,q),
(514,158,l),
(532,117,o),
(559,94.5,q),
(586,72,o),
(617,72,q),
(601,-6,l),
(577,-6,l),
(531,-6,o),
(486.5,18.5,q),
(442,43,o),
(420,92,q),
(330,291,l),
(322,290,o),
(304,290,q),
(222,290,l),
(222,0,l),
(108,0,l)
);
},
{
closed = 1;
nodes = (
(390,378,l),
(404.5,383.4375,o),
(420.75,401.7188,q),
(451,435.75,o),
(451,500.375,q),
(451,636,o),
(323,636,q),
(279,636,o),
(222,631,q),
(222,378,l)
);
}
);
width = 662;
}
);
unicode = 340;
},
{
glyphname = Rcaron;
layers = (
{
layerId = "299db4c4-aa3b-4344-9706-c7608b9a95a1";
name = Fore;
shapes = (
{
closed = 1;
nodes = (
(423,943,l),
(455,903,l),
(345,779,o),
(309,779,q),
(273,779,o),
(163,903,q),
(194,943,l),
(309,866,l)
);
},
{
closed = 1;
nodes = (
(108,714,l),
(186,726,o),
(347,726,q),
(455,726,o),
(513,664.5,q),
(571,603,o),
(571,507,q),
(571,441,o),
(539,390.5,q),
(507,340,o),
(447,314,q),
(514,158,l),
(532,117,o),
(559,94.5,q),
(586,72,o),
(617,72,q),
(601,-6,l),
(577,-6,l),
(531,-6,o),
(486.5,18.5,q),
(442,43,o),
(420,92,q),
(330,291,l),
(322,290,o),
(304,290,q),
(222,290,l),
(222,0,l),
(108,0,l)
);
},
{
closed = 1;
nodes = (
(390,378,l),
(404.5,383.4375,o),
(420.75,401.7188,q),
(451,435.75,o),
(451,500.375,q),
(451,636,o),
(323,636,q),
(279,636,o),
(222,631,q),
(222,378,l)
);
}
);
width = 662;
}
);
unicode = 344;
},
{
glyphname = Rcommaaccent;
layers = (
{
layerId = "299db4c4-aa3b-4344-9706-c7608b9a95a1";
name = Fore;
shapes = (
{
closed = 1;
nodes = (
(108,714,l),
(186,726,o),
(347,726,q),
(455,726,o),
(513,664.5,q),
(571,603,o),
(571,507,q),
(571,441,o),
(539,390.5,q),
(507,340,o),
(447,314,q),
(514,158,l),
(532,117,o),
(559,94.5,q),
(586,72,o),
(617,72,q),
(601,-6,l),
(577,-6,l),
(531,-6,o),
(486.5,18.5,q),
(442,43,o),
(420,92,q),
(330,291,l),
(322,290,o),
(304,290,q),
(222,290,l),
(222,0,l),
(108,0,l)
);
},
{
closed = 1;
nodes = (
(390,378,l),
(404.5,383.4375,o),
(420.75,401.7188,q),
(451,435.75,o),
(451,500.375,q),
(451,636,o),
(323,636,q),
(279,636,o),
(222,631,q),
(222,378,l)
);
},
{
closed = 1;
nodes = (
(287,-89,o),
(287,-75,q),
(287,-61,o),
(301,-47,q),
(315,-33,o),
(339.5,-33,q),
(364,-33,o),
(377,-50,q),
(390,-67,o),
(390,-100,q),
(390,-133,o),
(363,-170.5,q),
(336,-208,o),
(290,-230,q),
(266,-201,l),
(306,-157,o),
(306,-126,q),
(306,-118,o),
(296.5,-103.5,q)
);
}
);
width = 662;
}
);
unicode = 342;
},
{
glyphname = uni00AD;
layers = (
{
layerId = "299db4c4-aa3b-4344-9706-c7608b9a95a1";
name = Fore;
shapes = (
{
closed = 1;
nodes = (
(391,339,l),
(380,266,l),
(64,266,l),
(64,339,l)
);
}
);
width = 455;
}
);
unicode = 173;
},
{
glyphname = dotaccentcmb;
layers = (
{
layerId = "299db4c4-aa3b-4344-9706-c7608b9a95a1";
name = Fore;
shapes = (
{
closed = 1;
nodes = (
(100,742,o),
(117,726.5,q),
(134,711,o),
(134,680,q),
(134,615,o),
(66,615,q),
(42,615,o),
(26,630.5,q),
(10,646,o),
(10,676,q),
(10,742,o),
(75,742,q)
);
}
);
width = 144;
}
);
unicode = 775;
},
{
glyphname = commaaccent;
layers = (
{
layerId = "299db4c4-aa3b-4344-9706-c7608b9a95a1";
name = Fore;
shapes = (
{
closed = 1;
nodes = (
(31,-89,o),
(31,-75,q),
(31,-61,o),
(45,-47,q),
(59,-33,o),
(83.5,-33,q),
(108,-33,o),
(121,-50,q),
(134,-67,o),
(134,-100,q),
(134,-133,o),
(107,-170.5,q),
(80,-208,o),
(34,-230,q),
(10,-201,l),
(50,-157,o),
(50,-126,q),
(50,-118,o),
(40.5,-103.5,q)
);
}
);
width = 144;
}
);
},
{
glyphname = grave.cap;
layers = (
{
layerId = "299db4c4-aa3b-4344-9706-c7608b9a95a1";
name = Fore;
shapes = (
{
closed = 1;
nodes = (
(10,856,l),
(10,876,o),
(29.5,909,q),
(49,942,o),
(67,942,q),
(85,942,o),
(150.5,896.5,q),
(216,851,o),
(247,820,q),
(223,778,l)
);
}
);
width = 257;
}
);
},
{
glyphname = acute.cap;
layers = (
{
layerId = "299db4c4-aa3b-4344-9706-c7608b9a95a1";
name = Fore;
shapes = (
{
closed = 1;
nodes = (
(34,778,l),
(10,820,l),
(41,851,o),
(106.5,896.5,q),
(172,942,o),
(190,942,q),
(208,942,o),
(227.5,909,q),
(247,876,o),
(247,856,q)
);
}
);
width = 257;
}
);
},
{
glyphname = circumflex.cap;
layers = (
{
layerId = "299db4c4-aa3b-4344-9706-c7608b9a95a1";
name = Fore;
shapes = (
{
closed = 1;
nodes = (
(42,778,l),
(10,818,l),
(120,942,o),
(156,942,q),
(192,942,o),
(302,818,q),
(271,778,l),
(156,855,l)
);
}
);
width = 312;
}
);
},
{
glyphname = dieresis.cap;
layers = (
{
layerId = "299db4c4-aa3b-4344-9706-c7608b9a95a1";
name = Fore;
shapes = (
{
closed = 1;
nodes = (
(286,916,o),
(302,900.5,q),
(318,885,o),
(318,854,q),
(318,789,o),
(251,789,q),
(228,789,o),
(213,804.5,q),
(198,820,o),
(198,850,q),
(198,916,o),
(262,916,q)
);
},
{
closed = 1;
nodes = (
(98,916,o),
(114,900.5,q),
(130,885,o),
(130,854,q),
(130,789,o),
(63,789,q),
(40,789,o),
(25,804.5,q),
(10,820,o),
(10,850,q),
(10,916,o),
(74,916,q)
);
}
);
width = 328;
}
);
},
{
glyphname = caron.cap;
layers = (
{
layerId = "299db4c4-aa3b-4344-9706-c7608b9a95a1";
name = Fore;
shapes = (
{
closed = 1;
nodes = (
(270,943,l),
(302,903,l),
(192,779,o),
(156,779,q),
(120,779,o),
(10,903,q),
(41,943,l),
(156,866,l)
);
}
);
width = 312;
}
);
},
{
glyphname = ring.cap;
layers = (
{
layerId = "299db4c4-aa3b-4344-9706-c7608b9a95a1";
name = Fore;
shapes = (
{
closed = 1;
nodes = (
(60,938,o),
(104,938,q),
(148,938,o),
(173.5,916.5,q),
(199,895,o),
(199,853,q),
(199,811,o),
(172,786.5,q),
(145,762,o),
(101,762,q),
(57,762,o),
(33.5,783.5,q),
(10,805,o),
(10,846.5,q),
(10,888,o),
(35,913,q)
);
},
{
closed = 1;
nodes = (
(146,802,o),
(146,849,q),
(146,896,o),
(104,896,q),
(80,896,o),
(71.5,884,q),
(63,872,o),
(63,848,q),
(63,802,o),
(102,802,q)
);
}
);
width = 209;
}
);
},
{
glyphname = tilde.cap;
layers = (
{
layerId = "299db4c4-aa3b-4344-9706-c7608b9a95a1";
name = Fore;
shapes = (
{
closed = 1;
nodes = (
(9,830,l),
(20,861,o),
(51.5,885,q),
(83,909,o),
(119.5,909,q),
(156,909,o),
(197,886.5,q),
(238,864,o),
(258,864,q),
(278,864,o),
(295,873,q),
(312,882,o),
(319,892,q),
(359,866,l),
(348,835,o),
(316.5,811,q),
(285,787,o),
(248.5,787,q),
(212,787,o),
(171,809,q),
(130,831,o),
(110,831,q),
(90,831,o),
(73,822.5,q),
(56,814,o),
(49,804,q)
);
}
);
width = 370;
}
);
},
{
glyphname = dotaccentcmb.cap;
layers = (
{
layerId = "299db4c4-aa3b-4344-9706-c7608b9a95a1";
name = Fore;
shapes = (
{
closed = 1;
nodes = (
(100,908,o),
(117,892.5,q),
(134,877,o),
(134,846,q),
(134,781,o),
(66,781,q),
(42,781,o),
(26,796.5,q),
(10,812,o),
(10,842,q),
(10,908,o),
(75,908,q)
);
}
);
width = 144;
}
);
},
{
glyphname = dotlessj;
layers = (
{
layerId = "299db4c4-aa3b-4344-9706-c7608b9a95a1";
name = Fore;
shapes = (
{
closed = 1;
nodes = (
(-32,-132,l),
(-19,-133,o),
(16.5,-133,q),
(52,-133,o),
(76,-111.5,q),
(100,-90,o),
(100,-43,q),
(100,527,l),
(208,541,l),
(208,-45,l),
(208,-127,o),
(165.5,-173.5,q),
(123,-220,o),
(34,-220,q),
(-7,-220,o),
(-39,-213,q)
);
}
);
width = 308;
}
);
unicode = 567;
},
{
glyphname = ampersand;
layers = (
{
layerId = "299db4c4-aa3b-4344-9706-c7608b9a95a1";
name = Fore;
shapes = (
{
closed = 1;
nodes = (
(529,414,l),
(652,414,l),
(614,328,l),
(529,328,l),
(529,189,l),
(529,96,o),
(581,96,q),
(585,96,o),
(620,103,q),
(637,5,l),
(586,-12,o),
(553,-12,q),
(477,-12,o),
(443,41,q),
(423,21,o),
(375.5,4.5,q),
(328,-12,o),
(271,-12,q),
(175,-12,o),
(114.5,40.5,q),
(54,93,o),
(54,192,q),
(54,313,o),
(143,363,q),
(143,367,l),
(124.7931,380.6552,o),
(103.3966,405.8276,q),
(61,455.7059,o),
(61,528,q),
(61,617,o),
(126.5,674.5,q),
(192,732,o),
(287,732,q),
(382,732,o),
(471,690,q),
(434,604,l),
(363,636,o),
(308.5,636,q),
(254,636,o),
(217.5,609,q),
(181,582,o),
(181,525,q),
(181,414,o),
(332,414,q),
(415,414,l),
(445,499,l),
(529,513,l)
);
},
{
closed = 1;
nodes = (
(241,84,o),
(287.5,84,q),
(334,84,o),
(367,99.5,q),
(400,115,o),
(415,130,q),
(415,328,l),
(325,328,l),
(254,328,o),
(214,301.5,q),
(174,275,o),
(174,212.5,q),
(174,150,o),
(207.5,117,q)
);
}
);
width = 707;
}
);
unicode = 38;
},
{
glyphname = v.alt;
layers = (
{
layerId = "299db4c4-aa3b-4344-9706-c7608b9a95a1";
name = Fore;
shapes = (
{
closed = 1;
nodes = (
(522,527,l),
(516,413,o),
(468,265,q),
(420,117,o),
(328,2,q),
(236,-12,l),
(221,-12,o),
(209.5,-3,q),
(198,6,o),
(195,19,q),
(150,212,o),
(78,410,q),
(58,463,o),
(28,463,q),
(12,463,o),
(4,460,q),
(-14,520,l),
(21,545,o),
(52,545,q),
(109,545,o),
(132.5,525,q),
(156,505,o),
(177,439,q),
(258,189,o),
(278,74,q),
(339,161,o),
(373.5,293.5,q),
(408,426,o),
(408,541,q)
);
}
);
width = 561;
}
);
},
{
glyphname = w.alt;
layers = (
{
layerId = "299db4c4-aa3b-4344-9706-c7608b9a95a1";
name = Fore;
shapes = (
{
closed = 1;
nodes = (
(490,527,l),
(490,495,o),
(479.5,449.5,q),
(469,404,o),
(468,398,q),
(480,360,o),
(501.5,295.5,q),
(551,147,o),
(567,83,q),
(614,169,o),
(653,290,q),
(692,411,o),
(692,541,q),
(806,527,l),
(806,423,o),
(761.5,292.5,q),
(717,162,o),
(674,82,q),
(631,2,o),
(624,2,q),
(516,-12,l),
(503,-12,o),
(490,-3,q),
(477,6,o),
(474.5,21,q),
(472,36,o),
(459.5,140,q),
(447,244,o),
(433,293,q),
(388.9249,154.7645,o),
(356.4625,78.3823,q),
(324,2,o),
(321,2,q),
(213,-12,l),
(200,-12,o),
(187,-3,q),
(174,6,o),
(172,19,q),
(144,182,o),
(78,404,q),
(70,430,o),
(56,443.5,q),
(42,457,o),
(27,457,q),
(12,457,o),
(4,454,q),
(-14,514,l),
(21,539,o),
(52,539,q),
(109,539,o),
(132.5,519,q),
(156,499,o),
(175,439.5,q),
(194,380,o),
(209.5,322,q),
(225,264,o),
(242.5,190.5,q),
(260,117,o),
(269,83,q),
(309,156,o),
(342.5,281.5,q),
(376,407,o),
(376,541,q)
);
}
);
width = 826;
}
);
},
{
glyphname = x.alt;
layers = (
{
layerId = "299db4c4-aa3b-4344-9706-c7608b9a95a1";
name = Fore;
shapes = (
{
closed = 1;
nodes = (
(520,-10,l),
(508,-12,o),
(485,-12,q),
(393,-12,o),
(336,79,q),
(263,197,l),
(143,0,l),
(29,0,l),
(206,278,l),
(124,405,o),
(122,408,q),
(90,457,o),
(62,457,q),
(46,457,o),
(38,454,q),
(20,514,l),
(55,539,o),
(89.5,539,q),
(124,539,o),
(152,518,q),
(180,497,o),
(218,439,q),
(280,343,l),
(398,541,l),
(512,527,l),
(336,256,l),
(410,142,l),
(457,69,o),
(516,67,q)
);
}
